SplineFontDB: 3.2
FontName: WeatherIcons-SunMoonWind
FullName: WeatherIcons-SunMoonWind
FamilyName: WeatherIcons-SunMoonWind
Weight: Regular
Copyright: Weather Icons licensed under SIL OFL 1.1 - Code licensed under MIT License - Documentation licensed under CC BY 3.0
Version: 1.100;PS 001.100;hotconv 1.0.70;makeotf.lib2.5.58329
ItalicAngle: 0
UnderlinePosition: -112
UnderlineWidth: 57
Ascent: 1755
Descent: 293
InvalidEm: 0
sfntRevision: 0x00011999
LayerCount: 2
Layer: 0 1 "Back" 1
Layer: 1 1 "Fore" 0
XUID: [1021 681 749875292 10748573]
StyleMap: 0x0040
FSType: 4
OS2Version: 3
OS2_WeightWidthSlopeOnly: 0
OS2_UseTypoMetrics: 0
CreationTime: 1439907910
ModificationTime: 1577905779
PfmFamily: 81
TTFWeight: 400
TTFWidth: 5
LineGap: 0
VLineGap: 0
Panose: 0 0 5 0 0 0 0 0 0 0
OS2TypoAscent: 1755
OS2TypoAOffset: 0
OS2TypoDescent: -293
OS2TypoDOffset: 0
OS2TypoLinegap: 0
OS2WinAscent: 2245
OS2WinAOffset: 0
OS2WinDescent: 718
OS2WinDOffset: 0
HheadAscent: 2245
HheadAOffset: 0
HheadDescent: -718
HheadDOffset: 0
OS2SubXSize: 1330
OS2SubYSize: 1229
OS2SubXOff: 0
OS2SubYOff: 153
OS2SupXSize: 1330
OS2SupYSize: 1229
OS2SupXOff: 0
OS2SupYOff: 717
OS2StrikeYSize: 57
OS2StrikeYPos: 1229
OS2CapHeight: 1385
OS2XHeight: 1433
OS2Vendor: 'UKWN'
OS2CodePages: 00000001.00000000
OS2UnicodeRanges: 00000000.00000000.00000000.00000000
MarkAttachClasses: 1
DEI: 91125
TtTable: prep
PUSHW_1
 511
SCANCTRL
PUSHB_1
 1
SCANTYPE
SVTCA[y-axis]
MPPEM
PUSHB_1
 8
LT
IF
PUSHB_2
 1
 1
INSTCTRL
EIF
PUSHB_2
 70
 6
CALL
IF
POP
PUSHB_1
 16
EIF
MPPEM
PUSHB_1
 20
GT
IF
POP
PUSHB_1
 128
EIF
SCVTCI
PUSHB_1
 6
CALL
NOT
IF
EIF
PUSHB_1
 20
CALL
EndTTInstrs
TtTable: fpgm
PUSHB_1
 0
FDEF
PUSHB_1
 0
SZP0
MPPEM
PUSHB_1
 76
LT
IF
PUSHB_1
 74
SROUND
EIF
PUSHB_1
 0
SWAP
MIAP[rnd]
RTG
PUSHB_1
 6
CALL
IF
RTDG
EIF
MPPEM
PUSHB_1
 76
LT
IF
RDTG
EIF
DUP
MDRP[rp0,rnd,grey]
PUSHB_1
 1
SZP0
MDAP[no-rnd]
RTG
ENDF
PUSHB_1
 1
FDEF
DUP
MDRP[rp0,min,white]
PUSHB_1
 12
CALL
ENDF
PUSHB_1
 2
FDEF
MPPEM
GT
IF
RCVT
SWAP
EIF
POP
ENDF
PUSHB_1
 3

StartChar: exclam
Encoding: 33 33 1
Width: 2267
GlyphClass: 2
Flags: W
LayerCount: 2
Fore
SplineSet
0 771 m 0,0,1
 0 810 0 810 27 837 c 0,2,3
 55 863 55 863 91 863 c 2,4,-1
 309 863 l 2,5,6
 346 863 346 863 370.5 836 c 128,-1,7
 395 809 395 809 395 771 c 128,-1,8
 395 733 395 733 370.5 706.5 c 128,-1,9
 346 680 346 680 309 680 c 2,10,-1
 91 680 l 2,11,12
 54 680 54 680 27 707 c 128,-1,13
 0 734 0 734 0 771 c 0,0,1
305 32 m 0,14,15
 305 69 305 69 330 97 c 2,16,-1
 487 249 l 2,17,18
 511 274 511 274 550 274 c 0,19,20
 588 274 588 274 613.5 250 c 128,-1,21
 639 226 639 226 639 189 c 0,22,23
 639 150 639 150 613 121 c 2,24,-1
 461 -31 l 1,25,26
 396 -82 396 -82 330 -31 c 1,27,28
 305 -4 305 -4 305 32 c 0,14,15
305 1509 m 0,29,30
 305 1546 305 1546 330 1574 c 1,31,32
 361 1600 361 1600 398 1600 c 0,33,34
 433 1600 433 1600 461 1574 c 2,35,-1
 613 1417 l 2,36,37
 639 1393 639 1393 639 1354 c 0,38,39
 639 1316 639 1316 613.5 1290.5 c 128,-1,40
 588 1265 588 1265 550 1265 c 0,41,42
 511 1265 511 1265 487 1291 c 2,43,-1
 330 1443 l 2,44,45
 305 1470 305 1470 305 1509 c 0,29,30
577 771 m 0,46,47
 577 920 577 920 652 1048.5 c 128,-1,48
 727 1177 727 1177 855.5 1252 c 128,-1,49
 984 1327 984 1327 1133 1327 c 0,50,51
 1245 1327 1245 1327 1348 1282.5 c 128,-1,52
 1451 1238 1451 1238 1525.5 1163.5 c 128,-1,53
 1600 1089 1600 1089 1644 986 c 128,-1,54
 1688 883 1688 883 1688 771 c 0,55,56
 1688 621 1688 621 1613.5 493 c 128,-1,57
 1539 365 1539 365 1411 290.5 c 128,-1,58
 1283 216 1283 216 1133 216 c 128,-1,59
 983 216 983 216 855 290.5 c 128,-1,60
 727 365 727 365 652 493 c 128,-1,61
 577 621 577 621 577 771 c 0,46,47
758 771 m 0,62,63
 758 615 758 615 867.5 504.5 c 128,-1,64
 977 394 977 394 1133 394 c 128,-1,65
 1289 394 1289 394 1399.5 504.5 c 128,-1,66
 1510 615 1510 615 1510 771 c 0,67,68
 1510 925 1510 925 1399.5 1034 c 128,-1,69
 1289 1143 1289 1143 1133 1143 c 0,70,71
 978 1143 978 1143 868 1034 c 128,-1,72
 758 925 758 925 758 771 c 0,62,63
1042 -58 m 2,73,74
 1042 -20 1042 -20 1068.5 6 c 128,-1,75
 1095 32 1095 32 1133 32 c 0,76,77
 1172 32 1172 32 1198 6 c 128,-1,78
 1224 -20 1224 -20 1224 -58 c 2,79,-1
 1224 -270 l 2,80,81
 1224 -309 1224 -309 1197.5 -336 c 128,-1,82
 1171 -363 1171 -363 1133 -363 c 128,-1,83
 1095 -363 1095 -363 1068.5 -336 c 128,-1,84
 1042 -309 1042 -309 1042 -270 c 2,85,-1
 1042 -58 l 2,73,74
1042 1595 m 2,86,-1
 1042 1813 l 2,87,88
 1042 1850 1042 1850 1069 1877 c 128,-1,89
 1096 1904 1096 1904 1133 1904 c 128,-1,90
 1170 1904 1170 1904 1197 1877 c 128,-1,91
 1224 1850 1224 1850 1224 1813 c 2,92,-1
 1224 1595 l 2,93,94
 1224 1558 1224 1558 1197.5 1533.5 c 128,-1,95
 1171 1509 1171 1509 1133 1509 c 128,-1,96
 1095 1509 1095 1509 1068.5 1533.5 c 128,-1,97
 1042 1558 1042 1558 1042 1595 c 2,86,-1
1631 189 m 0,98,99
 1631 226 1631 226 1655 249 c 0,100,101
 1679 274 1679 274 1715 274 c 0,102,103
 1754 274 1754 274 1779 249 c 2,104,-1
 1935 97 l 2,105,106
 1961 69 1961 69 1961 32 c 128,-1,107
 1961 -5 1961 -5 1935 -31 c 1,108,109
 1871 -81 1871 -81 1807 -31 c 1,110,-1
 1655 121 l 2,111,112
 1631 148 1631 148 1631 189 c 0,98,99
1631 1354 m 0,113,114
 1631 1394 1631 1394 1655 1417 c 2,115,-1
 1807 1574 l 2,116,117
 1835 1600 1835 1600 1870 1600 c 0,118,119
 1908 1600 1908 1600 1934.5 1573 c 128,-1,120
 1961 1546 1961 1546 1961 1509 c 0,121,122
 1961 1469 1961 1469 1935 1443 c 2,123,-1
 1779 1291 l 2,124,125
 1750 1265 1750 1265 1715 1265 c 0,126,127
 1679 1265 1679 1265 1655 1290.5 c 128,-1,128
 1631 1316 1631 1316 1631 1354 c 0,113,114
1872 771 m 128,-1,130
 1872 809 1872 809 1898 837 c 0,131,132
 1924 863 1924 863 1959 863 c 2,133,-1
 2175 863 l 2,134,135
 2212 863 2212 863 2239.5 835.5 c 128,-1,136
 2267 808 2267 808 2267 771 c 128,-1,137
 2267 734 2267 734 2239.5 707 c 128,-1,138
 2212 680 2212 680 2175 680 c 2,139,-1
 1959 680 l 2,140,141
 1922 680 1922 680 1897 706.5 c 128,-1,129
 1872 733 1872 733 1872 771 c 128,-1,130
EndSplineSet
EndChar

StartChar: quotedbl
Encoding: 34 34 2
Width: 1512
GlyphClass: 2
Flags: W
LayerCount: 2
Fore
SplineSet
0 786 m 0,0,1
 0 939 0 939 60 1079 c 128,-1,2
 120 1219 120 1219 221.5 1320.5 c 128,-1,3
 323 1422 323 1422 463.5 1482.5 c 128,-1,4
 604 1543 604 1543 757 1543 c 2,5,-1
 879 1543 l 1,6,7
 904 1536 904 1536 904 1513 c 2,8,-1
 909 1419 l 1,9,10
 915 1216 915 1216 1055 1073 c 128,-1,11
 1195 930 1195 930 1395 922 c 1,12,-1
 1483 915 l 2,13,14
 1509 915 1509 915 1509 890 c 2,15,-1
 1509 786 l 2,16,17
 1510 581 1510 581 1409.5 406.5 c 128,-1,18
 1309 232 1309 232 1135.5 130.5 c 128,-1,19
 962 29 962 29 757 29 c 0,20,21
 601 29 601 29 460.5 89 c 128,-1,22
 320 149 320 149 219.5 250.5 c 128,-1,23
 119 352 119 352 59.5 492 c 128,-1,24
 0 632 0 632 0 786 c 0,0,1
195 786 m 0,25,26
 195 664 195 664 243.5 556 c 128,-1,27
 292 448 292 448 370.5 375 c 128,-1,28
 449 302 449 302 550.5 259.5 c 128,-1,29
 652 217 652 217 757 217 c 0,30,31
 850 217 850 217 944.5 253.5 c 128,-1,32
 1039 290 1039 290 1120 355.5 c 128,-1,33
 1201 421 1201 421 1259.5 523 c 128,-1,34
 1318 625 1318 625 1335 746 c 1,35,36
 1074 800 1074 800 916.5 969.5 c 128,-1,37
 759 1139 759 1139 735 1368 c 1,38,39
 584 1360 584 1360 458.5 1275 c 128,-1,40
 333 1190 333 1190 264 1059.5 c 128,-1,41
 195 929 195 929 195 786 c 0,25,26
EndSplineSet
EndChar

StartChar: numbersign
Encoding: 35 35 3
Width: 2613
GlyphClass: 2
Flags: W
LayerCount: 2
Fore
SplineSet
0 693 m 0,0,1
 0 733 0 733 32 767 c 1,2,3
 68 798 68 798 107 798 c 2,4,-1
 355 798 l 2,5,6
 398 798 398 798 427 767 c 128,-1,7
 456 736 456 736 456 693 c 0,8,9
 456 647 456 647 427 616 c 128,-1,10
 398 585 398 585 355 585 c 2,11,-1
 107 585 l 2,12,13
 64 585 64 585 32 617.5 c 128,-1,14
 0 650 0 650 0 693 c 0,0,1
355 1544 m 0,15,16
 355 1587 355 1587 383 1617 c 1,17,18
 419 1648 419 1648 458 1648 c 0,19,20
 500 1648 500 1648 531 1617 c 2,21,-1
 706 1441 l 2,22,23
 736 1406 736 1406 736 1367 c 0,24,25
 736 1322 736 1322 707 1292 c 128,-1,26
 678 1262 678 1262 637 1262 c 0,27,28
 598 1262 598 1262 562 1293 c 2,29,-1
 383 1466 l 1,30,31
 355 1500 355 1500 355 1544 c 0,15,16
568 104 m 0,32,33
 568 149 568 149 599 177 c 0,34,35
 627 205 627 205 672 205 c 2,36,-1
 953 205 l 1,37,-1
 1285 517 l 2,38,39
 1301 530 1301 530 1321 517 c 1,40,-1
 1658 205 l 1,41,-1
 1953 205 l 2,42,43
 1996 205 1996 205 2026.5 175.5 c 128,-1,44
 2057 146 2057 146 2057 104 c 0,45,46
 2057 61 2057 61 2026.5 30 c 128,-1,47
 1996 -1 1996 -1 1953 -1 c 2,48,-1
 1592 -1 l 2,49,50
 1576 -1 1576 -1 1561 7 c 1,51,-1
 1304 249 l 1,52,-1
 1049 7 l 2,53,54
 1036 -1 1036 -1 1019 -1 c 2,55,-1
 672 -1 l 2,56,57
 629 -1 629 -1 598.5 30 c 128,-1,58
 568 61 568 61 568 104 c 0,32,33
667 693 m 0,59,60
 667 538 667 538 733 411 c 1,61,62
 737 392 737 392 760 392 c 2,63,-1
 961 392 l 2,64,65
 973 392 973 392 977 401 c 128,-1,66
 981 410 981 410 975 421 c 0,67,68
 873 544 873 544 873 693 c 0,69,70
 873 873 873 873 1001 999 c 128,-1,71
 1129 1125 1129 1125 1309 1125 c 0,72,73
 1488 1125 1488 1125 1614.5 999 c 128,-1,74
 1741 873 1741 873 1741 693 c 0,75,76
 1741 543 1741 543 1640 421 c 0,77,78
 1633 410 1633 410 1636.5 401 c 128,-1,79
 1640 392 1640 392 1653 392 c 2,80,-1
 1856 392 l 2,81,82
 1877 392 1877 392 1881 411 c 1,83,84
 1947 534 1947 534 1947 693 c 0,85,86
 1947 823 1947 823 1896 941 c 128,-1,87
 1845 1059 1845 1059 1759.5 1144.5 c 128,-1,88
 1674 1230 1674 1230 1556 1280.5 c 128,-1,89
 1438 1331 1438 1331 1309 1331 c 0,90,91
 1179 1331 1179 1331 1060.5 1280.5 c 128,-1,92
 942 1230 942 1230 855.5 1144.5 c 128,-1,93
 769 1059 769 1059 718 941 c 128,-1,94
 667 823 667 823 667 693 c 0,59,60
1203 1648 m 2,95,-1
 1203 1893 l 2,96,97
 1203 1939 1203 1939 1233 1968.5 c 128,-1,98
 1263 1998 1263 1998 1309 1998 c 0,99,100
 1354 1998 1354 1998 1383.5 1968 c 128,-1,101
 1413 1938 1413 1938 1413 1893 c 2,102,-1
 1413 1648 l 2,103,104
 1413 1602 1413 1602 1383.5 1572.5 c 128,-1,105
 1354 1543 1354 1543 1309 1543 c 0,106,107
 1263 1543 1263 1543 1233 1572.5 c 128,-1,108
 1203 1602 1203 1602 1203 1648 c 2,95,-1
1880 1367 m 0,109,110
 1880 1407 1880 1407 1909 1441 c 2,111,-1
 2082 1617 l 2,112,113
 2113 1648 2113 1648 2157 1648 c 128,-1,114
 2201 1648 2201 1648 2231 1617.5 c 128,-1,115
 2261 1587 2261 1587 2261 1544 c 0,116,117
 2261 1498 2261 1498 2233 1466 c 2,118,-1
 2053 1293 l 2,119,120
 2019 1262 2019 1262 1978 1262 c 0,121,122
 1935 1262 1935 1262 1907.5 1291.5 c 128,-1,123
 1880 1321 1880 1321 1880 1367 c 0,109,110
2159 693 m 0,124,125
 2159 736 2159 736 2187.5 767 c 128,-1,126
 2216 798 2216 798 2258 798 c 2,127,-1
 2509 798 l 2,128,129
 2552 798 2552 798 2583 767 c 128,-1,130
 2614 736 2614 736 2614 693 c 0,131,132
 2614 649 2614 649 2583 617 c 128,-1,133
 2552 585 2552 585 2509 585 c 2,134,-1
 2258 585 l 2,135,136
 2215 585 2215 585 2187 616 c 128,-1,137
 2159 647 2159 647 2159 693 c 0,124,125
EndSplineSet
EndChar

StartChar: dollar
Encoding: 36 36 4
Width: 2585
GlyphClass: 2
Flags: W
LayerCount: 2
Fore
SplineSet
0 681 m 0,0,1
 0 725 0 725 32 753 c 0,2,3
 60 781 60 781 105 781 c 2,4,-1
 351 781 l 2,5,6
 394 781 394 781 422 752.5 c 128,-1,7
 450 724 450 724 450 681 c 0,8,9
 450 636 450 636 421.5 605.5 c 128,-1,10
 393 575 393 575 351 575 c 2,11,-1
 105 575 l 2,12,13
 62 575 62 575 31 606.5 c 128,-1,14
 0 638 0 638 0 681 c 0,0,1
351 1519 m 0,15,16
 351 1564 351 1564 378 1591 c 0,17,18
 410 1623 410 1623 453 1623 c 0,19,20
 499 1623 499 1623 525 1591 c 1,21,-1
 698 1417 l 2,22,23
 772 1347 772 1347 698 1273 c 0,24,25
 668 1243 668 1243 629 1243 c 0,26,27
 594 1243 594 1243 557 1273 c 1,28,-1
 378 1447 l 2,29,30
 351 1476 351 1476 351 1519 c 0,15,16
561 103 m 0,31,32
 561 145 561 145 593 177 c 0,33,34
 622 206 622 206 665 206 c 2,35,-1
 1008 206 l 2,36,37
 1025 206 1025 206 1038 198 c 2,38,-1
 1289 -39 l 1,39,-1
 1544 198 l 2,40,41
 1555 206 1555 206 1575 206 c 2,42,-1
 1927 206 l 2,43,44
 1970 206 1970 206 2000.5 176 c 128,-1,45
 2031 146 2031 146 2031 103 c 128,-1,46
 2031 60 2031 60 2000.5 29.5 c 128,-1,47
 1970 -1 1970 -1 1927 -1 c 2,48,-1
 1641 -1 l 1,49,-1
 1306 -304 l 2,50,51
 1286 -318 1286 -318 1271 -304 c 2,52,-1
 942 -1 l 1,53,-1
 665 -1 l 2,54,55
 622 -1 622 -1 591.5 29.5 c 128,-1,56
 561 60 561 60 561 103 c 0,31,32
661 681 m 0,58,59
 661 522 661 522 723 401 c 0,60,61
 732 384 732 384 752 384 c 2,62,-1
 951 384 l 2,63,64
 964 384 964 384 967 392 c 128,-1,65
 970 400 970 400 959 411 c 0,66,67
 864 530 864 530 864 681 c 0,68,69
 864 857 864 857 990 980.5 c 128,-1,70
 1116 1104 1116 1104 1294 1104 c 0,71,72
 1470 1104 1470 1104 1595.5 980 c 128,-1,73
 1721 856 1721 856 1721 681 c 0,74,75
 1721 530 1721 530 1626 411 c 0,76,77
 1615 400 1615 400 1618 392 c 128,-1,78
 1621 384 1621 384 1634 384 c 2,79,-1
 1835 384 l 2,80,81
 1856 384 1856 384 1861 401 c 0,82,83
 1927 526 1927 526 1927 681 c 0,84,85
 1927 808 1927 808 1876.5 925.5 c 128,-1,86
 1826 1043 1826 1043 1741 1128 c 128,-1,87
 1656 1213 1656 1213 1539 1263.5 c 128,-1,88
 1422 1314 1422 1314 1294 1314 c 128,-1,89
 1166 1314 1166 1314 1049 1263.5 c 128,-1,90
 932 1213 932 1213 847 1128 c 128,-1,91
 762 1043 762 1043 711.5 925.5 c 128,-1,57
 661 808 661 808 661 681 c 0,58,59
1190 1621 m 2,92,-1
 1190 1869 l 2,93,94
 1190 1912 1190 1912 1220.5 1942.5 c 128,-1,95
 1251 1973 1251 1973 1294 1973 c 128,-1,96
 1337 1973 1337 1973 1367.5 1942.5 c 128,-1,97
 1398 1912 1398 1912 1398 1869 c 2,98,-1
 1398 1621 l 2,99,100
 1398 1578 1398 1578 1367.5 1547.5 c 128,-1,101
 1337 1517 1337 1517 1294 1517 c 128,-1,102
 1251 1517 1251 1517 1220.5 1547.5 c 128,-1,103
 1190 1578 1190 1578 1190 1621 c 2,92,-1
1859 1345 m 0,104,105
 1859 1390 1859 1390 1887 1417 c 2,106,-1
 2061 1591 l 1,107,108
 2087 1623 2087 1623 2133 1623 c 0,109,110
 2177 1623 2177 1623 2206 1592.5 c 128,-1,111
 2235 1562 2235 1562 2235 1519 c 0,112,113
 2235 1474 2235 1474 2208 1447 c 2,114,-1
 2031 1273 l 1,115,116
 1994 1243 1994 1243 1957 1243 c 0,117,118
 1915 1243 1915 1243 1887 1272.5 c 128,-1,119
 1859 1302 1859 1302 1859 1345 c 0,104,105
2135 681 m 0,120,121
 2135 724 2135 724 2163 752.5 c 128,-1,122
 2191 781 2191 781 2234 781 c 2,123,-1
 2481 781 l 2,124,125
 2524 781 2524 781 2554.5 752 c 128,-1,126
 2585 723 2585 723 2585 681 c 0,127,128
 2585 638 2585 638 2554.5 606.5 c 128,-1,129
 2524 575 2524 575 2481 575 c 2,130,-1
 2234 575 l 2,131,132
 2192 575 2192 575 2163.5 605.5 c 128,-1,133
 2135 636 2135 636 2135 681 c 0,120,121
EndSplineSet
EndChar

StartChar: percent
Encoding: 37 37 5
Width: 1549
GlyphClass: 2
Flags: W
LayerCount: 2
Fore
SplineSet
7 746 m 0,0,1
 7 903 7 903 68.5 1046.5 c 128,-1,2
 130 1190 130 1190 234 1294.5 c 128,-1,3
 338 1399 338 1399 482 1461 c 128,-1,4
 626 1523 626 1523 784 1523 c 2,5,-1
 909 1523 l 1,6,7
 935 1516 935 1516 935 1493 c 2,8,-1
 939 1397 l 2,9,10
 945 1189 945 1189 1089.5 1041.5 c 128,-1,11
 1234 894 1234 894 1439 886 c 1,12,-1
 1530 879 l 2,13,14
 1555 879 1555 879 1555 854 c 2,15,-1
 1555 746 l 2,16,17
 1556 582 1556 582 1493 435 c 1,18,-1
 1274 435 l 1,19,20
 1355 554 1355 554 1377 705 c 1,21,22
 1109 761 1109 761 947.5 935 c 128,-1,23
 786 1109 786 1109 761 1344 c 1,24,25
 606 1336 606 1336 477.5 1248.5 c 128,-1,26
 349 1161 349 1161 278.5 1027 c 128,-1,27
 208 893 208 893 208 746 c 0,28,29
 208 575 208 575 297 435 c 1,30,-1
 71 435 l 1,31,32
 7 583 7 583 7 746 c 0,0,1
37 105 m 0,33,34
 37 151 37 151 67 178 c 0,35,36
 95 206 95 206 141 206 c 2,37,-1
 422 206 l 1,38,-1
 753 518 l 2,39,40
 769 531 769 531 790 518 c 1,41,-1
 1127 206 l 1,42,-1
 1422 206 l 2,43,44
 1465 206 1465 206 1495.5 176.5 c 128,-1,45
 1526 147 1526 147 1526 105 c 0,46,47
 1526 62 1526 62 1495.5 31 c 128,-1,48
 1465 0 1465 0 1422 0 c 2,49,-1
 1061 0 l 2,50,51
 1045 0 1045 0 1030 8 c 1,52,-1
 773 250 l 1,53,-1
 518 8 l 2,54,55
 505 0 505 0 488 0 c 2,56,-1
 141 0 l 2,57,58
 98 0 98 0 67.5 31 c 128,-1,59
 37 62 37 62 37 105 c 0,33,34
EndSplineSet
EndChar

StartChar: ampersand
Encoding: 38 38 6
Width: 1549
GlyphClass: 2
Flags: W
LayerCount: 2
Fore
SplineSet
0 746 m 0,0,1
 0 903 0 903 61.5 1046.5 c 128,-1,2
 123 1190 123 1190 227 1294.5 c 128,-1,3
 331 1399 331 1399 475 1461 c 128,-1,4
 619 1523 619 1523 777 1523 c 2,5,-1
 902 1523 l 1,6,7
 928 1516 928 1516 928 1493 c 2,8,-1
 933 1397 l 2,9,10
 936 1294 936 1294 976 1201.5 c 128,-1,11
 1016 1109 1016 1109 1082.5 1041 c 128,-1,12
 1149 973 1149 973 1240 931.5 c 128,-1,13
 1331 890 1331 890 1432 886 c 2,14,-1
 1523 879 l 2,15,16
 1549 879 1549 879 1549 854 c 2,17,-1
 1549 746 l 2,18,19
 1550 584 1550 584 1486 435 c 1,20,-1
 1267 435 l 1,21,22
 1348 554 1348 554 1370 705 c 1,23,24
 1102 761 1102 761 940.5 935 c 128,-1,25
 779 1109 779 1109 754 1344 c 1,26,27
 599 1336 599 1336 470.5 1248.5 c 128,-1,28
 342 1161 342 1161 271.5 1027 c 128,-1,29
 201 893 201 893 201 746 c 0,30,31
 201 575 201 575 290 435 c 1,32,-1
 64 435 l 1,33,34
 0 583 0 583 0 746 c 0,0,1
27 103 m 0,35,36
 27 145 27 145 59 177 c 0,37,38
 88 206 88 206 131 206 c 2,39,-1
 474 206 l 2,40,41
 491 206 491 206 504 198 c 2,42,-1
 755 -39 l 1,43,-1
 1010 198 l 2,44,45
 1021 206 1021 206 1041 206 c 2,46,-1
 1393 206 l 2,47,48
 1436 206 1436 206 1466.5 176 c 128,-1,49
 1497 146 1497 146 1497 103 c 128,-1,50
 1497 60 1497 60 1466.5 29.5 c 128,-1,51
 1436 -1 1436 -1 1393 -1 c 2,52,-1
 1107 -1 l 1,53,-1
 773 -304 l 2,54,55
 753 -318 753 -318 737 -304 c 2,56,-1
 408 -1 l 1,57,-1
 131 -1 l 2,58,59
 88 -1 88 -1 57.5 29.5 c 128,-1,60
 27 60 27 60 27 103 c 0,35,36
EndSplineSet
EndChar

StartChar: quotesingle
Encoding: 39 39 7
Width: 1115
GlyphClass: 2
Flags: W
LayerCount: 2
Fore
SplineSet
0 674 m 0,0,1
 0 523 0 523 75.5 394.5 c 128,-1,2
 151 266 151 266 279.5 191.5 c 128,-1,3
 408 117 408 117 558 117 c 0,4,5
 711 117 711 117 839 191 c 128,-1,6
 967 265 967 265 1041 393 c 128,-1,7
 1115 521 1115 521 1115 674 c 0,8,9
 1115 712 1115 712 1089.5 739 c 128,-1,10
 1064 766 1064 766 1027 766 c 128,-1,11
 990 766 990 766 963 739 c 128,-1,12
 936 712 936 712 936 674 c 0,13,14
 936 517 936 517 825.5 406.5 c 128,-1,15
 715 296 715 296 558 296 c 0,16,17
 403 296 403 296 294 406.5 c 128,-1,18
 185 517 185 517 185 674 c 0,19,20
 185 810 185 810 269.5 920.5 c 128,-1,21
 354 1031 354 1031 466 1038 c 1,22,-1
 425 999 l 2,23,24
 399 971 399 971 399 937 c 0,25,26
 399 901 399 901 425 873 c 0,27,28
 483 817 483 817 554 873 c 1,29,-1
 750 1067 l 1,30,31
 776 1087 776 1087 776 1133 c 0,32,33
 776 1174 776 1174 750 1194 c 1,34,-1
 554 1392 l 2,35,36
 526 1418 526 1418 493 1418 c 0,37,38
 453 1418 453 1418 426 1391.5 c 128,-1,39
 399 1365 399 1365 399 1327 c 0,40,41
 399 1288 399 1288 425 1262 c 2,42,-1
 466 1224 l 1,43,44
 266 1189 266 1189 133 1032.5 c 128,-1,45
 0 876 0 876 0 674 c 0,0,1
EndSplineSet
EndChar

StartChar: parenleft
Encoding: 40 40 8
Width: 691
GlyphClass: 2
Flags: W
LayerCount: 2
Fore
SplineSet
1 1013 m 0,0,1
 0 977 0 977 24.5 951.5 c 128,-1,2
 49 926 49 926 85 927 c 0,3,4
 120 925 120 925 145 952 c 2,5,-1
 258 1064 l 1,6,-1
 258 361 l 2,7,8
 257 325 257 325 282.5 301 c 128,-1,9
 308 277 308 277 345 278 c 0,10,11
 380 276 380 276 406 300 c 128,-1,12
 432 324 432 324 433 360 c 2,13,-1
 433 1063 l 1,14,-1
 545 951 l 2,15,16
 569 926 569 926 605 926 c 0,17,18
 642 926 642 926 666.5 950.5 c 128,-1,19
 691 975 691 975 691 1011 c 0,20,21
 689 1048 689 1048 664 1069 c 2,22,-1
 409 1331 l 2,23,24
 384 1355 384 1355 346 1358 c 1,25,26
 308 1356 308 1356 283 1330 c 2,27,-1
 27 1070 l 2,28,29
 1 1048 1 1048 1 1013 c 0,0,1
EndSplineSet
EndChar

StartChar: parenright
Encoding: 41 41 9
Width: 676
GlyphClass: 2
Flags: W
LayerCount: 2
Fore
SplineSet
0 557 m 128,-1,1
 0 526 0 526 18 507 c 0,2,3
 38 488 38 488 72 488 c 0,4,5
 103 488 103 488 122 507 c 2,6,-1
 534 920 l 1,7,-1
 534 787 l 2,8,9
 534 756 534 756 554.5 735.5 c 128,-1,10
 575 715 575 715 606 715 c 0,11,12
 636 715 636 715 656.5 736 c 128,-1,13
 677 757 677 757 677 787 c 2,14,-1
 677 1093 l 2,15,16
 677 1124 677 1124 656.5 1144.5 c 128,-1,17
 636 1165 636 1165 606 1165 c 2,18,-1
 299 1165 l 2,19,20
 269 1165 269 1165 249 1144.5 c 128,-1,21
 229 1124 229 1124 229 1093 c 0,22,23
 229 1063 229 1063 249 1043 c 128,-1,24
 269 1023 269 1023 299 1023 c 2,25,-1
 432 1023 l 1,26,-1
 18 609 l 2,27,0
 0 588 0 588 0 557 c 128,-1,1
EndSplineSet
EndChar

StartChar: asterisk
Encoding: 42 42 10
Width: 1081
GlyphClass: 2
Flags: W
LayerCount: 2
Fore
SplineSet
1 799 m 0,0,1
 1 763 1 763 25.5 738 c 128,-1,2
 50 713 50 713 85 717 c 1,3,-1
 787 717 l 1,4,-1
 677 602 l 2,5,6
 651 576 651 576 651 543 c 0,7,8
 651 507 651 507 676.5 482 c 128,-1,9
 702 457 702 457 738 457 c 0,10,11
 772 458 772 458 795 486 c 2,12,-1
 1056 743 l 2,13,14
 1081 768 1081 768 1081 805 c 0,15,16
 1080 843 1080 843 1055 867 c 2,17,-1
 792 1122 l 2,18,19
 768 1148 768 1148 734 1147 c 0,20,21
 698 1147 698 1147 673 1123 c 128,-1,22
 648 1099 648 1099 648 1063 c 128,-1,23
 648 1027 648 1027 673 1002 c 2,24,-1
 786 887 l 1,25,-1
 83 887 l 2,26,27
 47 886 47 886 23.5 860.5 c 128,-1,28
 0 835 0 835 1 799 c 0,0,1
EndSplineSet
EndChar

StartChar: plus
Encoding: 43 43 11
Width: 677
GlyphClass: 2
Flags: W
LayerCount: 2
Fore
SplineSet
0 1067 m 128,-1,1
 0 1098 0 1098 18 1117 c 0,2,3
 38 1136 38 1136 72 1136 c 0,4,5
 103 1136 103 1136 122 1117 c 2,6,-1
 535 704 l 1,7,-1
 535 837 l 2,8,9
 535 868 535 868 555.5 888.5 c 128,-1,10
 576 909 576 909 607 909 c 0,11,12
 637 909 637 909 657.5 888 c 128,-1,13
 678 867 678 867 678 837 c 2,14,-1
 678 531 l 2,15,16
 678 500 678 500 657.5 479.5 c 128,-1,17
 637 459 637 459 607 459 c 2,18,-1
 301 459 l 2,19,20
 271 459 271 459 250.5 479.5 c 128,-1,21
 230 500 230 500 230 531 c 0,22,23
 230 561 230 561 250.5 581 c 128,-1,24
 271 601 271 601 301 601 c 2,25,-1
 433 601 l 1,26,-1
 18 1015 l 2,27,0
 0 1036 0 1036 0 1067 c 128,-1,1
EndSplineSet
EndChar

StartChar: comma
Encoding: 44 44 12
Width: 690
GlyphClass: 2
Flags: W
LayerCount: 2
Fore
SplineSet
0 574 m 0,0,1
 0 539 0 539 27 515 c 2,2,-1
 283 254 l 2,3,4
 308 229 308 229 345 229 c 0,5,6
 383 229 383 229 408 254 c 2,7,-1
 664 515 l 2,8,9
 690 538 690 538 690 574 c 128,-1,10
 690 610 690 610 666 634.5 c 128,-1,11
 642 659 642 659 606 659 c 128,-1,12
 570 659 570 659 545 634 c 2,13,-1
 432 522 l 1,14,-1
 432 1225 l 2,15,16
 432 1261 432 1261 406.5 1285 c 128,-1,17
 381 1309 381 1309 345 1309 c 128,-1,18
 309 1309 309 1309 283.5 1285 c 128,-1,19
 258 1261 258 1261 258 1225 c 2,20,-1
 258 522 l 1,21,-1
 145 634 l 2,22,23
 120 659 120 659 86 659 c 0,24,25
 50 659 50 659 25 634.5 c 128,-1,26
 0 610 0 610 0 574 c 0,0,1
EndSplineSet
EndChar

StartChar: hyphen
Encoding: 45 45 13
Width: 677
GlyphClass: 2
Flags: W
LayerCount: 2
Fore
SplineSet
0 542 m 2,0,1
 0 511 0 511 20.5 490.5 c 128,-1,2
 41 470 41 470 71 470 c 2,3,-1
 377 470 l 2,4,5
 407 470 407 470 427.5 490.5 c 128,-1,6
 448 511 448 511 448 542 c 0,7,8
 448 572 448 572 427.5 591.5 c 128,-1,9
 407 611 407 611 377 611 c 2,10,-1
 245 611 l 1,11,-1
 659 1025 l 2,12,13
 678 1047 678 1047 678 1078 c 0,14,15
 678 1107 678 1107 659 1127 c 0,16,17
 639 1146 639 1146 606 1146 c 0,18,19
 574 1146 574 1146 555 1127 c 2,20,-1
 143 714 l 1,21,-1
 143 847 l 2,22,23
 143 878 143 878 122.5 898.5 c 128,-1,24
 102 919 102 919 71 919 c 0,25,26
 41 919 41 919 20.5 898 c 128,-1,27
 0 877 0 877 0 847 c 2,28,-1
 0 542 l 2,0,1
EndSplineSet
EndChar

StartChar: period
Encoding: 46 46 14
Width: 1080
GlyphClass: 2
Flags: W
LayerCount: 2
Fore
SplineSet
0 734 m 0,0,1
 0 696 0 696 25 671 c 2,2,-1
 287 415 l 2,3,4
 310 389 310 389 345 389 c 0,5,6
 381 389 381 389 406 413 c 128,-1,7
 431 437 431 437 431 473 c 128,-1,8
 431 509 431 509 406 534 c 2,9,-1
 294 646 l 1,10,-1
 997 646 l 2,11,12
 1033 646 1033 646 1056.5 671.5 c 128,-1,13
 1080 697 1080 697 1080 733 c 128,-1,14
 1080 769 1080 769 1056.5 794.5 c 128,-1,15
 1033 820 1033 820 997 821 c 2,16,-1
 294 821 l 1,17,-1
 406 934 l 2,18,19
 431 959 431 959 431 993 c 0,20,21
 431 1029 431 1029 406 1054 c 128,-1,22
 381 1079 381 1079 345 1079 c 0,23,24
 312 1079 312 1079 287 1051 c 2,25,-1
 25 795 l 2,26,27
 0 770 0 770 0 734 c 0,0,1
EndSplineSet
EndChar

StartChar: slash
Encoding: 47 47 15
Width: 676
GlyphClass: 2
Flags: W
LayerCount: 2
Fore
SplineSet
-1 778 m 2,0,-1
 -1 1083 l 2,1,2
 -1 1114 -1 1114 19.5 1134.5 c 128,-1,3
 40 1155 40 1155 70 1155 c 2,4,-1
 376 1155 l 2,5,6
 406 1155 406 1155 426.5 1134.5 c 128,-1,7
 447 1114 447 1114 447 1083 c 0,8,9
 447 1053 447 1053 426.5 1033.5 c 128,-1,10
 406 1014 406 1014 376 1014 c 2,11,-1
 243 1014 l 1,12,-1
 657 600 l 2,13,14
 675 579 675 579 675 547 c 0,15,16
 675 517 675 517 657 498 c 0,17,18
 637 479 637 479 603 479 c 0,19,20
 572 479 572 479 553 498 c 2,21,-1
 142 911 l 1,22,-1
 142 778 l 2,23,24
 142 747 142 747 121.5 726.5 c 128,-1,25
 101 706 101 706 70 706 c 0,26,27
 40 706 40 706 19.5 727 c 128,-1,28
 -1 748 -1 748 -1 778 c 2,0,-1
EndSplineSet
EndChar

StartChar: zero
Encoding: 48 48 16
Width: 1537
GlyphClass: 2
Flags: W
LayerCount: 2
Fore
SplineSet
0 769 m 128,-1,1
 0 925 0 925 61 1067 c 128,-1,2
 122 1209 122 1209 225 1312 c 128,-1,3
 328 1415 328 1415 470 1476 c 128,-1,4
 612 1537 612 1537 768 1537 c 128,-1,5
 924 1537 924 1537 1066.5 1476 c 128,-1,6
 1209 1415 1209 1415 1312 1312 c 128,-1,7
 1415 1209 1415 1209 1476 1067 c 128,-1,8
 1537 925 1537 925 1537 769 c 128,-1,9
 1537 613 1537 613 1476 470.5 c 128,-1,10
 1415 328 1415 328 1312 225 c 128,-1,11
 1209 122 1209 122 1066.5 61 c 128,-1,12
 924 0 924 0 768 0 c 128,-1,13
 612 0 612 0 470 61 c 128,-1,14
 328 122 328 122 225 225 c 128,-1,15
 122 328 122 328 61 470.5 c 128,-1,0
 0 613 0 613 0 769 c 128,-1,1
863 1449 m 1,16,17
 1031 1357 1031 1357 1138.5 1182.5 c 128,-1,18
 1246 1008 1246 1008 1246 769 c 0,19,20
 1246 267 1246 267 894 94 c 1,21,22
 1135 139 1135 139 1295 329 c 128,-1,23
 1455 519 1455 519 1455 769 c 0,24,25
 1455 939 1455 939 1377 1087 c 128,-1,26
 1299 1235 1299 1235 1163.5 1330.5 c 128,-1,27
 1028 1426 1028 1426 863 1449 c 1,16,17
EndSplineSet
EndChar

StartChar: one
Encoding: 49 49 17
Width: 1537
GlyphClass: 2
Flags: W
LayerCount: 2
Fore
SplineSet
0 769 m 128,-1,1
 0 925 0 925 61 1067 c 128,-1,2
 122 1209 122 1209 225 1312 c 128,-1,3
 328 1415 328 1415 470 1476 c 128,-1,4
 612 1537 612 1537 768 1537 c 128,-1,5
 924 1537 924 1537 1066.5 1476 c 128,-1,6
 1209 1415 1209 1415 1312 1312 c 128,-1,7
 1415 1209 1415 1209 1476 1067 c 128,-1,8
 1537 925 1537 925 1537 769 c 128,-1,9
 1537 613 1537 613 1476 470.5 c 128,-1,10
 1415 328 1415 328 1312 225 c 128,-1,11
 1209 122 1209 122 1066.5 61 c 128,-1,12
 924 0 924 0 768 0 c 128,-1,13
 612 0 612 0 470 61 c 128,-1,14
 328 122 328 122 225 225 c 128,-1,15
 122 328 122 328 61 470.5 c 128,-1,0
 0 613 0 613 0 769 c 128,-1,1
830 1453 m 1,16,17
 982 1352 982 1352 1079 1176.5 c 128,-1,18
 1176 1001 1176 1001 1176 769 c 0,19,20
 1176 277 1176 277 849 87 c 1,21,22
 1018 107 1018 107 1156.5 202 c 128,-1,23
 1295 297 1295 297 1375 446.5 c 128,-1,24
 1455 596 1455 596 1455 769 c 0,25,26
 1455 945 1455 945 1372 1097 c 128,-1,27
 1289 1249 1289 1249 1146 1343.5 c 128,-1,28
 1003 1438 1003 1438 830 1453 c 1,16,17
EndSplineSet
EndChar

StartChar: two
Encoding: 50 50 18
Width: 1537
GlyphClass: 2
Flags: W
LayerCount: 2
Fore
SplineSet
0 769 m 128,-1,1
 0 925 0 925 61 1067 c 128,-1,2
 122 1209 122 1209 225 1312 c 128,-1,3
 328 1415 328 1415 470 1476 c 128,-1,4
 612 1537 612 1537 768 1537 c 128,-1,5
 924 1537 924 1537 1066.5 1476 c 128,-1,6
 1209 1415 1209 1415 1312 1312 c 128,-1,7
 1415 1209 1415 1209 1476 1067 c 128,-1,8
 1537 925 1537 925 1537 769 c 128,-1,9
 1537 613 1537 613 1476 470.5 c 128,-1,10
 1415 328 1415 328 1312 225 c 128,-1,11
 1209 122 1209 122 1066.5 61 c 128,-1,12
 924 0 924 0 768 0 c 128,-1,13
 612 0 612 0 470 61 c 128,-1,14
 328 122 328 122 225 225 c 128,-1,15
 122 328 122 328 61 470.5 c 128,-1,0
 0 613 0 613 0 769 c 128,-1,1
808 1454 m 1,16,17
 939 1341 939 1341 1022 1166 c 128,-1,18
 1105 991 1105 991 1105 769 c 0,19,20
 1105 294 1105 294 821 83 c 1,21,22
 952 93 952 93 1069 151 c 128,-1,23
 1186 209 1186 209 1271 300 c 128,-1,24
 1356 391 1356 391 1405.5 513.5 c 128,-1,25
 1455 636 1455 636 1455 769 c 0,26,27
 1455 948 1455 948 1369 1102.5 c 128,-1,28
 1283 1257 1283 1257 1134 1351 c 128,-1,29
 985 1445 985 1445 808 1454 c 1,16,17
EndSplineSet
EndChar

StartChar: three
Encoding: 51 51 19
Width: 1755
GlyphClass: 2
Flags: W
LayerCount: 2
Fore
SplineSet
0 769 m 128,-1,1
 0 925 0 925 61 1067 c 128,-1,2
 122 1209 122 1209 225 1312 c 128,-1,3
 328 1415 328 1415 470 1476 c 128,-1,4
 612 1537 612 1537 768 1537 c 128,-1,5
 924 1537 924 1537 1066.5 1476 c 128,-1,6
 1209 1415 1209 1415 1312 1312 c 128,-1,7
 1415 1209 1415 1209 1476 1067 c 128,-1,8
 1537 925 1537 925 1537 769 c 128,-1,9
 1537 613 1537 613 1476 470.5 c 128,-1,10
 1415 328 1415 328 1312 225 c 128,-1,11
 1209 122 1209 122 1066.5 61 c 128,-1,12
 924 0 924 0 768 0 c 128,-1,13
 612 0 612 0 470 61 c 128,-1,14
 328 122 328 122 225 225 c 128,-1,15
 122 328 122 328 61 470.5 c 128,-1,0
 0 613 0 613 0 769 c 128,-1,1
792 1455 m 1,16,17
 900 1325 900 1325 967.5 1152 c 128,-1,18
 1035 979 1035 979 1035 769 c 0,19,20
 1035 319 1035 319 801 82 c 1,21,22
 935 88 935 88 1056 145 c 128,-1,23
 1177 202 1177 202 1264.5 293.5 c 128,-1,24
 1352 385 1352 385 1403.5 509 c 128,-1,25
 1455 633 1455 633 1455 769 c 0,26,27
 1455 951 1455 951 1366.5 1106.5 c 128,-1,28
 1278 1262 1278 1262 1125.5 1355.5 c 128,-1,29
 973 1449 973 1449 792 1455 c 1,16,17
EndSplineSet
EndChar

StartChar: four
Encoding: 52 52 20
Width: 1537
GlyphClass: 2
Flags: W
LayerCount: 2
Fore
SplineSet
0 769 m 128,-1,1
 0 925 0 925 61 1067 c 128,-1,2
 122 1209 122 1209 225 1312 c 128,-1,3
 328 1415 328 1415 470 1476 c 128,-1,4
 612 1537 612 1537 768 1537 c 128,-1,5
 924 1537 924 1537 1066.5 1476 c 128,-1,6
 1209 1415 1209 1415 1312 1312 c 128,-1,7
 1415 1209 1415 1209 1476 1067 c 128,-1,8
 1537 925 1537 925 1537 769 c 128,-1,9
 1537 613 1537 613 1476 470.5 c 128,-1,10
 1415 328 1415 328 1312 225 c 128,-1,11
 1209 122 1209 122 1066.5 61 c 128,-1,12
 924 0 924 0 768 0 c 128,-1,13
 612 0 612 0 470 61 c 128,-1,14
 328 122 328 122 225 225 c 128,-1,15
 122 328 122 328 61 470.5 c 128,-1,0
 0 613 0 613 0 769 c 128,-1,1
779 1455 m 1,16,17
 966 1125 966 1125 966 769 c 0,18,19
 966 343 966 343 785 82 c 1,20,21
 922 85 922 85 1046 141 c 128,-1,22
 1170 197 1170 197 1259.5 288.5 c 128,-1,23
 1349 380 1349 380 1402 505.5 c 128,-1,24
 1455 631 1455 631 1455 769 c 0,25,26
 1455 953 1455 953 1364.5 1110 c 128,-1,27
 1274 1267 1274 1267 1118.5 1359.5 c 128,-1,28
 963 1452 963 1452 779 1455 c 1,16,17
EndSplineSet
EndChar

StartChar: five
Encoding: 53 53 21
Width: 1537
GlyphClass: 2
Flags: W
LayerCount: 2
Fore
SplineSet
0 769 m 128,-1,1
 0 925 0 925 61 1067 c 128,-1,2
 122 1209 122 1209 225 1312 c 128,-1,3
 328 1415 328 1415 470 1476 c 128,-1,4
 612 1537 612 1537 768 1537 c 128,-1,5
 924 1537 924 1537 1066.5 1476 c 128,-1,6
 1209 1415 1209 1415 1312 1312 c 128,-1,7
 1415 1209 1415 1209 1476 1067 c 128,-1,8
 1537 925 1537 925 1537 769 c 128,-1,9
 1537 613 1537 613 1476 470.5 c 128,-1,10
 1415 328 1415 328 1312 225 c 128,-1,11
 1209 122 1209 122 1066.5 61 c 128,-1,12
 924 0 924 0 768 0 c 128,-1,13
 612 0 612 0 470 61 c 128,-1,14
 328 122 328 122 225 225 c 128,-1,15
 122 328 122 328 61 470.5 c 128,-1,0
 0 613 0 613 0 769 c 128,-1,1
769 1455 m 1,16,17
 895 1092 895 1092 895 769 c 0,18,19
 895 367 895 367 774 82 c 1,20,21
 912 83 912 83 1038.5 137.5 c 128,-1,22
 1165 192 1165 192 1256 284 c 128,-1,23
 1347 376 1347 376 1401 503 c 128,-1,24
 1455 630 1455 630 1455 769 c 128,-1,25
 1455 908 1455 908 1400.5 1035 c 128,-1,26
 1346 1162 1346 1162 1254 1254 c 128,-1,27
 1162 1346 1162 1346 1035 1400.5 c 128,-1,28
 908 1455 908 1455 769 1455 c 1,16,17
EndSplineSet
EndChar

StartChar: six
Encoding: 54 54 22
Width: 1537
GlyphClass: 2
Flags: W
LayerCount: 2
Fore
SplineSet
0 769 m 128,-1,1
 0 925 0 925 61 1067 c 128,-1,2
 122 1209 122 1209 225 1312 c 128,-1,3
 328 1415 328 1415 470 1476 c 128,-1,4
 612 1537 612 1537 768 1537 c 128,-1,5
 924 1537 924 1537 1066.5 1476 c 128,-1,6
 1209 1415 1209 1415 1312 1312 c 128,-1,7
 1415 1209 1415 1209 1476 1067 c 128,-1,8
 1537 925 1537 925 1537 769 c 128,-1,9
 1537 613 1537 613 1476 470.5 c 128,-1,10
 1415 328 1415 328 1312 225 c 128,-1,11
 1209 122 1209 122 1066.5 61 c 128,-1,12
 924 0 924 0 768 0 c 128,-1,13
 612 0 612 0 470 61 c 128,-1,14
 328 122 328 122 225 225 c 128,-1,15
 122 328 122 328 61 470.5 c 128,-1,0
 0 613 0 613 0 769 c 128,-1,1
755 82 m 1,16,-1
 768 82 l 2,17,18
 908 82 908 82 1035 136.5 c 128,-1,19
 1162 191 1162 191 1254 283 c 128,-1,20
 1346 375 1346 375 1400.5 502 c 128,-1,21
 1455 629 1455 629 1455 769 c 0,22,23
 1455 908 1455 908 1400.5 1035 c 128,-1,24
 1346 1162 1346 1162 1254 1254 c 128,-1,25
 1162 1346 1162 1346 1035 1400.5 c 128,-1,26
 908 1455 908 1455 768 1455 c 2,27,-1
 755 1455 l 1,28,-1
 755 82 l 1,16,-1
EndSplineSet
EndChar

StartChar: seven
Encoding: 55 55 23
Width: 1537
GlyphClass: 2
Flags: W
LayerCount: 2
Fore
SplineSet
0 769 m 128,-1,1
 0 925 0 925 61 1067 c 128,-1,2
 122 1209 122 1209 225 1312 c 128,-1,3
 328 1415 328 1415 470 1476 c 128,-1,4
 612 1537 612 1537 768 1537 c 128,-1,5
 924 1537 924 1537 1066.5 1476 c 128,-1,6
 1209 1415 1209 1415 1312 1312 c 128,-1,7
 1415 1209 1415 1209 1476 1067 c 128,-1,8
 1537 925 1537 925 1537 769 c 128,-1,9
 1537 613 1537 613 1476 470.5 c 128,-1,10
 1415 328 1415 328 1312 225 c 128,-1,11
 1209 122 1209 122 1066.5 61 c 128,-1,12
 924 0 924 0 768 0 c 128,-1,13
 612 0 612 0 470 61 c 128,-1,14
 328 122 328 122 225 225 c 128,-1,15
 122 328 122 328 61 470.5 c 128,-1,0
 0 613 0 613 0 769 c 128,-1,1
658 769 m 0,16,17
 658 379 658 379 742 82 c 1,18,-1
 768 82 l 2,19,20
 908 82 908 82 1035 136.5 c 128,-1,21
 1162 191 1162 191 1254 283 c 128,-1,22
 1346 375 1346 375 1400.5 502 c 128,-1,23
 1455 629 1455 629 1455 769 c 0,24,25
 1455 908 1455 908 1400.5 1035 c 128,-1,26
 1346 1162 1346 1162 1254 1254 c 128,-1,27
 1162 1346 1162 1346 1035 1400.5 c 128,-1,28
 908 1455 908 1455 768 1455 c 2,29,-1
 745 1455 l 1,30,31
 658 1087 658 1087 658 769 c 0,16,17
EndSplineSet
EndChar

StartChar: eight
Encoding: 56 56 24
Width: 1537
GlyphClass: 2
Flags: W
LayerCount: 2
Fore
SplineSet
0 769 m 128,-1,1
 0 925 0 925 61 1067 c 128,-1,2
 122 1209 122 1209 225 1312 c 128,-1,3
 328 1415 328 1415 470 1476 c 128,-1,4
 612 1537 612 1537 768 1537 c 128,-1,5
 924 1537 924 1537 1066.5 1476 c 128,-1,6
 1209 1415 1209 1415 1312 1312 c 128,-1,7
 1415 1209 1415 1209 1476 1067 c 128,-1,8
 1537 925 1537 925 1537 769 c 128,-1,9
 1537 613 1537 613 1476 470.5 c 128,-1,10
 1415 328 1415 328 1312 225 c 128,-1,11
 1209 122 1209 122 1066.5 61 c 128,-1,12
 924 0 924 0 768 0 c 128,-1,13
 612 0 612 0 470 61 c 128,-1,14
 328 122 328 122 225 225 c 128,-1,15
 122 328 122 328 61 470.5 c 128,-1,0
 0 613 0 613 0 769 c 128,-1,1
561 769 m 0,16,17
 561 344 561 344 726 83 c 1,18,19
 741 82 741 82 768 82 c 0,20,21
 908 82 908 82 1035 136.5 c 128,-1,22
 1162 191 1162 191 1254 283 c 128,-1,23
 1346 375 1346 375 1400.5 502 c 128,-1,24
 1455 629 1455 629 1455 769 c 0,25,26
 1455 908 1455 908 1400.5 1035 c 128,-1,27
 1346 1162 1346 1162 1254 1254 c 128,-1,28
 1162 1346 1162 1346 1035 1400.5 c 128,-1,29
 908 1455 908 1455 768 1455 c 0,30,31
 744 1455 744 1455 731 1454 c 1,32,33
 561 1132 561 1132 561 769 c 0,16,17
EndSplineSet
EndChar

StartChar: nine
Encoding: 57 57 25
Width: 1537
GlyphClass: 2
Flags: W
LayerCount: 2
Fore
SplineSet
0 769 m 0,0,1
 0 977 0 977 103 1154 c 128,-1,2
 206 1331 206 1331 383 1434 c 128,-1,3
 560 1537 560 1537 768 1537 c 0,4,5
 924 1537 924 1537 1066.5 1476 c 128,-1,6
 1209 1415 1209 1415 1312 1312 c 128,-1,7
 1415 1209 1415 1209 1476 1067 c 128,-1,8
 1537 925 1537 925 1537 769 c 128,-1,9
 1537 613 1537 613 1476 470.5 c 128,-1,10
 1415 328 1415 328 1312 225 c 128,-1,11
 1209 122 1209 122 1066.5 61 c 128,-1,12
 924 0 924 0 768 0 c 128,-1,13
 612 0 612 0 469.5 61 c 128,-1,14
 327 122 327 122 224.5 225 c 128,-1,15
 122 328 122 328 61 470.5 c 128,-1,16
 0 613 0 613 0 769 c 0,0,1
464 769 m 0,17,18
 464 314 464 314 703 85 c 1,19,20
 710 85 710 85 723.5 84 c 128,-1,21
 737 83 737 83 747.5 82.5 c 128,-1,22
 758 82 758 82 768 82 c 0,23,24
 907 82 907 82 1034.5 136.5 c 128,-1,25
 1162 191 1162 191 1254 283 c 128,-1,26
 1346 375 1346 375 1400.5 502 c 128,-1,27
 1455 629 1455 629 1455 769 c 0,28,29
 1455 908 1455 908 1400.5 1035 c 128,-1,30
 1346 1162 1346 1162 1254 1254 c 128,-1,31
 1162 1346 1162 1346 1034.5 1400.5 c 128,-1,32
 907 1455 907 1455 768 1455 c 0,33,34
 731 1455 731 1455 713 1453 c 1,35,36
 602 1328 602 1328 533 1151.5 c 128,-1,37
 464 975 464 975 464 769 c 0,17,18
EndSplineSet
EndChar

StartChar: colon
Encoding: 58 58 26
Width: 1537
GlyphClass: 2
Flags: W
LayerCount: 2
Fore
SplineSet
0 769 m 0,0,1
 0 926 0 926 61 1068.5 c 128,-1,2
 122 1211 122 1211 225 1314 c 128,-1,3
 328 1417 328 1417 470.5 1478 c 128,-1,4
 613 1539 613 1539 769 1539 c 0,5,6
 926 1539 926 1539 1068.5 1478 c 128,-1,7
 1211 1417 1211 1417 1314 1314 c 128,-1,8
 1417 1211 1417 1211 1478 1068.5 c 128,-1,9
 1539 926 1539 926 1539 769 c 0,10,11
 1539 613 1539 613 1478 470.5 c 128,-1,12
 1417 328 1417 328 1314 225 c 128,-1,13
 1211 122 1211 122 1068.5 61 c 128,-1,14
 926 0 926 0 769 0 c 0,15,16
 613 0 613 0 470.5 61 c 128,-1,17
 328 122 328 122 225 225 c 128,-1,18
 122 328 122 328 61 470.5 c 128,-1,19
 0 613 0 613 0 769 c 0,0,1
368 770 m 0,20,21
 368 291 368 291 672 89 c 1,22,23
 717 82 717 82 769 82 c 0,24,25
 909 82 909 82 1036 136.5 c 128,-1,26
 1163 191 1163 191 1255.5 283 c 128,-1,27
 1348 375 1348 375 1402.5 502.5 c 128,-1,28
 1457 630 1457 630 1457 769 c 0,29,30
 1457 955 1457 955 1364.5 1113.5 c 128,-1,31
 1272 1272 1272 1272 1113.5 1364.5 c 128,-1,32
 955 1457 955 1457 769 1457 c 0,33,34
 723 1457 723 1457 688 1453 c 1,35,36
 545 1344 545 1344 456.5 1166.5 c 128,-1,37
 368 989 368 989 368 770 c 0,20,21
EndSplineSet
EndChar

StartChar: semicolon
Encoding: 59 59 27
Width: 1537
GlyphClass: 2
Flags: W
LayerCount: 2
Fore
SplineSet
0 769 m 0,0,1
 0 926 0 926 61 1068.5 c 128,-1,2
 122 1211 122 1211 225 1314 c 128,-1,3
 328 1417 328 1417 470.5 1478 c 128,-1,4
 613 1539 613 1539 769 1539 c 0,5,6
 926 1539 926 1539 1068.5 1478 c 128,-1,7
 1211 1417 1211 1417 1314 1314 c 128,-1,8
 1417 1211 1417 1211 1478 1068.5 c 128,-1,9
 1539 926 1539 926 1539 769 c 0,10,11
 1539 613 1539 613 1478 470.5 c 128,-1,12
 1417 328 1417 328 1314 225 c 128,-1,13
 1211 122 1211 122 1068.5 61 c 128,-1,14
 926 0 926 0 769 0 c 0,15,16
 613 0 613 0 470.5 61 c 128,-1,17
 328 122 328 122 225 225 c 128,-1,18
 122 328 122 328 61 470.5 c 128,-1,19
 0 613 0 613 0 769 c 0,0,1
271 769 m 0,20,21
 271 282 271 282 610 101 c 1,22,23
 685 82 685 82 769 82 c 0,24,25
 909 82 909 82 1036 136.5 c 128,-1,26
 1163 191 1163 191 1255.5 283 c 128,-1,27
 1348 375 1348 375 1402.5 502.5 c 128,-1,28
 1457 630 1457 630 1457 769 c 0,29,30
 1457 955 1457 955 1364.5 1113.5 c 128,-1,31
 1272 1272 1272 1272 1113.5 1364.5 c 128,-1,32
 955 1457 955 1457 769 1457 c 0,33,34
 699 1457 699 1457 643 1446 c 1,35,36
 476 1350 476 1350 373.5 1173.5 c 128,-1,37
 271 997 271 997 271 769 c 0,20,21
EndSplineSet
EndChar

StartChar: less
Encoding: 60 60 28
Width: 1537
GlyphClass: 2
Flags: W
LayerCount: 2
Fore
SplineSet
0 769 m 0,0,1
 0 926 0 926 61 1068.5 c 128,-1,2
 122 1211 122 1211 225 1314 c 128,-1,3
 328 1417 328 1417 470.5 1478 c 128,-1,4
 613 1539 613 1539 769 1539 c 0,5,6
 926 1539 926 1539 1068.5 1478 c 128,-1,7
 1211 1417 1211 1417 1314 1314 c 128,-1,8
 1417 1211 1417 1211 1478 1068.5 c 128,-1,9
 1539 926 1539 926 1539 769 c 0,10,11
 1539 613 1539 613 1478 470.5 c 128,-1,12
 1417 328 1417 328 1314 225 c 128,-1,13
 1211 122 1211 122 1068.5 61 c 128,-1,14
 926 0 926 0 769 0 c 0,15,16
 613 0 613 0 470.5 61 c 128,-1,17
 328 122 328 122 225 225 c 128,-1,18
 122 328 122 328 61 470.5 c 128,-1,19
 0 613 0 613 0 769 c 0,0,1
183 769 m 0,20,21
 183 689 183 689 193 622 c 128,-1,22
 203 555 203 555 232 479.5 c 128,-1,23
 261 404 261 404 309 341 c 128,-1,24
 357 278 357 278 437 214 c 128,-1,25
 517 150 517 150 626 97 c 1,26,27
 695 82 695 82 769 82 c 0,28,29
 909 82 909 82 1036 136.5 c 128,-1,30
 1163 191 1163 191 1255.5 283 c 128,-1,31
 1348 375 1348 375 1402.5 502.5 c 128,-1,32
 1457 630 1457 630 1457 769 c 0,33,34
 1457 955 1457 955 1364.5 1113.5 c 128,-1,35
 1272 1272 1272 1272 1113.5 1364.5 c 128,-1,36
 955 1457 955 1457 769 1457 c 0,37,38
 682 1457 682 1457 611 1439 c 1,39,40
 521 1396 521 1396 451 1345.5 c 128,-1,41
 381 1295 381 1295 335.5 1240 c 128,-1,42
 290 1185 290 1185 258.5 1129.5 c 128,-1,43
 227 1074 227 1074 211.5 1010.5 c 128,-1,44
 196 947 196 947 189.5 891 c 128,-1,45
 183 835 183 835 183 769 c 0,20,21
EndSplineSet
EndChar

StartChar: equal
Encoding: 61 61 29
Width: 1537
GlyphClass: 2
Flags: W
LayerCount: 2
Fore
SplineSet
0 769 m 0,0,1
 0 926 0 926 61 1068.5 c 128,-1,2
 122 1211 122 1211 225 1314 c 128,-1,3
 328 1417 328 1417 470.5 1478 c 128,-1,4
 613 1539 613 1539 769 1539 c 0,5,6
 926 1539 926 1539 1068.5 1478 c 128,-1,7
 1211 1417 1211 1417 1314 1314 c 128,-1,8
 1417 1211 1417 1211 1478 1068.5 c 128,-1,9
 1539 926 1539 926 1539 769 c 0,10,11
 1539 613 1539 613 1478 470.5 c 128,-1,12
 1417 328 1417 328 1314 225 c 128,-1,13
 1211 122 1211 122 1068.5 61 c 128,-1,14
 926 0 926 0 769 0 c 0,15,16
 613 0 613 0 470.5 61 c 128,-1,17
 328 122 328 122 225 225 c 128,-1,18
 122 328 122 328 61 470.5 c 128,-1,19
 0 613 0 613 0 769 c 0,0,1
82 769 m 0,20,21
 82 630 82 630 136.5 502.5 c 128,-1,22
 191 375 191 375 283 283 c 128,-1,23
 375 191 375 191 502.5 136.5 c 128,-1,24
 630 82 630 82 769 82 c 0,25,26
 909 82 909 82 1036 136.5 c 128,-1,27
 1163 191 1163 191 1255.5 283 c 128,-1,28
 1348 375 1348 375 1402.5 502.5 c 128,-1,29
 1457 630 1457 630 1457 769 c 0,30,31
 1457 955 1457 955 1364.5 1113.5 c 128,-1,32
 1272 1272 1272 1272 1113.5 1364.5 c 128,-1,33
 955 1457 955 1457 769 1457 c 0,34,35
 630 1457 630 1457 502.5 1402.5 c 128,-1,36
 375 1348 375 1348 283 1255.5 c 128,-1,37
 191 1163 191 1163 136.5 1036 c 128,-1,38
 82 909 82 909 82 769 c 0,20,21
EndSplineSet
EndChar

StartChar: at
Encoding: 64 64 30
Width: 1537
GlyphClass: 2
Flags: W
LayerCount: 2
Fore
SplineSet
0 770 m 128,-1,1
 0 979 0 979 103.5 1155.5 c 128,-1,2
 207 1332 207 1332 384 1434.5 c 128,-1,3
 561 1537 561 1537 770 1537 c 128,-1,4
 979 1537 979 1537 1155.5 1434.5 c 128,-1,5
 1332 1332 1332 1332 1434.5 1155.5 c 128,-1,6
 1537 979 1537 979 1537 770 c 128,-1,7
 1537 561 1537 561 1434.5 384 c 128,-1,8
 1332 207 1332 207 1155.5 103.5 c 128,-1,9
 979 0 979 0 770 0 c 128,-1,10
 561 0 561 0 384 103.5 c 128,-1,11
 207 207 207 207 103.5 384 c 128,-1,0
 0 561 0 561 0 770 c 128,-1,1
82 770 m 0,12,13
 82 631 82 631 137 503.5 c 128,-1,14
 192 376 192 376 284 284 c 128,-1,15
 376 192 376 192 503.5 137 c 128,-1,16
 631 82 631 82 770 82 c 0,17,18
 858 82 858 82 926 101 c 1,19,20
 1011 146 1011 146 1074 208 c 128,-1,21
 1137 270 1137 270 1173.5 334.5 c 128,-1,22
 1210 399 1210 399 1232.5 477.5 c 128,-1,23
 1255 556 1255 556 1262 623.5 c 128,-1,24
 1269 691 1269 691 1269 770 c 0,25,26
 1269 865 1269 865 1248.5 957 c 128,-1,27
 1228 1049 1228 1049 1185 1139.5 c 128,-1,28
 1142 1230 1142 1230 1067.5 1310 c 128,-1,29
 993 1390 993 1390 894 1446 c 1,30,31
 853 1455 853 1455 770 1455 c 0,32,33
 631 1455 631 1455 503.5 1401 c 128,-1,34
 376 1347 376 1347 283.5 1255 c 128,-1,35
 191 1163 191 1163 136.5 1036.5 c 128,-1,36
 82 910 82 910 82 770 c 0,12,13
EndSplineSet
EndChar

StartChar: A
Encoding: 65 65 31
Width: 1537
GlyphClass: 2
Flags: W
LayerCount: 2
Fore
SplineSet
0 769 m 128,-1,1
 0 925 0 925 61 1067 c 128,-1,2
 122 1209 122 1209 225 1312 c 128,-1,3
 328 1415 328 1415 470 1476 c 128,-1,4
 612 1537 612 1537 768 1537 c 128,-1,5
 924 1537 924 1537 1066.5 1476 c 128,-1,6
 1209 1415 1209 1415 1312 1312 c 128,-1,7
 1415 1209 1415 1209 1476 1067 c 128,-1,8
 1537 925 1537 925 1537 769 c 128,-1,9
 1537 613 1537 613 1476 470.5 c 128,-1,10
 1415 328 1415 328 1312 225 c 128,-1,11
 1209 122 1209 122 1066.5 61 c 128,-1,12
 924 0 924 0 768 0 c 128,-1,13
 612 0 612 0 470 61 c 128,-1,14
 328 122 328 122 225 225 c 128,-1,15
 122 328 122 328 61 470.5 c 128,-1,0
 0 613 0 613 0 769 c 128,-1,1
82 769 m 0,16,17
 82 629 82 629 136.5 502 c 128,-1,18
 191 375 191 375 283 283 c 128,-1,19
 375 191 375 191 502 136.5 c 128,-1,20
 629 82 629 82 768 82 c 0,21,22
 805 82 805 82 850 87 c 1,23,24
 945 145 945 145 1010.5 225.5 c 128,-1,25
 1076 306 1076 306 1108 400 c 128,-1,26
 1140 494 1140 494 1152.5 581 c 128,-1,27
 1165 668 1165 668 1165 769 c 0,28,29
 1165 897 1165 897 1133.5 1017.5 c 128,-1,30
 1102 1138 1102 1138 1025 1256 c 128,-1,31
 948 1374 948 1374 833 1453 c 1,32,33
 791 1455 791 1455 768 1455 c 0,34,35
 629 1455 629 1455 502 1400.5 c 128,-1,36
 375 1346 375 1346 283 1254 c 128,-1,37
 191 1162 191 1162 136.5 1035 c 128,-1,38
 82 908 82 908 82 769 c 0,16,17
EndSplineSet
EndChar

StartChar: B
Encoding: 66 66 32
Width: 1537
GlyphClass: 2
Flags: W
LayerCount: 2
Fore
SplineSet
0 769 m 128,-1,1
 0 925 0 925 61 1067 c 128,-1,2
 122 1209 122 1209 225 1312 c 128,-1,3
 328 1415 328 1415 470 1476 c 128,-1,4
 612 1537 612 1537 768 1537 c 128,-1,5
 924 1537 924 1537 1066.5 1476 c 128,-1,6
 1209 1415 1209 1415 1312 1312 c 128,-1,7
 1415 1209 1415 1209 1476 1067 c 128,-1,8
 1537 925 1537 925 1537 769 c 128,-1,9
 1537 613 1537 613 1476 470.5 c 128,-1,10
 1415 328 1415 328 1312 225 c 128,-1,11
 1209 122 1209 122 1066.5 61 c 128,-1,12
 924 0 924 0 768 0 c 128,-1,13
 612 0 612 0 470 61 c 128,-1,14
 328 122 328 122 225 225 c 128,-1,15
 122 328 122 328 61 470.5 c 128,-1,0
 0 613 0 613 0 769 c 128,-1,1
82 769 m 0,16,17
 82 629 82 629 136.5 502 c 128,-1,18
 191 375 191 375 283 283 c 128,-1,19
 375 191 375 191 502 136.5 c 128,-1,20
 629 82 629 82 768 82 c 0,21,22
 802 82 802 82 818 83 c 1,23,24
 898 145 898 145 952 227 c 128,-1,25
 1006 309 1006 309 1032.5 402.5 c 128,-1,26
 1059 496 1059 496 1069.5 582 c 128,-1,27
 1080 668 1080 668 1080 769 c 0,28,29
 1080 965 1080 965 1014 1147.5 c 128,-1,30
 948 1330 948 1330 808 1454 c 1,31,32
 795 1455 795 1455 768 1455 c 0,33,34
 629 1455 629 1455 502 1400.5 c 128,-1,35
 375 1346 375 1346 283 1254 c 128,-1,36
 191 1162 191 1162 136.5 1035 c 128,-1,37
 82 908 82 908 82 769 c 0,16,17
EndSplineSet
EndChar

StartChar: C
Encoding: 67 67 33
Width: 1537
GlyphClass: 2
Flags: W
LayerCount: 2
Fore
SplineSet
0 769 m 128,-1,1
 0 925 0 925 61 1067 c 128,-1,2
 122 1209 122 1209 225 1312 c 128,-1,3
 328 1415 328 1415 470 1476 c 128,-1,4
 612 1537 612 1537 768 1537 c 128,-1,5
 924 1537 924 1537 1066.5 1476 c 128,-1,6
 1209 1415 1209 1415 1312 1312 c 128,-1,7
 1415 1209 1415 1209 1476 1067 c 128,-1,8
 1537 925 1537 925 1537 769 c 128,-1,9
 1537 613 1537 613 1476 470.5 c 128,-1,10
 1415 328 1415 328 1312 225 c 128,-1,11
 1209 122 1209 122 1066.5 61 c 128,-1,12
 924 0 924 0 768 0 c 128,-1,13
 612 0 612 0 470 61 c 128,-1,14
 328 122 328 122 225 225 c 128,-1,15
 122 328 122 328 61 470.5 c 128,-1,0
 0 613 0 613 0 769 c 128,-1,1
82 769 m 0,16,17
 82 629 82 629 136.5 502 c 128,-1,18
 191 375 191 375 283 283 c 128,-1,19
 375 191 375 191 502 136.5 c 128,-1,20
 629 82 629 82 768 82 c 2,21,-1
 794 82 l 1,22,23
 855 148 855 148 896.5 231.5 c 128,-1,24
 938 315 938 315 958 407.5 c 128,-1,25
 978 500 978 500 986 584.5 c 128,-1,26
 994 669 994 669 994 769 c 0,27,28
 994 962 994 962 944 1141.5 c 128,-1,29
 894 1321 894 1321 787 1455 c 1,30,-1
 768 1455 l 2,31,32
 629 1455 629 1455 502 1400.5 c 128,-1,33
 375 1346 375 1346 283 1254 c 128,-1,34
 191 1162 191 1162 136.5 1035 c 128,-1,35
 82 908 82 908 82 769 c 0,16,17
EndSplineSet
EndChar

StartChar: D
Encoding: 68 68 34
Width: 1537
GlyphClass: 2
Flags: W
LayerCount: 2
Fore
SplineSet
0 769 m 128,-1,1
 0 925 0 925 61 1067 c 128,-1,2
 122 1209 122 1209 225 1312 c 128,-1,3
 328 1415 328 1415 470 1476 c 128,-1,4
 612 1537 612 1537 768 1537 c 128,-1,5
 924 1537 924 1537 1066.5 1476 c 128,-1,6
 1209 1415 1209 1415 1312 1312 c 128,-1,7
 1415 1209 1415 1209 1476 1067 c 128,-1,8
 1537 925 1537 925 1537 769 c 128,-1,9
 1537 613 1537 613 1476 470.5 c 128,-1,10
 1415 328 1415 328 1312 225 c 128,-1,11
 1209 122 1209 122 1066.5 61 c 128,-1,12
 924 0 924 0 768 0 c 128,-1,13
 612 0 612 0 470 61 c 128,-1,14
 328 122 328 122 225 225 c 128,-1,15
 122 328 122 328 61 470.5 c 128,-1,0
 0 613 0 613 0 769 c 128,-1,1
82 769 m 0,16,17
 82 629 82 629 136.5 502 c 128,-1,18
 191 375 191 375 283 283 c 128,-1,19
 375 191 375 191 502 136.5 c 128,-1,20
 629 82 629 82 768 82 c 0,21,22
 795 82 795 82 808 83 c 1,23,24
 887 219 887 219 915.5 390 c 128,-1,25
 944 561 944 561 944 769 c 0,26,27
 944 1180 944 1180 805 1454 c 1,28,29
 794 1455 794 1455 768 1455 c 0,30,31
 629 1455 629 1455 502 1400.5 c 128,-1,32
 375 1346 375 1346 283 1254 c 128,-1,33
 191 1162 191 1162 136.5 1035 c 128,-1,34
 82 908 82 908 82 769 c 0,16,17
EndSplineSet
EndChar

StartChar: E
Encoding: 69 69 35
Width: 1537
GlyphClass: 2
Flags: W
LayerCount: 2
Fore
SplineSet
0 769 m 128,-1,1
 0 925 0 925 61 1067 c 128,-1,2
 122 1209 122 1209 225 1312 c 128,-1,3
 328 1415 328 1415 470 1476 c 128,-1,4
 612 1537 612 1537 768 1537 c 128,-1,5
 924 1537 924 1537 1066.5 1476 c 128,-1,6
 1209 1415 1209 1415 1312 1312 c 128,-1,7
 1415 1209 1415 1209 1476 1067 c 128,-1,8
 1537 925 1537 925 1537 769 c 128,-1,9
 1537 613 1537 613 1476 470.5 c 128,-1,10
 1415 328 1415 328 1312 225 c 128,-1,11
 1209 122 1209 122 1066.5 61 c 128,-1,12
 924 0 924 0 768 0 c 128,-1,13
 612 0 612 0 470 61 c 128,-1,14
 328 122 328 122 225 225 c 128,-1,15
 122 328 122 328 61 470.5 c 128,-1,0
 0 613 0 613 0 769 c 128,-1,1
82 769 m 0,16,17
 82 629 82 629 136.5 502 c 128,-1,18
 191 375 191 375 283 283 c 128,-1,19
 375 191 375 191 502 136.5 c 128,-1,20
 629 82 629 82 768 82 c 2,21,-1
 794 82 l 1,22,23
 863 337 863 337 863 769 c 0,24,25
 863 1160 863 1160 793 1455 c 1,26,-1
 768 1455 l 2,27,28
 629 1455 629 1455 502 1400.5 c 128,-1,29
 375 1346 375 1346 283 1254 c 128,-1,30
 191 1162 191 1162 136.5 1035 c 128,-1,31
 82 908 82 908 82 769 c 0,16,17
EndSplineSet
EndChar

StartChar: F
Encoding: 70 70 36
Width: 1537
GlyphClass: 2
Flags: W
LayerCount: 2
Fore
SplineSet
0 769 m 128,-1,1
 0 925 0 925 61 1067 c 128,-1,2
 122 1209 122 1209 225 1312 c 128,-1,3
 328 1415 328 1415 470 1476 c 128,-1,4
 612 1537 612 1537 768 1537 c 128,-1,5
 924 1537 924 1537 1066.5 1476 c 128,-1,6
 1209 1415 1209 1415 1312 1312 c 128,-1,7
 1415 1209 1415 1209 1476 1067 c 128,-1,8
 1537 925 1537 925 1537 769 c 128,-1,9
 1537 613 1537 613 1476 470.5 c 128,-1,10
 1415 328 1415 328 1312 225 c 128,-1,11
 1209 122 1209 122 1066.5 61 c 128,-1,12
 924 0 924 0 768 0 c 128,-1,13
 612 0 612 0 470 61 c 128,-1,14
 328 122 328 122 225 225 c 128,-1,15
 122 328 122 328 61 470.5 c 128,-1,0
 0 613 0 613 0 769 c 128,-1,1
82 769 m 0,16,17
 82 629 82 629 136.5 502 c 128,-1,18
 191 375 191 375 283 283 c 128,-1,19
 375 191 375 191 502 136.5 c 128,-1,20
 629 82 629 82 768 82 c 2,21,-1
 782 82 l 1,22,-1
 782 1455 l 1,23,-1
 768 1455 l 2,24,25
 629 1455 629 1455 502 1400.5 c 128,-1,26
 375 1346 375 1346 283 1254 c 128,-1,27
 191 1162 191 1162 136.5 1035 c 128,-1,28
 82 908 82 908 82 769 c 0,16,17
EndSplineSet
EndChar

StartChar: G
Encoding: 71 71 37
Width: 1537
GlyphClass: 2
Flags: W
LayerCount: 2
Fore
SplineSet
0 769 m 128,-1,1
 0 925 0 925 61 1067 c 128,-1,2
 122 1209 122 1209 225 1312 c 128,-1,3
 328 1415 328 1415 470 1476 c 128,-1,4
 612 1537 612 1537 768 1537 c 128,-1,5
 924 1537 924 1537 1066.5 1476 c 128,-1,6
 1209 1415 1209 1415 1312 1312 c 128,-1,7
 1415 1209 1415 1209 1476 1067 c 128,-1,8
 1537 925 1537 925 1537 769 c 128,-1,9
 1537 613 1537 613 1476 470.5 c 128,-1,10
 1415 328 1415 328 1312 225 c 128,-1,11
 1209 122 1209 122 1066.5 61 c 128,-1,12
 924 0 924 0 768 0 c 128,-1,13
 612 0 612 0 470 61 c 128,-1,14
 328 122 328 122 225 225 c 128,-1,15
 122 328 122 328 61 470.5 c 128,-1,0
 0 613 0 613 0 769 c 128,-1,1
82 769 m 0,16,17
 82 629 82 629 136.5 502 c 128,-1,18
 191 375 191 375 283 283 c 128,-1,19
 375 191 375 191 502 136.5 c 128,-1,20
 629 82 629 82 768 82 c 2,21,-1
 773 82 l 1,22,23
 713 355 713 355 713 769 c 0,24,25
 713 1116 713 1116 775 1455 c 1,26,-1
 768 1455 l 2,27,28
 629 1455 629 1455 502 1400.5 c 128,-1,29
 375 1346 375 1346 283 1254 c 128,-1,30
 191 1162 191 1162 136.5 1035 c 128,-1,31
 82 908 82 908 82 769 c 0,16,17
EndSplineSet
EndChar

StartChar: H
Encoding: 72 72 38
Width: 1537
GlyphClass: 2
Flags: W
LayerCount: 2
Fore
SplineSet
0 769 m 128,-1,1
 0 925 0 925 61 1067 c 128,-1,2
 122 1209 122 1209 225 1312 c 128,-1,3
 328 1415 328 1415 470 1476 c 128,-1,4
 612 1537 612 1537 768 1537 c 128,-1,5
 924 1537 924 1537 1066.5 1476 c 128,-1,6
 1209 1415 1209 1415 1312 1312 c 128,-1,7
 1415 1209 1415 1209 1476 1067 c 128,-1,8
 1537 925 1537 925 1537 769 c 128,-1,9
 1537 613 1537 613 1476 470.5 c 128,-1,10
 1415 328 1415 328 1312 225 c 128,-1,11
 1209 122 1209 122 1066.5 61 c 128,-1,12
 924 0 924 0 768 0 c 128,-1,13
 612 0 612 0 470 61 c 128,-1,14
 328 122 328 122 225 225 c 128,-1,15
 122 328 122 328 61 470.5 c 128,-1,0
 0 613 0 613 0 769 c 128,-1,1
82 769 m 128,-1,17
 82 630 82 630 136 503.5 c 128,-1,18
 190 377 190 377 281 285 c 128,-1,19
 372 193 372 193 497.5 138 c 128,-1,20
 623 83 623 83 762 82 c 1,21,22
 643 335 643 335 643 769 c 0,23,24
 643 1139 643 1139 766 1455 c 1,25,26
 627 1455 627 1455 500.5 1400 c 128,-1,27
 374 1345 374 1345 282.5 1253 c 128,-1,28
 191 1161 191 1161 136.5 1034.5 c 128,-1,16
 82 908 82 908 82 769 c 128,-1,17
EndSplineSet
EndChar

StartChar: I
Encoding: 73 73 39
Width: 1537
GlyphClass: 2
Flags: W
LayerCount: 2
Fore
SplineSet
0 769 m 128,-1,1
 0 925 0 925 61 1067 c 128,-1,2
 122 1209 122 1209 225 1312 c 128,-1,3
 328 1415 328 1415 470 1476 c 128,-1,4
 612 1537 612 1537 768 1537 c 128,-1,5
 924 1537 924 1537 1066.5 1476 c 128,-1,6
 1209 1415 1209 1415 1312 1312 c 128,-1,7
 1415 1209 1415 1209 1476 1067 c 128,-1,8
 1537 925 1537 925 1537 769 c 128,-1,9
 1537 613 1537 613 1476 470.5 c 128,-1,10
 1415 328 1415 328 1312 225 c 128,-1,11
 1209 122 1209 122 1066.5 61 c 128,-1,12
 924 0 924 0 768 0 c 128,-1,13
 612 0 612 0 470 61 c 128,-1,14
 328 122 328 122 225 225 c 128,-1,15
 122 328 122 328 61 470.5 c 128,-1,0
 0 613 0 613 0 769 c 128,-1,1
82 769 m 0,16,17
 82 632 82 632 134.5 506.5 c 128,-1,18
 187 381 187 381 276.5 289 c 128,-1,19
 366 197 366 197 490 141.5 c 128,-1,20
 614 86 614 86 750 82 c 1,21,22
 575 320 575 320 575 769 c 0,23,24
 575 960 575 960 622 1138 c 128,-1,25
 669 1316 669 1316 755 1455 c 1,26,27
 571 1452 571 1452 416.5 1359 c 128,-1,28
 262 1266 262 1266 172 1109.5 c 128,-1,29
 82 953 82 953 82 769 c 0,16,17
EndSplineSet
EndChar

StartChar: J
Encoding: 74 74 40
Width: 1537
GlyphClass: 2
Flags: W
LayerCount: 2
Fore
SplineSet
0 769 m 128,-1,1
 0 925 0 925 61 1067 c 128,-1,2
 122 1209 122 1209 225 1312 c 128,-1,3
 328 1415 328 1415 470 1476 c 128,-1,4
 612 1537 612 1537 768 1537 c 128,-1,5
 924 1537 924 1537 1066.5 1476 c 128,-1,6
 1209 1415 1209 1415 1312 1312 c 128,-1,7
 1415 1209 1415 1209 1476 1067 c 128,-1,8
 1537 925 1537 925 1537 769 c 128,-1,9
 1537 613 1537 613 1476 470.5 c 128,-1,10
 1415 328 1415 328 1312 225 c 128,-1,11
 1209 122 1209 122 1066.5 61 c 128,-1,12
 924 0 924 0 768 0 c 128,-1,13
 612 0 612 0 470 61 c 128,-1,14
 328 122 328 122 225 225 c 128,-1,15
 122 328 122 328 61 470.5 c 128,-1,0
 0 613 0 613 0 769 c 128,-1,1
82 769 m 0,16,17
 82 633 82 633 133.5 509 c 128,-1,18
 185 385 185 385 272 294 c 128,-1,19
 359 203 359 203 480 146 c 128,-1,20
 601 89 601 89 735 82 c 1,21,22
 608 204 608 204 556.5 376 c 128,-1,23
 505 548 505 548 505 769 c 0,24,25
 505 967 505 967 568 1147.5 c 128,-1,26
 631 1328 631 1328 743 1455 c 1,27,28
 562 1448 562 1448 410 1354.5 c 128,-1,29
 258 1261 258 1261 170 1105.5 c 128,-1,30
 82 950 82 950 82 769 c 0,16,17
EndSplineSet
EndChar

StartChar: K
Encoding: 75 75 41
Width: 1537
GlyphClass: 2
Flags: W
LayerCount: 2
Fore
SplineSet
0 769 m 128,-1,1
 0 925 0 925 61 1067 c 128,-1,2
 122 1209 122 1209 225 1312 c 128,-1,3
 328 1415 328 1415 470 1476 c 128,-1,4
 612 1537 612 1537 768 1537 c 128,-1,5
 924 1537 924 1537 1066.5 1476 c 128,-1,6
 1209 1415 1209 1415 1312 1312 c 128,-1,7
 1415 1209 1415 1209 1476 1067 c 128,-1,8
 1537 925 1537 925 1537 769 c 128,-1,9
 1537 613 1537 613 1476 470.5 c 128,-1,10
 1415 328 1415 328 1312 225 c 128,-1,11
 1209 122 1209 122 1066.5 61 c 128,-1,12
 924 0 924 0 768 0 c 128,-1,13
 612 0 612 0 470 61 c 128,-1,14
 328 122 328 122 225 225 c 128,-1,15
 122 328 122 328 61 470.5 c 128,-1,0
 0 613 0 613 0 769 c 128,-1,1
82 769 m 0,16,17
 82 639 82 639 129.5 519 c 128,-1,18
 177 399 177 399 258.5 309 c 128,-1,19
 340 219 340 219 453 159.5 c 128,-1,20
 566 100 566 100 693 86 c 1,21,22
 514 192 514 192 440.5 364 c 128,-1,23
 367 536 367 536 367 769 c 0,24,25
 367 981 367 981 457 1163.5 c 128,-1,26
 547 1346 547 1346 707 1453 c 1,27,28
 578 1442 578 1442 462 1383.5 c 128,-1,29
 346 1325 346 1325 263 1234 c 128,-1,30
 180 1143 180 1143 131 1022 c 128,-1,31
 82 901 82 901 82 769 c 0,16,17
EndSplineSet
EndChar

StartChar: L
Encoding: 76 76 42
Width: 1537
GlyphClass: 2
Flags: W
LayerCount: 2
Fore
SplineSet
0 769 m 128,-1,1
 0 925 0 925 61 1067 c 128,-1,2
 122 1209 122 1209 225 1312 c 128,-1,3
 328 1415 328 1415 470 1476 c 128,-1,4
 612 1537 612 1537 768 1537 c 128,-1,5
 924 1537 924 1537 1066.5 1476 c 128,-1,6
 1209 1415 1209 1415 1312 1312 c 128,-1,7
 1415 1209 1415 1209 1476 1067 c 128,-1,8
 1537 925 1537 925 1537 769 c 128,-1,9
 1537 613 1537 613 1476 470.5 c 128,-1,10
 1415 328 1415 328 1312 225 c 128,-1,11
 1209 122 1209 122 1066.5 61 c 128,-1,12
 924 0 924 0 768 0 c 128,-1,13
 612 0 612 0 470 61 c 128,-1,14
 328 122 328 122 225 225 c 128,-1,15
 122 328 122 328 61 470.5 c 128,-1,0
 0 613 0 613 0 769 c 128,-1,1
82 769 m 0,16,17
 82 515 82 515 246.5 323 c 128,-1,18
 411 131 411 131 658 90 c 1,19,20
 555 141 555 141 483 214 c 128,-1,21
 411 287 411 287 371.5 376 c 128,-1,22
 332 465 332 465 314.5 560 c 128,-1,23
 297 655 297 655 297 769 c 0,24,25
 297 985 297 985 399 1167.5 c 128,-1,26
 501 1350 501 1350 680 1449 c 1,27,28
 513 1428 513 1428 376.5 1333 c 128,-1,29
 240 1238 240 1238 161 1089 c 128,-1,30
 82 940 82 940 82 769 c 0,16,17
EndSplineSet
EndChar

StartChar: M
Encoding: 77 77 43
Width: 1537
GlyphClass: 2
Flags: W
LayerCount: 2
Fore
SplineSet
0 769 m 128,-1,1
 0 560 0 560 103 383 c 128,-1,2
 206 206 206 206 383 103 c 128,-1,3
 560 0 560 0 769 0 c 128,-1,4
 978 0 978 0 1154.5 103 c 128,-1,5
 1331 206 1331 206 1434 383 c 128,-1,6
 1537 560 1537 560 1537 769 c 128,-1,7
 1537 978 1537 978 1434 1154.5 c 128,-1,8
 1331 1331 1331 1331 1154.5 1434 c 128,-1,9
 978 1537 978 1537 769 1537 c 128,-1,10
 560 1537 560 1537 383 1434 c 128,-1,11
 206 1331 206 1331 103 1154.5 c 128,-1,0
 0 978 0 978 0 769 c 128,-1,1
EndSplineSet
EndChar

StartChar: P
Encoding: 80 80 44
Width: 2149
Flags: W
LayerCount: 2
Fore
SplineSet
9 891 m 0,0,1
 9 863 9 863 27 848 c 0,2,3
 46 830 46 830 72 830 c 2,4,-1
 1181 830 l 2,5,6
 1209 830 1209 830 1230 810 c 128,-1,7
 1251 790 1251 790 1251 761 c 128,-1,8
 1251 732 1251 732 1230 711 c 128,-1,9
 1209 690 1209 690 1181 690 c 0,10,11
 1152 690 1152 690 1131 712 c 0,12,13
 1111 729 1111 729 1088 729 c 0,14,15
 1062 729 1062 729 1044.5 712 c 128,-1,16
 1027 695 1027 695 1027 670 c 0,17,18
 1027 644 1027 644 1045 626 c 0,19,20
 1102 569 1102 569 1181 569 c 128,-1,21
 1260 569 1260 569 1315.5 625 c 128,-1,22
 1371 681 1371 681 1371 761 c 0,23,24
 1371 840 1371 840 1315.5 896.5 c 128,-1,25
 1260 953 1260 953 1181 953 c 2,26,-1
 72 953 l 2,27,28
 46 953 46 953 27.5 934.5 c 128,-1,29
 9 916 9 916 9 891 c 0,0,1
9 1107 m 0,30,31
 9 1080 9 1080 27 1065 c 0,32,33
 46 1048 46 1048 72 1048 c 2,34,-1
 1545 1048 l 2,35,36
 1624 1048 1624 1048 1680 1104 c 128,-1,37
 1736 1160 1736 1160 1736 1239 c 128,-1,38
 1736 1318 1736 1318 1680 1373.5 c 128,-1,39
 1624 1429 1624 1429 1545 1429 c 0,40,41
 1467 1429 1467 1429 1410 1375 c 0,42,43
 1393 1355 1393 1355 1393 1330 c 0,44,45
 1393 1304 1393 1304 1410 1287.5 c 128,-1,46
 1427 1271 1427 1271 1453 1271 c 0,47,48
 1477 1271 1477 1271 1497 1288 c 0,49,50
 1516 1307 1516 1307 1545 1307 c 0,51,52
 1573 1307 1573 1307 1594 1287.5 c 128,-1,53
 1615 1268 1615 1268 1615 1239 c 128,-1,54
 1615 1210 1615 1210 1594 1189 c 128,-1,55
 1573 1168 1573 1168 1545 1168 c 2,56,-1
 72 1168 l 2,57,58
 46 1168 46 1168 27.5 1150 c 128,-1,59
 9 1132 9 1132 9 1107 c 0,30,31
1423 315 m 0,60,61
 1423 232 1423 232 1449 168.5 c 128,-1,62
 1475 105 1475 105 1519 68 c 128,-1,63
 1563 31 1563 31 1616 13 c 128,-1,64
 1669 -5 1669 -5 1728 -5 c 0,65,66
 1810 -5 1810 -5 1878 22.5 c 128,-1,67
 1946 50 1946 50 1989.5 96.5 c 128,-1,68
 2033 143 2033 143 2065 198 c 128,-1,69
 2097 253 2097 253 2113.5 313.5 c 128,-1,70
 2130 374 2130 374 2137.5 423.5 c 128,-1,71
 2145 473 2145 473 2145 515 c 0,72,73
 2145 670 2145 670 2059.5 755 c 128,-1,74
 1974 840 1974 840 1833 840 c 0,75,76
 1754 840 1754 840 1680.5 802.5 c 128,-1,77
 1607 765 1607 765 1549.5 698.5 c 128,-1,78
 1492 632 1492 632 1457.5 532 c 128,-1,79
 1423 432 1423 432 1423 315 c 0,60,61
1642 309 m 0,80,81
 1642 333 1642 333 1646.5 370.5 c 128,-1,82
 1651 408 1651 408 1664 459.5 c 128,-1,83
 1677 511 1677 511 1696.5 554 c 128,-1,84
 1716 597 1716 597 1751.5 627.5 c 128,-1,85
 1787 658 1787 658 1831 658 c 128,-1,86
 1875 658 1875 658 1900 630 c 128,-1,87
 1925 602 1925 602 1925 546 c 0,88,89
 1925 392 1925 392 1872 284.5 c 128,-1,90
 1819 177 1819 177 1741 177 c 0,91,92
 1642 177 1642 177 1642 309 c 0,80,81
EndSplineSet
EndChar

StartChar: Q
Encoding: 81 81 45
Width: 1990
Flags: W
LayerCount: 2
Fore
SplineSet
9 891 m 0,0,1
 9 863 9 863 27 848 c 0,2,3
 46 830 46 830 72 830 c 2,4,-1
 1181 830 l 2,5,6
 1209 830 1209 830 1230 810 c 128,-1,7
 1251 790 1251 790 1251 761 c 128,-1,8
 1251 732 1251 732 1230 711 c 128,-1,9
 1209 690 1209 690 1181 690 c 0,10,11
 1152 690 1152 690 1131 712 c 0,12,13
 1111 729 1111 729 1088 729 c 0,14,15
 1062 729 1062 729 1044.5 712 c 128,-1,16
 1027 695 1027 695 1027 670 c 0,17,18
 1027 644 1027 644 1045 626 c 0,19,20
 1102 569 1102 569 1181 569 c 128,-1,21
 1260 569 1260 569 1315.5 625 c 128,-1,22
 1371 681 1371 681 1371 761 c 0,23,24
 1371 840 1371 840 1315.5 896.5 c 128,-1,25
 1260 953 1260 953 1181 953 c 2,26,-1
 72 953 l 2,27,28
 46 953 46 953 27.5 934.5 c 128,-1,29
 9 916 9 916 9 891 c 0,0,1
9 1107 m 0,30,31
 9 1080 9 1080 27 1065 c 0,32,33
 46 1048 46 1048 72 1048 c 2,34,-1
 1545 1048 l 2,35,36
 1624 1048 1624 1048 1680 1104 c 128,-1,37
 1736 1160 1736 1160 1736 1239 c 128,-1,38
 1736 1318 1736 1318 1680 1373.5 c 128,-1,39
 1624 1429 1624 1429 1545 1429 c 0,40,41
 1467 1429 1467 1429 1410 1375 c 0,42,43
 1393 1355 1393 1355 1393 1330 c 0,44,45
 1393 1304 1393 1304 1410 1287.5 c 128,-1,46
 1427 1271 1427 1271 1453 1271 c 0,47,48
 1477 1271 1477 1271 1497 1288 c 0,49,50
 1516 1307 1516 1307 1545 1307 c 0,51,52
 1573 1307 1573 1307 1594 1287.5 c 128,-1,53
 1615 1268 1615 1268 1615 1239 c 128,-1,54
 1615 1210 1615 1210 1594 1189 c 128,-1,55
 1573 1168 1573 1168 1545 1168 c 2,56,-1
 72 1168 l 2,57,58
 46 1168 46 1168 27.5 1150 c 128,-1,59
 9 1132 9 1132 9 1107 c 0,30,31
1384 0 m 1,60,-1
 1647 0 l 1,61,-1
 1823 851 l 1,62,-1
 1560 851 l 1,63,-1
 1384 0 l 1,60,-1
EndSplineSet
EndChar

StartChar: R
Encoding: 82 82 46
Width: 2165
Flags: W
LayerCount: 2
Fore
SplineSet
9 891 m 0,0,1
 9 863 9 863 27 848 c 0,2,3
 46 830 46 830 72 830 c 2,4,-1
 1181 830 l 2,5,6
 1209 830 1209 830 1230 810 c 128,-1,7
 1251 790 1251 790 1251 761 c 128,-1,8
 1251 732 1251 732 1230 711 c 128,-1,9
 1209 690 1209 690 1181 690 c 0,10,11
 1152 690 1152 690 1131 712 c 0,12,13
 1111 729 1111 729 1088 729 c 0,14,15
 1062 729 1062 729 1044.5 712 c 128,-1,16
 1027 695 1027 695 1027 670 c 0,17,18
 1027 644 1027 644 1045 626 c 0,19,20
 1102 569 1102 569 1181 569 c 128,-1,21
 1260 569 1260 569 1315.5 625 c 128,-1,22
 1371 681 1371 681 1371 761 c 0,23,24
 1371 840 1371 840 1315.5 896.5 c 128,-1,25
 1260 953 1260 953 1181 953 c 2,26,-1
 72 953 l 2,27,28
 46 953 46 953 27.5 934.5 c 128,-1,29
 9 916 9 916 9 891 c 0,0,1
9 1107 m 0,30,31
 9 1080 9 1080 27 1065 c 0,32,33
 46 1048 46 1048 72 1048 c 2,34,-1
 1545 1048 l 2,35,36
 1624 1048 1624 1048 1680 1104 c 128,-1,37
 1736 1160 1736 1160 1736 1239 c 128,-1,38
 1736 1318 1736 1318 1680 1373.5 c 128,-1,39
 1624 1429 1624 1429 1545 1429 c 0,40,41
 1467 1429 1467 1429 1410 1375 c 0,42,43
 1393 1355 1393 1355 1393 1330 c 0,44,45
 1393 1304 1393 1304 1410 1287.5 c 128,-1,46
 1427 1271 1427 1271 1453 1271 c 0,47,48
 1477 1271 1477 1271 1497 1288 c 0,49,50
 1516 1307 1516 1307 1545 1307 c 0,51,52
 1573 1307 1573 1307 1594 1287.5 c 128,-1,53
 1615 1268 1615 1268 1615 1239 c 128,-1,54
 1615 1210 1615 1210 1594 1189 c 128,-1,55
 1573 1168 1573 1168 1545 1168 c 2,56,-1
 72 1168 l 2,57,58
 46 1168 46 1168 27.5 1150 c 128,-1,59
 9 1132 9 1132 9 1107 c 0,30,31
1366 0 m 1,60,-1
 2072 0 l 1,61,-1
 2115 202 l 1,62,-1
 1723 202 l 1,63,-1
 1723 205 l 1,64,65
 1755 220 1755 220 1815 244 c 128,-1,66
 1875 268 1875 268 1916.5 285 c 128,-1,67
 1958 302 1958 302 2009 332 c 128,-1,68
 2060 362 2060 362 2091 393 c 128,-1,69
 2122 424 2122 424 2144 472.5 c 128,-1,70
 2166 521 2166 521 2166 579 c 0,71,72
 2166 668 2166 668 2120 728.5 c 128,-1,73
 2074 789 2074 789 2005 814.5 c 128,-1,74
 1936 840 1936 840 1850 840 c 0,75,76
 1695 840 1695 840 1596.5 756.5 c 128,-1,77
 1498 673 1498 673 1479 510 c 1,78,-1
 1702 510 l 1,79,80
 1702 569 1702 569 1736.5 610 c 128,-1,81
 1771 651 1771 651 1834 651 c 0,82,83
 1882 651 1882 651 1906 625.5 c 128,-1,84
 1930 600 1930 600 1930 568 c 0,85,86
 1930 549 1930 549 1926.5 533.5 c 128,-1,87
 1923 518 1923 518 1910 503.5 c 128,-1,88
 1897 489 1897 489 1887.5 480 c 128,-1,89
 1878 471 1878 471 1851 456 c 128,-1,90
 1824 441 1824 441 1808.5 433 c 128,-1,91
 1793 425 1793 425 1752 406 c 0,92,93
 1611 337 1611 337 1577 317 c 0,94,95
 1449 240 1449 240 1400 127 c 0,96,97
 1375 71 1375 71 1366 0 c 1,60,-1
EndSplineSet
EndChar

StartChar: S
Encoding: 83 83 47
Width: 2145
Flags: W
LayerCount: 2
Fore
SplineSet
9 891 m 0,0,1
 9 863 9 863 27 848 c 0,2,3
 46 830 46 830 72 830 c 2,4,-1
 1181 830 l 2,5,6
 1209 830 1209 830 1230 810 c 128,-1,7
 1251 790 1251 790 1251 761 c 128,-1,8
 1251 732 1251 732 1230 711 c 128,-1,9
 1209 690 1209 690 1181 690 c 0,10,11
 1152 690 1152 690 1131 712 c 0,12,13
 1111 729 1111 729 1088 729 c 0,14,15
 1062 729 1062 729 1044.5 712 c 128,-1,16
 1027 695 1027 695 1027 670 c 0,17,18
 1027 644 1027 644 1045 626 c 0,19,20
 1102 569 1102 569 1181 569 c 128,-1,21
 1260 569 1260 569 1315.5 625 c 128,-1,22
 1371 681 1371 681 1371 761 c 0,23,24
 1371 840 1371 840 1315.5 896.5 c 128,-1,25
 1260 953 1260 953 1181 953 c 2,26,-1
 72 953 l 2,27,28
 46 953 46 953 27.5 934.5 c 128,-1,29
 9 916 9 916 9 891 c 0,0,1
9 1107 m 0,30,31
 9 1080 9 1080 27 1065 c 0,32,33
 46 1048 46 1048 72 1048 c 2,34,-1
 1545 1048 l 2,35,36
 1624 1048 1624 1048 1680 1104 c 128,-1,37
 1736 1160 1736 1160 1736 1239 c 128,-1,38
 1736 1318 1736 1318 1680 1373.5 c 128,-1,39
 1624 1429 1624 1429 1545 1429 c 0,40,41
 1467 1429 1467 1429 1410 1375 c 0,42,43
 1393 1355 1393 1355 1393 1330 c 0,44,45
 1393 1304 1393 1304 1410 1287.5 c 128,-1,46
 1427 1271 1427 1271 1453 1271 c 0,47,48
 1477 1271 1477 1271 1497 1288 c 0,49,50
 1516 1307 1516 1307 1545 1307 c 0,51,52
 1573 1307 1573 1307 1594 1287.5 c 128,-1,53
 1615 1268 1615 1268 1615 1239 c 128,-1,54
 1615 1210 1615 1210 1594 1189 c 128,-1,55
 1573 1168 1573 1168 1545 1168 c 2,56,-1
 72 1168 l 2,57,58
 46 1168 46 1168 27.5 1150 c 128,-1,59
 9 1132 9 1132 9 1107 c 0,30,31
1405 249 m 0,60,61
 1405 206 1405 206 1422 165 c 128,-1,62
 1439 124 1439 124 1475 85.5 c 128,-1,63
 1511 47 1511 47 1577.5 23.5 c 128,-1,64
 1644 0 1644 0 1733 0 c 0,65,66
 1926 0 1926 0 2014 77 c 128,-1,67
 2102 154 2102 154 2102 285 c 0,68,69
 2102 343 2102 343 2069.5 391 c 128,-1,70
 2037 439 2037 439 1985 445 c 1,71,-1
 1985 447 l 1,72,73
 2054 459 2054 459 2099.5 509 c 128,-1,74
 2145 559 2145 559 2145 629 c 0,75,76
 2145 678 2145 678 2127 716 c 128,-1,77
 2109 754 2109 754 2080.5 778 c 128,-1,78
 2052 802 2052 802 2012 817.5 c 128,-1,79
 1972 833 1972 833 1931.5 839 c 128,-1,80
 1891 845 1891 845 1846 845 c 0,81,82
 1698 845 1698 845 1603 773.5 c 128,-1,83
 1508 702 1508 702 1486 559 c 1,84,-1
 1703 559 l 1,85,86
 1710 608 1710 608 1743.5 635.5 c 128,-1,87
 1777 663 1777 663 1827 663 c 0,88,89
 1873 663 1873 663 1899.5 643.5 c 128,-1,90
 1926 624 1926 624 1926 590 c 0,91,92
 1926 515 1926 515 1791 515 c 2,93,-1
 1741 515 l 1,94,-1
 1710 366 l 1,95,-1
 1757 366 l 2,96,97
 1866 366 1866 366 1866 291 c 0,98,99
 1866 241 1866 241 1830 214 c 128,-1,100
 1794 187 1794 187 1742 187 c 0,101,102
 1681 187 1681 187 1653 223 c 0,103,104
 1626 257 1626 257 1631 318 c 1,105,-1
 1410 318 l 1,106,107
 1405 288 1405 288 1405 249 c 0,60,61
EndSplineSet
EndChar

StartChar: T
Encoding: 84 84 48
Width: 2155
Flags: W
LayerCount: 2
Fore
SplineSet
9 891 m 0,0,1
 9 863 9 863 27 848 c 0,2,3
 46 830 46 830 72 830 c 2,4,-1
 1181 830 l 2,5,6
 1209 830 1209 830 1230 810 c 128,-1,7
 1251 790 1251 790 1251 761 c 128,-1,8
 1251 732 1251 732 1230 711 c 128,-1,9
 1209 690 1209 690 1181 690 c 0,10,11
 1152 690 1152 690 1131 712 c 0,12,13
 1111 729 1111 729 1088 729 c 0,14,15
 1062 729 1062 729 1044.5 712 c 128,-1,16
 1027 695 1027 695 1027 670 c 0,17,18
 1027 644 1027 644 1045 626 c 0,19,20
 1102 569 1102 569 1181 569 c 128,-1,21
 1260 569 1260 569 1315.5 625 c 128,-1,22
 1371 681 1371 681 1371 761 c 0,23,24
 1371 840 1371 840 1315.5 896.5 c 128,-1,25
 1260 953 1260 953 1181 953 c 2,26,-1
 72 953 l 2,27,28
 46 953 46 953 27.5 934.5 c 128,-1,29
 9 916 9 916 9 891 c 0,0,1
9 1107 m 0,30,31
 9 1080 9 1080 27 1065 c 0,32,33
 46 1048 46 1048 72 1048 c 2,34,-1
 1545 1048 l 2,35,36
 1624 1048 1624 1048 1680 1104 c 128,-1,37
 1736 1160 1736 1160 1736 1239 c 128,-1,38
 1736 1318 1736 1318 1680 1373.5 c 128,-1,39
 1624 1429 1624 1429 1545 1429 c 0,40,41
 1467 1429 1467 1429 1410 1375 c 0,42,43
 1393 1355 1393 1355 1393 1330 c 0,44,45
 1393 1304 1393 1304 1410 1287.5 c 128,-1,46
 1427 1271 1427 1271 1453 1271 c 0,47,48
 1477 1271 1477 1271 1497 1288 c 0,49,50
 1516 1307 1516 1307 1545 1307 c 0,51,52
 1573 1307 1573 1307 1594 1287.5 c 128,-1,53
 1615 1268 1615 1268 1615 1239 c 128,-1,54
 1615 1210 1615 1210 1594 1189 c 128,-1,55
 1573 1168 1573 1168 1545 1168 c 2,56,-1
 72 1168 l 2,57,58
 46 1168 46 1168 27.5 1150 c 128,-1,59
 9 1132 9 1132 9 1107 c 0,30,31
1395 160 m 1,60,-1
 1776 160 l 1,61,-1
 1742 -5 l 1,62,-1
 1977 -5 l 1,63,-1
 2015 160 l 1,64,-1
 2123 160 l 1,65,-1
 2161 363 l 1,66,-1
 2054 363 l 1,67,-1
 2150 826 l 1,68,-1
 1913 826 l 1,69,-1
 1441 382 l 1,70,-1
 1395 160 l 1,60,-1
1635 363 m 1,71,-1
 1874 599 l 1,72,-1
 1877 599 l 1,73,-1
 1825 363 l 1,74,-1
 1635 363 l 1,71,-1
EndSplineSet
EndChar

StartChar: U
Encoding: 85 85 49
Width: 2158
Flags: W
LayerCount: 2
Fore
SplineSet
9 891 m 0,0,1
 9 863 9 863 27 848 c 0,2,3
 46 830 46 830 72 830 c 2,4,-1
 1181 830 l 2,5,6
 1209 830 1209 830 1230 810 c 128,-1,7
 1251 790 1251 790 1251 761 c 128,-1,8
 1251 732 1251 732 1230 711 c 128,-1,9
 1209 690 1209 690 1181 690 c 0,10,11
 1152 690 1152 690 1131 712 c 0,12,13
 1111 729 1111 729 1088 729 c 0,14,15
 1062 729 1062 729 1044.5 712 c 128,-1,16
 1027 695 1027 695 1027 670 c 0,17,18
 1027 644 1027 644 1045 626 c 0,19,20
 1102 569 1102 569 1181 569 c 128,-1,21
 1260 569 1260 569 1315.5 625 c 128,-1,22
 1371 681 1371 681 1371 761 c 0,23,24
 1371 840 1371 840 1315.5 896.5 c 128,-1,25
 1260 953 1260 953 1181 953 c 2,26,-1
 72 953 l 2,27,28
 46 953 46 953 27.5 934.5 c 128,-1,29
 9 916 9 916 9 891 c 0,0,1
9 1107 m 0,30,31
 9 1080 9 1080 27 1065 c 0,32,33
 46 1048 46 1048 72 1048 c 2,34,-1
 1545 1048 l 2,35,36
 1624 1048 1624 1048 1680 1104 c 128,-1,37
 1736 1160 1736 1160 1736 1239 c 128,-1,38
 1736 1318 1736 1318 1680 1373.5 c 128,-1,39
 1624 1429 1624 1429 1545 1429 c 0,40,41
 1467 1429 1467 1429 1410 1375 c 0,42,43
 1393 1355 1393 1355 1393 1330 c 0,44,45
 1393 1304 1393 1304 1410 1287.5 c 128,-1,46
 1427 1271 1427 1271 1453 1271 c 0,47,48
 1477 1271 1477 1271 1497 1288 c 0,49,50
 1516 1307 1516 1307 1545 1307 c 0,51,52
 1573 1307 1573 1307 1594 1287.5 c 128,-1,53
 1615 1268 1615 1268 1615 1239 c 128,-1,54
 1615 1210 1615 1210 1594 1189 c 128,-1,55
 1573 1168 1573 1168 1545 1168 c 2,56,-1
 72 1168 l 2,57,58
 46 1168 46 1168 27.5 1150 c 128,-1,59
 9 1132 9 1132 9 1107 c 0,30,31
1403 264 m 1,60,61
 1399 213 1399 213 1415.5 166.5 c 128,-1,62
 1432 120 1432 120 1468.5 80.5 c 128,-1,63
 1505 41 1505 41 1572.5 17.5 c 128,-1,64
 1640 -6 1640 -6 1731 -6 c 0,65,66
 1823 -6 1823 -6 1894.5 18.5 c 128,-1,67
 1966 43 1966 43 2006 79 c 128,-1,68
 2046 115 2046 115 2071.5 163 c 128,-1,69
 2097 211 2097 211 2105.5 250.5 c 128,-1,70
 2114 290 2114 290 2114 329 c 0,71,72
 2114 436 2114 436 2045.5 501 c 128,-1,73
 1977 566 1977 566 1869 566 c 0,74,75
 1758 566 1758 566 1714 520 c 1,76,-1
 1712 520 l 1,77,-1
 1749 629 l 1,78,-1
 2117 629 l 1,79,-1
 2159 830 l 1,80,-1
 1600 830 l 1,81,-1
 1445 354 l 1,82,-1
 1658 354 l 1,83,84
 1684 408 1684 408 1776 408 c 0,85,86
 1827 408 1827 408 1858 381.5 c 128,-1,87
 1889 355 1889 355 1889 302 c 0,88,89
 1889 248 1889 248 1852 215 c 128,-1,90
 1815 182 1815 182 1745 182 c 0,91,92
 1695 182 1695 182 1667 200 c 0,93,94
 1633 218 1633 218 1629 264 c 1,95,-1
 1403 264 l 1,60,61
EndSplineSet
EndChar

StartChar: V
Encoding: 86 86 50
Width: 2168
Flags: W
LayerCount: 2
Fore
SplineSet
9 891 m 0,0,1
 9 863 9 863 27 848 c 0,2,3
 46 830 46 830 72 830 c 2,4,-1
 1181 830 l 2,5,6
 1209 830 1209 830 1230 810 c 128,-1,7
 1251 790 1251 790 1251 761 c 128,-1,8
 1251 732 1251 732 1230 711 c 128,-1,9
 1209 690 1209 690 1181 690 c 0,10,11
 1152 690 1152 690 1131 712 c 0,12,13
 1111 729 1111 729 1088 729 c 0,14,15
 1062 729 1062 729 1044.5 712 c 128,-1,16
 1027 695 1027 695 1027 670 c 0,17,18
 1027 644 1027 644 1045 626 c 0,19,20
 1102 569 1102 569 1181 569 c 128,-1,21
 1260 569 1260 569 1315.5 625 c 128,-1,22
 1371 681 1371 681 1371 761 c 0,23,24
 1371 840 1371 840 1315.5 896.5 c 128,-1,25
 1260 953 1260 953 1181 953 c 2,26,-1
 72 953 l 2,27,28
 46 953 46 953 27.5 934.5 c 128,-1,29
 9 916 9 916 9 891 c 0,0,1
9 1107 m 0,30,31
 9 1080 9 1080 27 1065 c 0,32,33
 46 1048 46 1048 72 1048 c 2,34,-1
 1545 1048 l 2,35,36
 1624 1048 1624 1048 1680 1104 c 128,-1,37
 1736 1160 1736 1160 1736 1239 c 128,-1,38
 1736 1318 1736 1318 1680 1373.5 c 128,-1,39
 1624 1429 1624 1429 1545 1429 c 0,40,41
 1467 1429 1467 1429 1410 1375 c 0,42,43
 1393 1355 1393 1355 1393 1330 c 0,44,45
 1393 1304 1393 1304 1410 1287.5 c 128,-1,46
 1427 1271 1427 1271 1453 1271 c 0,47,48
 1477 1271 1477 1271 1497 1288 c 0,49,50
 1516 1307 1516 1307 1545 1307 c 0,51,52
 1573 1307 1573 1307 1594 1287.5 c 128,-1,53
 1615 1268 1615 1268 1615 1239 c 128,-1,54
 1615 1210 1615 1210 1594 1189 c 128,-1,55
 1573 1168 1573 1168 1545 1168 c 2,56,-1
 72 1168 l 2,57,58
 46 1168 46 1168 27.5 1150 c 128,-1,59
 9 1132 9 1132 9 1107 c 0,30,31
1439 334 m 0,60,61
 1439 181 1439 181 1519 88 c 128,-1,62
 1599 -5 1599 -5 1763 -5 c 0,63,64
 1915 -5 1915 -5 2013.5 87.5 c 128,-1,65
 2112 180 2112 180 2112 331 c 0,66,67
 2112 434 2112 434 2041 498.5 c 128,-1,68
 1970 563 1970 563 1865 563 c 0,69,70
 1748 563 1748 563 1682 483 c 1,71,-1
 1680 483 l 1,72,73
 1733 669 1733 669 1856 669 c 0,74,75
 1896 669 1896 669 1918 654 c 0,76,77
 1938 640 1938 640 1943 610 c 1,78,-1
 2168 610 l 1,79,80
 2166 660 2166 660 2147.5 700 c 128,-1,81
 2129 740 2129 740 2100.5 766 c 128,-1,82
 2072 792 2072 792 2033.5 809 c 128,-1,83
 1995 826 1995 826 1954 833 c 128,-1,84
 1913 840 1913 840 1869 840 c 0,85,86
 1769 840 1769 840 1690 801.5 c 128,-1,87
 1611 763 1611 763 1565.5 706.5 c 128,-1,88
 1520 650 1520 650 1490 578 c 128,-1,89
 1460 506 1460 506 1449.5 446.5 c 128,-1,90
 1439 387 1439 387 1439 334 c 0,60,61
1658 286 m 0,91,92
 1658 345 1658 345 1697 375.5 c 128,-1,93
 1736 406 1736 406 1785 406 c 0,94,95
 1815 406 1815 406 1836.5 397 c 128,-1,96
 1858 388 1858 388 1868.5 376.5 c 128,-1,97
 1879 365 1879 365 1885 348 c 128,-1,98
 1891 331 1891 331 1892 321.5 c 128,-1,99
 1893 312 1893 312 1893 301 c 0,100,101
 1893 251 1893 251 1859 217 c 128,-1,102
 1825 183 1825 183 1768 183 c 0,103,104
 1719 183 1719 183 1688.5 211.5 c 128,-1,105
 1658 240 1658 240 1658 286 c 0,91,92
EndSplineSet
EndChar

StartChar: W
Encoding: 87 87 51
Width: 2187
Flags: W
LayerCount: 2
Fore
SplineSet
9 891 m 0,0,1
 9 863 9 863 27 848 c 0,2,3
 46 830 46 830 72 830 c 2,4,-1
 1181 830 l 2,5,6
 1209 830 1209 830 1230 810 c 128,-1,7
 1251 790 1251 790 1251 761 c 128,-1,8
 1251 732 1251 732 1230 711 c 128,-1,9
 1209 690 1209 690 1181 690 c 0,10,11
 1152 690 1152 690 1131 712 c 0,12,13
 1111 729 1111 729 1088 729 c 0,14,15
 1062 729 1062 729 1044.5 712 c 128,-1,16
 1027 695 1027 695 1027 670 c 0,17,18
 1027 644 1027 644 1045 626 c 0,19,20
 1102 569 1102 569 1181 569 c 128,-1,21
 1260 569 1260 569 1315.5 625 c 128,-1,22
 1371 681 1371 681 1371 761 c 0,23,24
 1371 840 1371 840 1315.5 896.5 c 128,-1,25
 1260 953 1260 953 1181 953 c 2,26,-1
 72 953 l 2,27,28
 46 953 46 953 27.5 934.5 c 128,-1,29
 9 916 9 916 9 891 c 0,0,1
9 1107 m 0,30,31
 9 1080 9 1080 27 1065 c 0,32,33
 46 1048 46 1048 72 1048 c 2,34,-1
 1545 1048 l 2,35,36
 1624 1048 1624 1048 1680 1104 c 128,-1,37
 1736 1160 1736 1160 1736 1239 c 128,-1,38
 1736 1318 1736 1318 1680 1373.5 c 128,-1,39
 1624 1429 1624 1429 1545 1429 c 0,40,41
 1467 1429 1467 1429 1410 1375 c 0,42,43
 1393 1355 1393 1355 1393 1330 c 0,44,45
 1393 1304 1393 1304 1410 1287.5 c 128,-1,46
 1427 1271 1427 1271 1453 1271 c 0,47,48
 1477 1271 1477 1271 1497 1288 c 0,49,50
 1516 1307 1516 1307 1545 1307 c 0,51,52
 1573 1307 1573 1307 1594 1287.5 c 128,-1,53
 1615 1268 1615 1268 1615 1239 c 128,-1,54
 1615 1210 1615 1210 1594 1189 c 128,-1,55
 1573 1168 1573 1168 1545 1168 c 2,56,-1
 72 1168 l 2,57,58
 46 1168 46 1168 27.5 1150 c 128,-1,59
 9 1132 9 1132 9 1107 c 0,30,31
1504 -5 m 1,60,-1
 1767 -5 l 1,61,62
 1809 202 1809 202 1915.5 365.5 c 128,-1,63
 2022 529 2022 529 2146 626 c 1,64,-1
 2187 825 l 1,65,-1
 1551 825 l 1,66,-1
 1507 623 l 1,67,-1
 1879 623 l 1,68,69
 1563 305 1563 305 1504 -5 c 1,60,-1
EndSplineSet
EndChar

StartChar: X
Encoding: 88 88 52
Width: 2153
Flags: W
LayerCount: 2
Fore
SplineSet
9 891 m 0,0,1
 9 863 9 863 27 848 c 0,2,3
 46 830 46 830 72 830 c 2,4,-1
 1181 830 l 2,5,6
 1209 830 1209 830 1230 810 c 128,-1,7
 1251 790 1251 790 1251 761 c 128,-1,8
 1251 732 1251 732 1230 711 c 128,-1,9
 1209 690 1209 690 1181 690 c 0,10,11
 1152 690 1152 690 1131 712 c 0,12,13
 1111 729 1111 729 1088 729 c 0,14,15
 1062 729 1062 729 1044.5 712 c 128,-1,16
 1027 695 1027 695 1027 670 c 0,17,18
 1027 644 1027 644 1045 626 c 0,19,20
 1102 569 1102 569 1181 569 c 128,-1,21
 1260 569 1260 569 1315.5 625 c 128,-1,22
 1371 681 1371 681 1371 761 c 0,23,24
 1371 840 1371 840 1315.5 896.5 c 128,-1,25
 1260 953 1260 953 1181 953 c 2,26,-1
 72 953 l 2,27,28
 46 953 46 953 27.5 934.5 c 128,-1,29
 9 916 9 916 9 891 c 0,0,1
9 1107 m 0,30,31
 9 1080 9 1080 27 1065 c 0,32,33
 46 1048 46 1048 72 1048 c 2,34,-1
 1545 1048 l 2,35,36
 1624 1048 1624 1048 1680 1104 c 128,-1,37
 1736 1160 1736 1160 1736 1239 c 128,-1,38
 1736 1318 1736 1318 1680 1373.5 c 128,-1,39
 1624 1429 1624 1429 1545 1429 c 0,40,41
 1467 1429 1467 1429 1410 1375 c 0,42,43
 1393 1355 1393 1355 1393 1330 c 0,44,45
 1393 1304 1393 1304 1410 1287.5 c 128,-1,46
 1427 1271 1427 1271 1453 1271 c 0,47,48
 1477 1271 1477 1271 1497 1288 c 0,49,50
 1516 1307 1516 1307 1545 1307 c 0,51,52
 1573 1307 1573 1307 1594 1287.5 c 128,-1,53
 1615 1268 1615 1268 1615 1239 c 128,-1,54
 1615 1210 1615 1210 1594 1189 c 128,-1,55
 1573 1168 1573 1168 1545 1168 c 2,56,-1
 72 1168 l 2,57,58
 46 1168 46 1168 27.5 1150 c 128,-1,59
 9 1132 9 1132 9 1107 c 0,30,31
1395 233 m 0,60,61
 1395 116 1395 116 1486.5 55.5 c 128,-1,62
 1578 -5 1578 -5 1733 -5 c 0,63,64
 1828 -5 1828 -5 1901 14 c 128,-1,65
 1974 33 1974 33 2015 61 c 128,-1,66
 2056 89 2056 89 2081.5 127.5 c 128,-1,67
 2107 166 2107 166 2115 198 c 128,-1,68
 2123 230 2123 230 2123 263 c 0,69,70
 2123 329 2123 329 2085 376.5 c 128,-1,71
 2047 424 2047 424 1985 437 c 1,72,-1
 1987 440 l 1,73,-1
 1987 439 l 1,74,75
 2059 449 2059 449 2106 502.5 c 128,-1,76
 2153 556 2153 556 2153 629 c 0,77,78
 2153 690 2153 690 2125 733.5 c 128,-1,79
 2097 777 2097 777 2049 799 c 128,-1,80
 2001 821 2001 821 1951 830.5 c 128,-1,81
 1901 840 1901 840 1843 840 c 0,82,83
 1767 840 1767 840 1706 825 c 128,-1,84
 1645 810 1645 810 1607 785.5 c 128,-1,85
 1569 761 1569 761 1544 728.5 c 128,-1,86
 1519 696 1519 696 1509 664 c 128,-1,87
 1499 632 1499 632 1499 598 c 0,88,89
 1499 543 1499 543 1528 502 c 128,-1,90
 1557 461 1557 461 1608 445 c 1,91,-1
 1608 442 l 1,92,93
 1518 432 1518 432 1456.5 376.5 c 128,-1,94
 1395 321 1395 321 1395 233 c 0,60,61
1621 257 m 0,95,96
 1621 313 1621 313 1666 339 c 128,-1,97
 1711 365 1711 365 1774 365 c 0,98,99
 1839 365 1839 365 1868.5 335.5 c 128,-1,100
 1898 306 1898 306 1898 272 c 2,101,-1
 1898 258 l 2,102,103
 1898 213 1898 213 1857.5 190 c 128,-1,104
 1817 167 1817 167 1754 167 c 1,105,-1
 1757 168 l 1,106,107
 1735 168 1735 168 1714 171 c 128,-1,108
 1693 174 1693 174 1670.5 183 c 128,-1,109
 1648 192 1648 192 1634.5 211 c 128,-1,110
 1621 230 1621 230 1621 257 c 0,95,96
1702 585 m 0,111,112
 1702 636 1702 636 1741.5 659 c 128,-1,113
 1781 682 1781 682 1837 682 c 0,114,115
 1885 682 1885 682 1918.5 660.5 c 128,-1,116
 1952 639 1952 639 1952 593 c 0,117,118
 1952 581 1952 581 1947 568 c 128,-1,119
 1942 555 1942 555 1929 539.5 c 128,-1,120
 1916 524 1916 524 1887 514 c 128,-1,121
 1858 504 1858 504 1817 504 c 0,122,123
 1753 504 1753 504 1727.5 528.5 c 128,-1,124
 1702 553 1702 553 1702 585 c 0,111,112
EndSplineSet
EndChar

StartChar: Y
Encoding: 89 89 53
Width: 2133
Flags: W
LayerCount: 2
Fore
SplineSet
9 891 m 0,0,1
 9 863 9 863 27 848 c 0,2,3
 46 830 46 830 72 830 c 2,4,-1
 1181 830 l 2,5,6
 1209 830 1209 830 1230 810 c 128,-1,7
 1251 790 1251 790 1251 761 c 128,-1,8
 1251 732 1251 732 1230 711 c 128,-1,9
 1209 690 1209 690 1181 690 c 0,10,11
 1152 690 1152 690 1131 712 c 0,12,13
 1111 729 1111 729 1088 729 c 0,14,15
 1062 729 1062 729 1044.5 712 c 128,-1,16
 1027 695 1027 695 1027 670 c 0,17,18
 1027 644 1027 644 1045 626 c 0,19,20
 1102 569 1102 569 1181 569 c 128,-1,21
 1260 569 1260 569 1315.5 625 c 128,-1,22
 1371 681 1371 681 1371 761 c 0,23,24
 1371 840 1371 840 1315.5 896.5 c 128,-1,25
 1260 953 1260 953 1181 953 c 2,26,-1
 72 953 l 2,27,28
 46 953 46 953 27.5 934.5 c 128,-1,29
 9 916 9 916 9 891 c 0,0,1
9 1107 m 0,30,31
 9 1080 9 1080 27 1065 c 0,32,33
 46 1048 46 1048 72 1048 c 2,34,-1
 1545 1048 l 2,35,36
 1624 1048 1624 1048 1680 1104 c 128,-1,37
 1736 1160 1736 1160 1736 1239 c 128,-1,38
 1736 1318 1736 1318 1680 1373.5 c 128,-1,39
 1624 1429 1624 1429 1545 1429 c 0,40,41
 1467 1429 1467 1429 1410 1375 c 0,42,43
 1393 1355 1393 1355 1393 1330 c 0,44,45
 1393 1304 1393 1304 1410 1287.5 c 128,-1,46
 1427 1271 1427 1271 1453 1271 c 0,47,48
 1477 1271 1477 1271 1497 1288 c 0,49,50
 1516 1307 1516 1307 1545 1307 c 0,51,52
 1573 1307 1573 1307 1594 1287.5 c 128,-1,53
 1615 1268 1615 1268 1615 1239 c 128,-1,54
 1615 1210 1615 1210 1594 1189 c 128,-1,55
 1573 1168 1573 1168 1545 1168 c 2,56,-1
 72 1168 l 2,57,58
 46 1168 46 1168 27.5 1150 c 128,-1,59
 9 1132 9 1132 9 1107 c 0,30,31
1406 223 m 1,60,61
 1409 160 1409 160 1436 114 c 128,-1,62
 1463 68 1463 68 1507.5 43 c 128,-1,63
 1552 18 1552 18 1603 6.5 c 128,-1,64
 1654 -5 1654 -5 1714 -5 c 0,65,66
 1805 -5 1805 -5 1879.5 29 c 128,-1,67
 1954 63 1954 63 2000 115.5 c 128,-1,68
 2046 168 2046 168 2077.5 236 c 128,-1,69
 2109 304 2109 304 2121.5 367.5 c 128,-1,70
 2134 431 2134 431 2134 490 c 0,71,72
 2134 659 2134 659 2047.5 749.5 c 128,-1,73
 1961 840 1961 840 1816 840 c 0,74,75
 1667 840 1667 840 1564 749 c 128,-1,76
 1461 658 1461 658 1461 510 c 0,77,78
 1461 404 1461 404 1528.5 337 c 128,-1,79
 1596 270 1596 270 1702 270 c 0,80,81
 1759 270 1759 270 1813.5 293 c 128,-1,82
 1868 316 1868 316 1890 351 c 1,83,-1
 1893 351 l 1,84,85
 1874 275 1874 275 1831 221 c 128,-1,86
 1788 167 1788 167 1718 167 c 0,87,88
 1672 167 1672 167 1655 178 c 0,89,90
 1635 195 1635 195 1629 223 c 1,91,-1
 1406 223 l 1,60,61
1680 530 m 0,92,93
 1680 580 1680 580 1711 616.5 c 128,-1,94
 1742 653 1742 653 1803 653 c 0,95,96
 1857 653 1857 653 1885.5 625.5 c 128,-1,97
 1914 598 1914 598 1914 544 c 0,98,99
 1914 529 1914 529 1908 511 c 128,-1,100
 1902 493 1902 493 1889 473 c 128,-1,101
 1876 453 1876 453 1850 440 c 128,-1,102
 1824 427 1824 427 1790 427 c 128,-1,103
 1756 427 1756 427 1732.5 439 c 128,-1,104
 1709 451 1709 451 1698.5 469.5 c 128,-1,105
 1688 488 1688 488 1684 503 c 128,-1,106
 1680 518 1680 518 1680 530 c 0,92,93
EndSplineSet
EndChar

StartChar: Z
Encoding: 90 90 54
Width: 2545
Flags: W
LayerCount: 2
Fore
SplineSet
9 891 m 0,0,1
 9 863 9 863 27 848 c 0,2,3
 46 830 46 830 72 830 c 2,4,-1
 1181 830 l 2,5,6
 1209 830 1209 830 1230 810 c 128,-1,7
 1251 790 1251 790 1251 761 c 128,-1,8
 1251 732 1251 732 1230 711 c 128,-1,9
 1209 690 1209 690 1181 690 c 0,10,11
 1152 690 1152 690 1131 712 c 0,12,13
 1111 729 1111 729 1088 729 c 0,14,15
 1062 729 1062 729 1044.5 712 c 128,-1,16
 1027 695 1027 695 1027 670 c 0,17,18
 1027 644 1027 644 1045 626 c 0,19,20
 1102 569 1102 569 1181 569 c 128,-1,21
 1260 569 1260 569 1315.5 625 c 128,-1,22
 1371 681 1371 681 1371 761 c 0,23,24
 1371 840 1371 840 1315.5 896.5 c 128,-1,25
 1260 953 1260 953 1181 953 c 2,26,-1
 72 953 l 2,27,28
 46 953 46 953 27.5 934.5 c 128,-1,29
 9 916 9 916 9 891 c 0,0,1
9 1107 m 0,30,31
 9 1080 9 1080 27 1065 c 0,32,33
 46 1048 46 1048 72 1048 c 2,34,-1
 1545 1048 l 2,35,36
 1624 1048 1624 1048 1680 1104 c 128,-1,37
 1736 1160 1736 1160 1736 1239 c 128,-1,38
 1736 1318 1736 1318 1680 1373.5 c 128,-1,39
 1624 1429 1624 1429 1545 1429 c 0,40,41
 1467 1429 1467 1429 1410 1375 c 0,42,43
 1393 1355 1393 1355 1393 1330 c 0,44,45
 1393 1304 1393 1304 1410 1287.5 c 128,-1,46
 1427 1271 1427 1271 1453 1271 c 0,47,48
 1477 1271 1477 1271 1497 1288 c 0,49,50
 1516 1307 1516 1307 1545 1307 c 0,51,52
 1573 1307 1573 1307 1594 1287.5 c 128,-1,53
 1615 1268 1615 1268 1615 1239 c 128,-1,54
 1615 1210 1615 1210 1594 1189 c 128,-1,55
 1573 1168 1573 1168 1545 1168 c 2,56,-1
 72 1168 l 2,57,58
 46 1168 46 1168 27.5 1150 c 128,-1,59
 9 1132 9 1132 9 1107 c 0,30,31
1376 6 m 1,60,-1
 1638 6 l 1,61,-1
 1813 853 l 1,62,-1
 1552 853 l 1,63,-1
 1376 6 l 1,60,-1
1823 317 m 0,64,65
 1823 234 1823 234 1849 170 c 128,-1,66
 1875 106 1875 106 1919 69 c 128,-1,67
 1963 32 1963 32 2015.5 13.5 c 128,-1,68
 2068 -5 2068 -5 2127 -5 c 0,69,70
 2225 -5 2225 -5 2302 35 c 128,-1,71
 2379 75 2379 75 2423 134 c 128,-1,72
 2467 193 2467 193 2496 267.5 c 128,-1,73
 2525 342 2525 342 2535 402.5 c 128,-1,74
 2545 463 2545 463 2545 515 c 0,75,76
 2545 670 2545 670 2460 755 c 128,-1,77
 2375 840 2375 840 2233 840 c 0,78,79
 2068 840 2068 840 1945.5 694 c 128,-1,80
 1823 548 1823 548 1823 317 c 0,64,65
2042 307 m 0,81,82
 2042 332 2042 332 2046.5 369.5 c 128,-1,83
 2051 407 2051 407 2064 459 c 128,-1,84
 2077 511 2077 511 2096.5 554.5 c 128,-1,85
 2116 598 2116 598 2151.5 628.5 c 128,-1,86
 2187 659 2187 659 2231 659 c 0,87,88
 2274 659 2274 659 2300 630 c 128,-1,89
 2326 601 2326 601 2326 546 c 0,90,91
 2326 392 2326 392 2272.5 284.5 c 128,-1,92
 2219 177 2219 177 2141 177 c 0,93,94
 2042 177 2042 177 2042 307 c 0,81,82
EndSplineSet
EndChar

StartChar: bracketleft
Encoding: 91 91 55
Width: 2219
Flags: W
LayerCount: 2
Fore
SplineSet
9 891 m 0,0,1
 9 863 9 863 27 848 c 0,2,3
 46 830 46 830 72 830 c 2,4,-1
 1181 830 l 2,5,6
 1209 830 1209 830 1230 810 c 128,-1,7
 1251 790 1251 790 1251 761 c 128,-1,8
 1251 732 1251 732 1230 711 c 128,-1,9
 1209 690 1209 690 1181 690 c 0,10,11
 1152 690 1152 690 1131 712 c 0,12,13
 1111 729 1111 729 1088 729 c 0,14,15
 1062 729 1062 729 1044.5 712 c 128,-1,16
 1027 695 1027 695 1027 670 c 0,17,18
 1027 644 1027 644 1045 626 c 0,19,20
 1102 569 1102 569 1181 569 c 128,-1,21
 1260 569 1260 569 1315.5 625 c 128,-1,22
 1371 681 1371 681 1371 761 c 0,23,24
 1371 840 1371 840 1315.5 896.5 c 128,-1,25
 1260 953 1260 953 1181 953 c 2,26,-1
 72 953 l 2,27,28
 46 953 46 953 27.5 934.5 c 128,-1,29
 9 916 9 916 9 891 c 0,0,1
9 1107 m 0,30,31
 9 1080 9 1080 27 1065 c 0,32,33
 46 1048 46 1048 72 1048 c 2,34,-1
 1545 1048 l 2,35,36
 1624 1048 1624 1048 1680 1104 c 128,-1,37
 1736 1160 1736 1160 1736 1239 c 128,-1,38
 1736 1318 1736 1318 1680 1373.5 c 128,-1,39
 1624 1429 1624 1429 1545 1429 c 0,40,41
 1467 1429 1467 1429 1410 1375 c 0,42,43
 1393 1355 1393 1355 1393 1330 c 0,44,45
 1393 1304 1393 1304 1410 1287.5 c 128,-1,46
 1427 1271 1427 1271 1453 1271 c 0,47,48
 1477 1271 1477 1271 1497 1288 c 0,49,50
 1516 1307 1516 1307 1545 1307 c 0,51,52
 1573 1307 1573 1307 1594 1287.5 c 128,-1,53
 1615 1268 1615 1268 1615 1239 c 128,-1,54
 1615 1210 1615 1210 1594 1189 c 128,-1,55
 1573 1168 1573 1168 1545 1168 c 2,56,-1
 72 1168 l 2,57,58
 46 1168 46 1168 27.5 1150 c 128,-1,59
 9 1132 9 1132 9 1107 c 0,30,31
1384 -5 m 1,60,-1
 1647 -5 l 1,61,-1
 1823 847 l 1,62,-1
 1560 847 l 1,63,-1
 1384 -5 l 1,60,-1
1781 -5 m 1,64,-1
 2043 -5 l 1,65,-1
 2219 847 l 1,66,-1
 1958 847 l 1,67,-1
 1781 -5 l 1,64,-1
EndSplineSet
EndChar

StartChar: backslash
Encoding: 92 92 56
Width: 2563
Flags: W
LayerCount: 2
Fore
SplineSet
9 891 m 0,0,1
 9 863 9 863 27 848 c 0,2,3
 46 830 46 830 72 830 c 2,4,-1
 1181 830 l 2,5,6
 1209 830 1209 830 1230 810 c 128,-1,7
 1251 790 1251 790 1251 761 c 128,-1,8
 1251 732 1251 732 1230 711 c 128,-1,9
 1209 690 1209 690 1181 690 c 0,10,11
 1152 690 1152 690 1131 712 c 0,12,13
 1111 729 1111 729 1088 729 c 0,14,15
 1062 729 1062 729 1044.5 712 c 128,-1,16
 1027 695 1027 695 1027 670 c 0,17,18
 1027 644 1027 644 1045 626 c 0,19,20
 1102 569 1102 569 1181 569 c 128,-1,21
 1260 569 1260 569 1315.5 625 c 128,-1,22
 1371 681 1371 681 1371 761 c 0,23,24
 1371 840 1371 840 1315.5 896.5 c 128,-1,25
 1260 953 1260 953 1181 953 c 2,26,-1
 72 953 l 2,27,28
 46 953 46 953 27.5 934.5 c 128,-1,29
 9 916 9 916 9 891 c 0,0,1
9 1107 m 0,30,31
 9 1080 9 1080 27 1065 c 0,32,33
 46 1048 46 1048 72 1048 c 2,34,-1
 1545 1048 l 2,35,36
 1624 1048 1624 1048 1680 1104 c 128,-1,37
 1736 1160 1736 1160 1736 1239 c 128,-1,38
 1736 1318 1736 1318 1680 1373.5 c 128,-1,39
 1624 1429 1624 1429 1545 1429 c 0,40,41
 1467 1429 1467 1429 1410 1375 c 0,42,43
 1393 1355 1393 1355 1393 1330 c 0,44,45
 1393 1304 1393 1304 1410 1287.5 c 128,-1,46
 1427 1271 1427 1271 1453 1271 c 0,47,48
 1477 1271 1477 1271 1497 1288 c 0,49,50
 1516 1307 1516 1307 1545 1307 c 0,51,52
 1573 1307 1573 1307 1594 1287.5 c 128,-1,53
 1615 1268 1615 1268 1615 1239 c 128,-1,54
 1615 1210 1615 1210 1594 1189 c 128,-1,55
 1573 1168 1573 1168 1545 1168 c 2,56,-1
 72 1168 l 2,57,58
 46 1168 46 1168 27.5 1150 c 128,-1,59
 9 1132 9 1132 9 1107 c 0,30,31
1384 -5 m 1,60,-1
 1647 -5 l 1,61,-1
 1823 847 l 1,62,-1
 1560 847 l 1,63,-1
 1384 -5 l 1,60,-1
1763 -5 m 1,64,-1
 2469 -5 l 1,65,-1
 2512 198 l 1,66,-1
 2121 198 l 1,67,-1
 2121 200 l 1,68,69
 2153 215 2153 215 2213 239 c 128,-1,70
 2273 263 2273 263 2314 280 c 128,-1,71
 2355 297 2355 297 2406 327 c 128,-1,72
 2457 357 2457 357 2488 388.5 c 128,-1,73
 2519 420 2519 420 2541 468.5 c 128,-1,74
 2563 517 2563 517 2563 575 c 0,75,76
 2563 664 2563 664 2517 724 c 128,-1,77
 2471 784 2471 784 2402 809 c 128,-1,78
 2333 834 2333 834 2247 834 c 0,79,80
 2092 834 2092 834 1994 750.5 c 128,-1,81
 1896 667 1896 667 1877 504 c 1,82,-1
 2098 504 l 1,83,84
 2098 564 2098 564 2133 605 c 128,-1,85
 2168 646 2168 646 2232 646 c 0,86,87
 2280 646 2280 646 2303.5 620.5 c 128,-1,88
 2327 595 2327 595 2327 562 c 0,89,90
 2327 510 2327 510 2292 481 c 128,-1,91
 2257 452 2257 452 2159 404 c 0,92,93
 2153 402 2153 402 2150 400 c 0,94,95
 2008 332 2008 332 1974 312 c 0,96,97
 1847 236 1847 236 1798 126 c 0,98,99
 1772 68 1772 68 1763 -5 c 1,64,-1
EndSplineSet
EndChar

StartChar: bracketright
Encoding: 93 93 57
Width: 1484
Flags: W
LayerCount: 2
Fore
SplineSet
0 718 m 0,0,1
 0 647 0 647 74 597 c 0,2,3
 209 502 209 502 482 502 c 0,4,5
 605 502 605 502 710 523 c 0,6,7
 821 547 821 547 891 598 c 128,-1,8
 961 649 961 649 961 718 c 0,9,10
 961 739 961 739 953 760 c 1,11,12
 1095 795 1095 795 1176 854.5 c 128,-1,13
 1257 914 1257 914 1257 991 c 0,14,15
 1257 1010 1257 1010 1251 1032 c 1,16,17
 1485 1115 1485 1115 1485 1256 c 0,18,19
 1485 1346 1485 1346 1383 1416 c 0,20,21
 1183 1549 1183 1549 797 1549 c 0,22,23
 615 1549 615 1549 467 1517 c 0,24,25
 308 1485 308 1485 209.5 1415 c 128,-1,26
 111 1345 111 1345 111 1256 c 0,27,28
 111 1203 111 1203 144 1159 c 1,29,30
 23 1090 23 1090 23 991 c 0,31,32
 23 914 23 914 98 856 c 1,33,34
 0 799 0 799 0 718 c 0,0,1
41 411 m 0,35,36
 41 336 41 336 133.5 293.5 c 128,-1,37
 226 251 226 251 366 251 c 0,38,39
 508 251 508 251 601 293.5 c 128,-1,40
 694 336 694 336 694 411 c 0,41,42
 694 439 694 439 676 458 c 128,-1,43
 658 477 658 477 630 477 c 0,44,45
 607 477 607 477 589 461 c 128,-1,46
 571 445 571 445 566 422 c 1,47,48
 546 406 546 406 491 392.5 c 128,-1,49
 436 379 436 379 366 379 c 0,50,51
 253 379 253 379 183 411 c 1,52,53
 199 427 199 427 200.5 452 c 128,-1,54
 202 477 202 477 190 494 c 0,55,56
 174 516 174 516 148.5 521 c 128,-1,57
 123 526 123 526 101 512 c 0,58,59
 41 472 41 472 41 411 c 0,35,36
128 718 m 0,60,61
 128 719 128 719 141 730 c 0,62,63
 150 739 150 739 179.5 753 c 128,-1,64
 209 767 209 767 245 777 c 1,65,-1
 253 781 l 1,66,67
 419 726 419 726 640 726 c 0,68,69
 737 726 737 726 816 737 c 1,70,-1
 834 721 l 1,71,72
 825 705 825 705 791 687 c 0,73,74
 750 665 750 665 664 648 c 128,-1,75
 578 631 578 631 482 631 c 128,-1,76
 386 631 386 631 299.5 648 c 128,-1,77
 213 665 213 665 171 687 c 0,78,79
 137 702 137 702 128 718 c 0,60,61
136 143 m 0,80,81
 136 78 136 78 209.5 43 c 128,-1,82
 283 8 283 8 392 8 c 0,83,84
 503 8 503 8 578 43 c 128,-1,85
 653 78 653 78 653 143 c 0,86,87
 653 169 653 169 634 189 c 128,-1,88
 615 209 615 209 589 209 c 0,89,90
 541 209 541 209 526 160 c 1,91,92
 486 135 486 135 392 135 c 0,93,94
 310 135 310 135 261 160 c 1,95,96
 246 209 246 209 198 209 c 0,97,98
 172 209 172 209 154 190 c 128,-1,99
 136 171 136 171 136 143 c 0,80,81
150 991 m 0,100,101
 150 999 150 999 160 1010 c 0,102,103
 185 1041 185 1041 257 1070 c 1,104,105
 454 965 454 965 797 965 c 0,106,107
 972 965 972 965 1126 997 c 1,108,-1
 1126 991 l 2,109,110
 1126 976 1126 976 1107 960 c 0,111,112
 1065 923 1065 923 951 890 c 0,113,114
 827 853 827 853 640 853 c 0,115,116
 452 853 452 853 328 890 c 0,117,118
 209 923 209 923 169 960 c 0,119,120
 150 975 150 975 150 991 c 0,100,101
239 1256 m 0,121,122
 239 1274 239 1274 263 1296 c 0,123,124
 309 1339 309 1339 446 1379 c 0,125,126
 592 1422 592 1422 797 1422 c 0,127,128
 1003 1422 1003 1422 1151 1379 c 0,129,130
 1289 1339 1289 1339 1334 1296 c 0,131,132
 1357 1273 1357 1273 1357 1256 c 128,-1,133
 1357 1239 1357 1239 1334 1218 c 0,134,135
 1289 1175 1289 1175 1151 1134 c 0,136,137
 1003 1091 1003 1091 797 1091 c 0,138,139
 592 1091 592 1091 446 1134 c 0,140,141
 308 1174 308 1174 263 1218 c 0,142,143
 239 1239 239 1239 239 1256 c 0,121,122
EndSplineSet
EndChar

StartChar: asciicircum
Encoding: 94 94 58
Width: 1816
Flags: W
LayerCount: 2
Fore
SplineSet
0 1000 m 0,0,1
 0 1150 0 1150 94.5 1268.5 c 128,-1,2
 189 1387 189 1387 334 1419 c 1,3,4
 375 1599 375 1599 518.5 1714 c 128,-1,5
 662 1829 662 1829 847 1829 c 0,6,7
 1027 1829 1027 1829 1169 1716.5 c 128,-1,8
 1311 1604 1311 1604 1353 1430 c 1,9,-1
 1382 1430 l 2,10,11
 1562 1430 1562 1430 1689 1304.5 c 128,-1,12
 1816 1179 1816 1179 1816 1000 c 0,13,14
 1816 904 1816 904 1776.5 818.5 c 128,-1,15
 1737 733 1737 733 1667 672 c 1,16,-1
 1667 669 l 2,17,18
 1667 574 1667 574 1607.5 499.5 c 128,-1,19
 1548 425 1548 425 1458 405 c 1,20,21
 1435 305 1435 305 1361 236 c 128,-1,22
 1287 167 1287 167 1187 151 c 1,23,24
 1233 96 1233 96 1233 30 c 0,25,26
 1233 -47 1233 -47 1178.5 -102 c 128,-1,27
 1124 -157 1124 -157 1047 -157 c 128,-1,28
 970 -157 970 -157 915.5 -102 c 128,-1,29
 861 -47 861 -47 861 30 c 0,30,31
 861 61 861 61 872 91 c 1,32,-1
 861 91 l 2,33,34
 768 91 768 91 701 158 c 128,-1,35
 634 225 634 225 634 318 c 0,36,37
 634 382 634 382 666 432 c 1,38,39
 583 478 583 478 546 565 c 1,40,-1
 421 565 l 1,41,-1
 419 565 l 1,42,-1
 410 565 l 1,43,-1
 410 566 l 1,44,45
 238 577 238 577 119 702 c 128,-1,46
 0 827 0 827 0 1000 c 0,0,1
149 1026 m 0,47,48
 149 898 149 898 239 808 c 128,-1,49
 329 718 329 718 456 718 c 0,50,51
 535 718 535 718 602 754 c 1,52,53
 621 635 621 635 713 556 c 128,-1,54
 805 477 805 477 929 477 c 0,55,56
 1068 477 1068 477 1166 575 c 1,57,58
 1232 499 1232 499 1330 499 c 0,59,60
 1421 499 1421 499 1485.5 563.5 c 128,-1,61
 1550 628 1550 628 1550 719 c 1,62,63
 1614 762 1614 762 1651 829.5 c 128,-1,64
 1688 897 1688 897 1688 976 c 0,65,66
 1688 1103 1688 1103 1597 1191.5 c 128,-1,67
 1506 1280 1506 1280 1378 1280 c 0,68,69
 1289 1280 1289 1280 1215 1233 c 1,70,71
 1224 1272 1224 1272 1224 1317 c 0,72,73
 1224 1471 1224 1471 1114 1579 c 128,-1,74
 1004 1687 1004 1687 848 1687 c 0,75,76
 698 1687 698 1687 589 1583 c 128,-1,77
 480 1479 480 1479 475 1330 c 0,78,79
 472 1330 472 1330 466 1330.5 c 128,-1,80
 460 1331 460 1331 456 1331 c 0,81,82
 330 1331 330 1331 239.5 1241.5 c 128,-1,83
 149 1152 149 1152 149 1026 c 0,47,48
EndSplineSet
EndChar

StartChar: underscore
Encoding: 95 95 59
Width: 1846
Flags: W
LayerCount: 2
Fore
SplineSet
0 1002 m 0,0,1
 0 1152 0 1152 96.5 1269 c 128,-1,2
 193 1386 193 1386 343 1421 c 1,3,4
 379 1599 379 1599 524.5 1714.5 c 128,-1,5
 670 1830 670 1830 857 1830 c 0,6,7
 1037 1830 1037 1830 1177.5 1719.5 c 128,-1,8
 1318 1609 1318 1609 1361 1431 c 1,9,-1
 1391 1431 l 2,10,11
 1512 1431 1512 1431 1617 1379 c 128,-1,12
 1722 1327 1722 1327 1784.5 1236.5 c 128,-1,13
 1847 1146 1847 1146 1847 1040 c 0,14,15
 1847 860 1847 860 1709 735 c 1,16,17
 1709 679 1709 679 1674.5 606.5 c 128,-1,18
 1640 534 1640 534 1582 475 c 128,-1,19
 1524 416 1524 416 1465 403 c 1,20,21
 1445 304 1445 304 1373 236 c 128,-1,22
 1301 168 1301 168 1199 145 c 1,23,24
 1247 97 1247 97 1247 32 c 0,25,26
 1247 -47 1247 -47 1191 -102.5 c 128,-1,27
 1135 -158 1135 -158 1056 -158 c 0,28,29
 978 -158 978 -158 922 -102.5 c 128,-1,30
 866 -47 866 -47 866 32 c 0,31,32
 866 41 866 41 870.5 60 c 128,-1,33
 875 79 875 79 875 89 c 1,34,-1
 866 89 l 2,35,36
 772 89 772 89 705 156.5 c 128,-1,37
 638 224 638 224 638 318 c 0,38,39
 638 355 638 355 677 431 c 1,40,41
 599 472 599 472 552 565 c 1,42,-1
 419 565 l 1,43,44
 244 580 244 580 122 703.5 c 128,-1,45
 0 827 0 827 0 1002 c 0,0,1
EndSplineSet
EndChar

StartChar: grave
Encoding: 96 96 60
Width: 1537
Flags: W
LayerCount: 2
Fore
SplineSet
0 767 m 0,0,1
 0 976 0 976 103.5 1153.5 c 128,-1,2
 207 1331 207 1331 384 1434 c 128,-1,3
 561 1537 561 1537 769 1537 c 0,4,5
 925 1537 925 1537 1067 1476 c 128,-1,6
 1209 1415 1209 1415 1312 1312 c 128,-1,7
 1415 1209 1415 1209 1476 1066.5 c 128,-1,8
 1537 924 1537 924 1537 767 c 0,9,10
 1537 611 1537 611 1476 468.5 c 128,-1,11
 1415 326 1415 326 1312 223.5 c 128,-1,12
 1209 121 1209 121 1067 60.5 c 128,-1,13
 925 0 925 0 769 0 c 0,14,15
 612 0 612 0 469.5 61 c 128,-1,16
 327 122 327 122 224 225 c 128,-1,17
 121 328 121 328 60.5 469.5 c 128,-1,18
 0 611 0 611 0 767 c 0,0,1
169 767 m 0,19,20
 169 524 169 524 346 345 c 0,21,22
 523 168 523 168 769 168 c 0,23,24
 931 168 931 168 1069 248.5 c 128,-1,25
 1207 329 1207 329 1288 467 c 128,-1,26
 1369 605 1369 605 1369 767 c 128,-1,27
 1369 929 1369 929 1288 1067.5 c 128,-1,28
 1207 1206 1207 1206 1069 1286.5 c 128,-1,29
 931 1367 931 1367 769 1367 c 128,-1,30
 607 1367 607 1367 469 1286.5 c 128,-1,31
 331 1206 331 1206 250 1067.5 c 128,-1,32
 169 929 169 929 169 767 c 0,19,20
710 767 m 2,33,34
 710 744 710 744 726.5 727 c 128,-1,35
 743 710 743 710 767 710 c 0,36,37
 790 710 790 710 807 727 c 128,-1,38
 824 744 824 744 824 767 c 2,39,-1
 824 1222 l 2,40,41
 824 1246 824 1246 807 1262.5 c 128,-1,42
 790 1279 790 1279 767 1279 c 0,43,44
 743 1279 743 1279 726.5 1262.5 c 128,-1,45
 710 1246 710 1246 710 1222 c 2,46,-1
 710 767 l 2,33,34
EndSplineSet
EndChar

StartChar: a
Encoding: 97 97 61
Width: 1537
Flags: W
LayerCount: 2
Fore
SplineSet
0 767 m 0,0,1
 0 976 0 976 103.5 1153.5 c 128,-1,2
 207 1331 207 1331 384 1434 c 128,-1,3
 561 1537 561 1537 769 1537 c 0,4,5
 925 1537 925 1537 1067 1476 c 128,-1,6
 1209 1415 1209 1415 1312 1312 c 128,-1,7
 1415 1209 1415 1209 1476 1066.5 c 128,-1,8
 1537 924 1537 924 1537 767 c 0,9,10
 1537 611 1537 611 1476 468.5 c 128,-1,11
 1415 326 1415 326 1312 223.5 c 128,-1,12
 1209 121 1209 121 1067 60.5 c 128,-1,13
 925 0 925 0 769 0 c 0,14,15
 612 0 612 0 469.5 61 c 128,-1,16
 327 122 327 122 224 225 c 128,-1,17
 121 328 121 328 60.5 469.5 c 128,-1,18
 0 611 0 611 0 767 c 0,0,1
169 767 m 0,19,20
 169 524 169 524 346 345 c 0,21,22
 523 168 523 168 769 168 c 0,23,24
 931 168 931 168 1069 248.5 c 128,-1,25
 1207 329 1207 329 1288 467 c 128,-1,26
 1369 605 1369 605 1369 767 c 128,-1,27
 1369 929 1369 929 1288 1067.5 c 128,-1,28
 1207 1206 1207 1206 1069 1286.5 c 128,-1,29
 931 1367 931 1367 769 1367 c 128,-1,30
 607 1367 607 1367 469 1286.5 c 128,-1,31
 331 1206 331 1206 250 1067.5 c 128,-1,32
 169 929 169 929 169 767 c 0,19,20
710 767 m 2,33,-1
 710 1222 l 2,34,35
 710 1246 710 1246 726.5 1262.5 c 128,-1,36
 743 1279 743 1279 767 1279 c 0,37,38
 790 1279 790 1279 807 1262.5 c 128,-1,39
 824 1246 824 1246 824 1222 c 2,40,-1
 824 981 l 1,41,-1
 875 1070 l 2,42,43
 887 1090 887 1090 910.5 1096 c 128,-1,44
 934 1102 934 1102 954 1090 c 0,45,46
 974 1079 974 1079 980.5 1056 c 128,-1,47
 987 1033 987 1033 975 1013 c 2,48,-1
 819 746 l 1,49,50
 806 710 806 710 767 710 c 0,51,52
 743 710 743 710 726.5 726.5 c 128,-1,53
 710 743 710 743 710 767 c 2,33,-1
EndSplineSet
EndChar

StartChar: b
Encoding: 98 98 62
Width: 1537
Flags: W
LayerCount: 2
Fore
SplineSet
0 767 m 0,0,1
 0 976 0 976 103.5 1153.5 c 128,-1,2
 207 1331 207 1331 384 1434 c 128,-1,3
 561 1537 561 1537 769 1537 c 0,4,5
 925 1537 925 1537 1067 1476 c 128,-1,6
 1209 1415 1209 1415 1312 1312 c 128,-1,7
 1415 1209 1415 1209 1476 1066.5 c 128,-1,8
 1537 924 1537 924 1537 767 c 0,9,10
 1537 611 1537 611 1476 468.5 c 128,-1,11
 1415 326 1415 326 1312 223.5 c 128,-1,12
 1209 121 1209 121 1067 60.5 c 128,-1,13
 925 0 925 0 769 0 c 0,14,15
 612 0 612 0 469.5 61 c 128,-1,16
 327 122 327 122 224 225 c 128,-1,17
 121 328 121 328 60.5 469.5 c 128,-1,18
 0 611 0 611 0 767 c 0,0,1
169 767 m 0,19,20
 169 524 169 524 346 345 c 0,21,22
 523 168 523 168 769 168 c 0,23,24
 931 168 931 168 1069 248.5 c 128,-1,25
 1207 329 1207 329 1288 467 c 128,-1,26
 1369 605 1369 605 1369 767 c 128,-1,27
 1369 929 1369 929 1288 1067.5 c 128,-1,28
 1207 1206 1207 1206 1069 1286.5 c 128,-1,29
 931 1367 931 1367 769 1367 c 128,-1,30
 607 1367 607 1367 469 1286.5 c 128,-1,31
 331 1206 331 1206 250 1067.5 c 128,-1,32
 169 929 169 929 169 767 c 0,19,20
710 767 m 2,33,-1
 710 768 l 1,34,-1
 710 1222 l 2,35,36
 710 1246 710 1246 726.5 1262.5 c 128,-1,37
 743 1279 743 1279 767 1279 c 128,-1,38
 791 1279 791 1279 807.5 1262.5 c 128,-1,39
 824 1246 824 1246 824 1222 c 2,40,-1
 824 866 l 1,41,-1
 1014 973 l 2,42,43
 1034 985 1034 985 1057 979 c 128,-1,44
 1080 973 1080 973 1091 951 c 0,45,46
 1103 931 1103 931 1096.5 908 c 128,-1,47
 1090 885 1090 885 1070 873 c 2,48,-1
 805 725 l 1,49,50
 788 710 788 710 767 710 c 0,51,52
 743 710 743 710 726.5 726.5 c 128,-1,53
 710 743 710 743 710 767 c 2,33,-1
EndSplineSet
EndChar

StartChar: c
Encoding: 99 99 63
Width: 1537
Flags: W
LayerCount: 2
Fore
SplineSet
0 767 m 0,0,1
 0 976 0 976 103.5 1153.5 c 128,-1,2
 207 1331 207 1331 384 1434 c 128,-1,3
 561 1537 561 1537 769 1537 c 0,4,5
 925 1537 925 1537 1067 1476 c 128,-1,6
 1209 1415 1209 1415 1312 1312 c 128,-1,7
 1415 1209 1415 1209 1476 1066.5 c 128,-1,8
 1537 924 1537 924 1537 767 c 0,9,10
 1537 611 1537 611 1476 468.5 c 128,-1,11
 1415 326 1415 326 1312 223.5 c 128,-1,12
 1209 121 1209 121 1067 60.5 c 128,-1,13
 925 0 925 0 769 0 c 0,14,15
 612 0 612 0 469.5 61 c 128,-1,16
 327 122 327 122 224 225 c 128,-1,17
 121 328 121 328 60.5 469.5 c 128,-1,18
 0 611 0 611 0 767 c 0,0,1
169 767 m 0,19,20
 169 524 169 524 346 345 c 0,21,22
 523 168 523 168 769 168 c 0,23,24
 931 168 931 168 1069 248.5 c 128,-1,25
 1207 329 1207 329 1288 467 c 128,-1,26
 1369 605 1369 605 1369 767 c 128,-1,27
 1369 929 1369 929 1288 1067.5 c 128,-1,28
 1207 1206 1207 1206 1069 1286.5 c 128,-1,29
 931 1367 931 1367 769 1367 c 128,-1,30
 607 1367 607 1367 469 1286.5 c 128,-1,31
 331 1206 331 1206 250 1067.5 c 128,-1,32
 169 929 169 929 169 767 c 0,19,20
710 767 m 2,33,-1
 710 1222 l 2,34,35
 710 1246 710 1246 726.5 1262.5 c 128,-1,36
 743 1279 743 1279 767 1279 c 128,-1,37
 791 1279 791 1279 807.5 1262.5 c 128,-1,38
 824 1246 824 1246 824 1222 c 2,39,-1
 824 825 l 1,40,-1
 1082 825 l 2,41,42
 1106 825 1106 825 1122.5 808.5 c 128,-1,43
 1139 792 1139 792 1139 768 c 0,44,45
 1139 745 1139 745 1122.5 728 c 128,-1,46
 1106 711 1106 711 1082 711 c 2,47,-1
 779 711 l 2,48,49
 776 710 776 710 767 710 c 0,50,51
 743 710 743 710 726.5 726.5 c 128,-1,52
 710 743 710 743 710 767 c 2,33,-1
EndSplineSet
EndChar

StartChar: d
Encoding: 100 100 64
Width: 1537
Flags: W
LayerCount: 2
Fore
SplineSet
0 767 m 0,0,1
 0 976 0 976 103.5 1153.5 c 128,-1,2
 207 1331 207 1331 384 1434 c 128,-1,3
 561 1537 561 1537 769 1537 c 0,4,5
 925 1537 925 1537 1067 1476 c 128,-1,6
 1209 1415 1209 1415 1312 1312 c 128,-1,7
 1415 1209 1415 1209 1476 1066.5 c 128,-1,8
 1537 924 1537 924 1537 767 c 0,9,10
 1537 611 1537 611 1476 468.5 c 128,-1,11
 1415 326 1415 326 1312 223.5 c 128,-1,12
 1209 121 1209 121 1067 60.5 c 128,-1,13
 925 0 925 0 769 0 c 0,14,15
 612 0 612 0 469.5 61 c 128,-1,16
 327 122 327 122 224 225 c 128,-1,17
 121 328 121 328 60.5 469.5 c 128,-1,18
 0 611 0 611 0 767 c 0,0,1
169 767 m 0,19,20
 169 524 169 524 346 345 c 0,21,22
 523 168 523 168 769 168 c 0,23,24
 931 168 931 168 1069 248.5 c 128,-1,25
 1207 329 1207 329 1288 467 c 128,-1,26
 1369 605 1369 605 1369 767 c 128,-1,27
 1369 929 1369 929 1288 1067.5 c 128,-1,28
 1207 1206 1207 1206 1069 1286.5 c 128,-1,29
 931 1367 931 1367 769 1367 c 128,-1,30
 607 1367 607 1367 469 1286.5 c 128,-1,31
 331 1206 331 1206 250 1067.5 c 128,-1,32
 169 929 169 929 169 767 c 0,19,20
710 767 m 2,33,-1
 710 1222 l 2,34,35
 710 1246 710 1246 726.5 1262.5 c 128,-1,36
 743 1279 743 1279 767 1279 c 128,-1,37
 791 1279 791 1279 807.5 1262.5 c 128,-1,38
 824 1246 824 1246 824 1222 c 2,39,-1
 824 802 l 1,40,-1
 1069 659 l 2,41,42
 1089 647 1089 647 1095 624.5 c 128,-1,43
 1101 602 1101 602 1089 582 c 0,44,45
 1073 553 1073 553 1040 553 c 0,46,47
 1023 553 1023 553 1011 561 c 2,48,-1
 750 713 l 1,49,50
 733 718 733 718 721.5 733 c 128,-1,51
 710 748 710 748 710 767 c 2,33,-1
EndSplineSet
EndChar

StartChar: e
Encoding: 101 101 65
Width: 1537
Flags: W
LayerCount: 2
Fore
SplineSet
0 767 m 0,0,1
 0 976 0 976 103.5 1153.5 c 128,-1,2
 207 1331 207 1331 384 1434 c 128,-1,3
 561 1537 561 1537 769 1537 c 0,4,5
 925 1537 925 1537 1067 1476 c 128,-1,6
 1209 1415 1209 1415 1312 1312 c 128,-1,7
 1415 1209 1415 1209 1476 1066.5 c 128,-1,8
 1537 924 1537 924 1537 767 c 0,9,10
 1537 611 1537 611 1476 468.5 c 128,-1,11
 1415 326 1415 326 1312 223.5 c 128,-1,12
 1209 121 1209 121 1067 60.5 c 128,-1,13
 925 0 925 0 769 0 c 0,14,15
 612 0 612 0 469.5 61 c 128,-1,16
 327 122 327 122 224 225 c 128,-1,17
 121 328 121 328 60.5 469.5 c 128,-1,18
 0 611 0 611 0 767 c 0,0,1
169 767 m 0,19,20
 169 524 169 524 346 345 c 0,21,22
 523 168 523 168 769 168 c 0,23,24
 931 168 931 168 1069 248.5 c 128,-1,25
 1207 329 1207 329 1288 467 c 128,-1,26
 1369 605 1369 605 1369 767 c 128,-1,27
 1369 929 1369 929 1288 1067.5 c 128,-1,28
 1207 1206 1207 1206 1069 1286.5 c 128,-1,29
 931 1367 931 1367 769 1367 c 128,-1,30
 607 1367 607 1367 469 1286.5 c 128,-1,31
 331 1206 331 1206 250 1067.5 c 128,-1,32
 169 929 169 929 169 767 c 0,19,20
710 767 m 2,33,-1
 710 768 l 1,34,-1
 710 1222 l 2,35,36
 710 1246 710 1246 726.5 1262.5 c 128,-1,37
 743 1279 743 1279 767 1279 c 128,-1,38
 791 1279 791 1279 807.5 1262.5 c 128,-1,39
 824 1246 824 1246 824 1222 c 2,40,-1
 824 784 l 1,41,-1
 971 522 l 2,42,43
 983 500 983 500 976.5 477.5 c 128,-1,44
 970 455 970 455 950 443 c 0,45,46
 939 437 939 437 922 437 c 0,47,48
 888 437 888 437 872 465 c 2,49,-1
 722 731 l 2,50,51
 710 746 710 746 710 767 c 2,33,-1
EndSplineSet
EndChar

StartChar: f
Encoding: 102 102 66
Width: 1537
Flags: W
LayerCount: 2
Fore
SplineSet
0 767 m 0,0,1
 0 976 0 976 103.5 1153.5 c 128,-1,2
 207 1331 207 1331 384 1434 c 128,-1,3
 561 1537 561 1537 769 1537 c 0,4,5
 925 1537 925 1537 1067 1476 c 128,-1,6
 1209 1415 1209 1415 1312 1312 c 128,-1,7
 1415 1209 1415 1209 1476 1066.5 c 128,-1,8
 1537 924 1537 924 1537 767 c 0,9,10
 1537 611 1537 611 1476 468.5 c 128,-1,11
 1415 326 1415 326 1312 223.5 c 128,-1,12
 1209 121 1209 121 1067 60.5 c 128,-1,13
 925 0 925 0 769 0 c 0,14,15
 612 0 612 0 469.5 61 c 128,-1,16
 327 122 327 122 224 225 c 128,-1,17
 121 328 121 328 60.5 469.5 c 128,-1,18
 0 611 0 611 0 767 c 0,0,1
169 767 m 0,19,20
 169 524 169 524 346 345 c 0,21,22
 523 168 523 168 769 168 c 0,23,24
 931 168 931 168 1069 248.5 c 128,-1,25
 1207 329 1207 329 1288 467 c 128,-1,26
 1369 605 1369 605 1369 767 c 128,-1,27
 1369 929 1369 929 1288 1067.5 c 128,-1,28
 1207 1206 1207 1206 1069 1286.5 c 128,-1,29
 931 1367 931 1367 769 1367 c 128,-1,30
 607 1367 607 1367 469 1286.5 c 128,-1,31
 331 1206 331 1206 250 1067.5 c 128,-1,32
 169 929 169 929 169 767 c 0,19,20
710 453 m 2,33,-1
 710 1222 l 2,34,35
 710 1246 710 1246 726.5 1262.5 c 128,-1,36
 743 1279 743 1279 767 1279 c 128,-1,37
 791 1279 791 1279 807.5 1262.5 c 128,-1,38
 824 1246 824 1246 824 1222 c 2,39,-1
 824 453 l 2,40,41
 824 429 824 429 807.5 412 c 128,-1,42
 791 395 791 395 767 395 c 128,-1,43
 743 395 743 395 726.5 412 c 128,-1,44
 710 429 710 429 710 453 c 2,33,-1
EndSplineSet
EndChar

StartChar: g
Encoding: 103 103 67
Width: 1537
Flags: W
LayerCount: 2
Fore
SplineSet
0 767 m 0,0,1
 0 976 0 976 103.5 1153.5 c 128,-1,2
 207 1331 207 1331 384 1434 c 128,-1,3
 561 1537 561 1537 769 1537 c 0,4,5
 925 1537 925 1537 1067 1476 c 128,-1,6
 1209 1415 1209 1415 1312 1312 c 128,-1,7
 1415 1209 1415 1209 1476 1066.5 c 128,-1,8
 1537 924 1537 924 1537 767 c 0,9,10
 1537 611 1537 611 1476 468.5 c 128,-1,11
 1415 326 1415 326 1312 223.5 c 128,-1,12
 1209 121 1209 121 1067 60.5 c 128,-1,13
 925 0 925 0 769 0 c 0,14,15
 612 0 612 0 469.5 61 c 128,-1,16
 327 122 327 122 224 225 c 128,-1,17
 121 328 121 328 60.5 469.5 c 128,-1,18
 0 611 0 611 0 767 c 0,0,1
169 767 m 0,19,20
 169 524 169 524 346 345 c 0,21,22
 523 168 523 168 769 168 c 0,23,24
 931 168 931 168 1069 248.5 c 128,-1,25
 1207 329 1207 329 1288 467 c 128,-1,26
 1369 605 1369 605 1369 767 c 128,-1,27
 1369 929 1369 929 1288 1067.5 c 128,-1,28
 1207 1206 1207 1206 1069 1286.5 c 128,-1,29
 931 1367 931 1367 769 1367 c 128,-1,30
 607 1367 607 1367 469 1286.5 c 128,-1,31
 331 1206 331 1206 250 1067.5 c 128,-1,32
 169 929 169 929 169 767 c 0,19,20
556.5 477.5 m 128,-1,34
 550 500 550 500 562 522 c 2,35,-1
 710 784 l 1,36,-1
 710 1222 l 2,37,38
 710 1246 710 1246 726.5 1262.5 c 128,-1,39
 743 1279 743 1279 767 1279 c 128,-1,40
 791 1279 791 1279 807.5 1262.5 c 128,-1,41
 824 1246 824 1246 824 1222 c 2,42,-1
 824 768 l 1,43,-1
 824 767 l 2,44,45
 824 747 824 747 811 731 c 2,46,-1
 662 465 l 2,47,48
 646 437 646 437 611 437 c 0,49,50
 595 437 595 437 584 443 c 0,51,33
 563 455 563 455 556.5 477.5 c 128,-1,34
EndSplineSet
EndChar

StartChar: h
Encoding: 104 104 68
Width: 1537
Flags: W
LayerCount: 2
Fore
SplineSet
0 767 m 0,0,1
 0 976 0 976 103.5 1153.5 c 128,-1,2
 207 1331 207 1331 384 1434 c 128,-1,3
 561 1537 561 1537 769 1537 c 0,4,5
 925 1537 925 1537 1067 1476 c 128,-1,6
 1209 1415 1209 1415 1312 1312 c 128,-1,7
 1415 1209 1415 1209 1476 1066.5 c 128,-1,8
 1537 924 1537 924 1537 767 c 0,9,10
 1537 611 1537 611 1476 468.5 c 128,-1,11
 1415 326 1415 326 1312 223.5 c 128,-1,12
 1209 121 1209 121 1067 60.5 c 128,-1,13
 925 0 925 0 769 0 c 0,14,15
 612 0 612 0 469.5 61 c 128,-1,16
 327 122 327 122 224 225 c 128,-1,17
 121 328 121 328 60.5 469.5 c 128,-1,18
 0 611 0 611 0 767 c 0,0,1
169 767 m 0,19,20
 169 524 169 524 346 345 c 0,21,22
 523 168 523 168 769 168 c 0,23,24
 931 168 931 168 1069 248.5 c 128,-1,25
 1207 329 1207 329 1288 467 c 128,-1,26
 1369 605 1369 605 1369 767 c 128,-1,27
 1369 929 1369 929 1288 1067.5 c 128,-1,28
 1207 1206 1207 1206 1069 1286.5 c 128,-1,29
 931 1367 931 1367 769 1367 c 128,-1,30
 607 1367 607 1367 469 1286.5 c 128,-1,31
 331 1206 331 1206 250 1067.5 c 128,-1,32
 169 929 169 929 169 767 c 0,19,20
439 624.5 m 128,-1,34
 445 647 445 647 465 659 c 2,35,-1
 710 802 l 1,36,-1
 710 1222 l 2,37,38
 710 1246 710 1246 726.5 1262.5 c 128,-1,39
 743 1279 743 1279 767 1279 c 128,-1,40
 791 1279 791 1279 807.5 1262.5 c 128,-1,41
 824 1246 824 1246 824 1222 c 2,42,-1
 824 767 l 2,43,44
 824 748 824 748 812.5 733 c 128,-1,45
 801 718 801 718 784 713 c 1,46,-1
 522 561 l 2,47,48
 510 553 510 553 494 553 c 0,49,50
 461 553 461 553 445 582 c 0,51,33
 433 602 433 602 439 624.5 c 128,-1,34
EndSplineSet
EndChar

StartChar: i
Encoding: 105 105 69
Width: 1537
Flags: W
LayerCount: 2
Fore
SplineSet
0 767 m 0,0,1
 0 976 0 976 103.5 1153.5 c 128,-1,2
 207 1331 207 1331 384 1434 c 128,-1,3
 561 1537 561 1537 769 1537 c 0,4,5
 925 1537 925 1537 1067 1476 c 128,-1,6
 1209 1415 1209 1415 1312 1312 c 128,-1,7
 1415 1209 1415 1209 1476 1066.5 c 128,-1,8
 1537 924 1537 924 1537 767 c 0,9,10
 1537 611 1537 611 1476 468.5 c 128,-1,11
 1415 326 1415 326 1312 223.5 c 128,-1,12
 1209 121 1209 121 1067 60.5 c 128,-1,13
 925 0 925 0 769 0 c 0,14,15
 612 0 612 0 469.5 61 c 128,-1,16
 327 122 327 122 224 225 c 128,-1,17
 121 328 121 328 60.5 469.5 c 128,-1,18
 0 611 0 611 0 767 c 0,0,1
169 767 m 0,19,20
 169 524 169 524 346 345 c 0,21,22
 523 168 523 168 769 168 c 0,23,24
 931 168 931 168 1069 248.5 c 128,-1,25
 1207 329 1207 329 1288 467 c 128,-1,26
 1369 605 1369 605 1369 767 c 128,-1,27
 1369 929 1369 929 1288 1067.5 c 128,-1,28
 1207 1206 1207 1206 1069 1286.5 c 128,-1,29
 931 1367 931 1367 769 1367 c 128,-1,30
 607 1367 607 1367 469 1286.5 c 128,-1,31
 331 1206 331 1206 250 1067.5 c 128,-1,32
 169 929 169 929 169 767 c 0,19,20
394 768 m 0,33,34
 394 792 394 792 410.5 808.5 c 128,-1,35
 427 825 427 825 451 825 c 2,36,-1
 710 825 l 1,37,-1
 710 1222 l 2,38,39
 710 1246 710 1246 726.5 1262.5 c 128,-1,40
 743 1279 743 1279 767 1279 c 128,-1,41
 791 1279 791 1279 807.5 1262.5 c 128,-1,42
 824 1246 824 1246 824 1222 c 2,43,-1
 824 767 l 2,44,45
 824 743 824 743 807.5 726.5 c 128,-1,46
 791 710 791 710 767 710 c 0,47,48
 757 710 757 710 754 711 c 2,49,-1
 451 711 l 2,50,51
 427 711 427 711 410.5 728 c 128,-1,52
 394 745 394 745 394 768 c 0,33,34
EndSplineSet
EndChar

StartChar: j
Encoding: 106 106 70
Width: 1537
Flags: W
LayerCount: 2
Fore
SplineSet
0 767 m 0,0,1
 0 976 0 976 103.5 1153.5 c 128,-1,2
 207 1331 207 1331 384 1434 c 128,-1,3
 561 1537 561 1537 769 1537 c 0,4,5
 925 1537 925 1537 1067 1476 c 128,-1,6
 1209 1415 1209 1415 1312 1312 c 128,-1,7
 1415 1209 1415 1209 1476 1066.5 c 128,-1,8
 1537 924 1537 924 1537 767 c 0,9,10
 1537 611 1537 611 1476 468.5 c 128,-1,11
 1415 326 1415 326 1312 223.5 c 128,-1,12
 1209 121 1209 121 1067 60.5 c 128,-1,13
 925 0 925 0 769 0 c 0,14,15
 612 0 612 0 469.5 61 c 128,-1,16
 327 122 327 122 224 225 c 128,-1,17
 121 328 121 328 60.5 469.5 c 128,-1,18
 0 611 0 611 0 767 c 0,0,1
169 767 m 0,19,20
 169 524 169 524 346 345 c 0,21,22
 523 168 523 168 769 168 c 0,23,24
 931 168 931 168 1069 248.5 c 128,-1,25
 1207 329 1207 329 1288 467 c 128,-1,26
 1369 605 1369 605 1369 767 c 128,-1,27
 1369 929 1369 929 1288 1067.5 c 128,-1,28
 1207 1206 1207 1206 1069 1286.5 c 128,-1,29
 931 1367 931 1367 769 1367 c 128,-1,30
 607 1367 607 1367 469 1286.5 c 128,-1,31
 331 1206 331 1206 250 1067.5 c 128,-1,32
 169 929 169 929 169 767 c 0,19,20
437 908 m 128,-1,34
 430 931 430 931 442 951 c 0,35,36
 453 971 453 971 476.5 978 c 128,-1,37
 500 985 500 985 520 973 c 2,38,-1
 710 866 l 1,39,-1
 710 1222 l 2,40,41
 710 1246 710 1246 726.5 1262.5 c 128,-1,42
 743 1279 743 1279 767 1279 c 128,-1,43
 791 1279 791 1279 807.5 1262.5 c 128,-1,44
 824 1246 824 1246 824 1222 c 2,45,-1
 824 768 l 1,46,-1
 824 767 l 2,47,48
 824 743 824 743 807.5 726.5 c 128,-1,49
 791 710 791 710 767 710 c 0,50,51
 746 710 746 710 729 725 c 1,52,-1
 464 873 l 2,53,33
 444 885 444 885 437 908 c 128,-1,34
EndSplineSet
EndChar

StartChar: k
Encoding: 107 107 71
Width: 1537
Flags: W
LayerCount: 2
Fore
SplineSet
0 767 m 0,0,1
 0 976 0 976 103.5 1153.5 c 128,-1,2
 207 1331 207 1331 384 1434 c 128,-1,3
 561 1537 561 1537 769 1537 c 0,4,5
 925 1537 925 1537 1067 1476 c 128,-1,6
 1209 1415 1209 1415 1312 1312 c 128,-1,7
 1415 1209 1415 1209 1476 1066.5 c 128,-1,8
 1537 924 1537 924 1537 767 c 0,9,10
 1537 611 1537 611 1476 468.5 c 128,-1,11
 1415 326 1415 326 1312 223.5 c 128,-1,12
 1209 121 1209 121 1067 60.5 c 128,-1,13
 925 0 925 0 769 0 c 0,14,15
 612 0 612 0 469.5 61 c 128,-1,16
 327 122 327 122 224 225 c 128,-1,17
 121 328 121 328 60.5 469.5 c 128,-1,18
 0 611 0 611 0 767 c 0,0,1
169 767 m 0,19,20
 169 524 169 524 346 345 c 0,21,22
 523 168 523 168 769 168 c 0,23,24
 931 168 931 168 1069 248.5 c 128,-1,25
 1207 329 1207 329 1288 467 c 128,-1,26
 1369 605 1369 605 1369 767 c 128,-1,27
 1369 929 1369 929 1288 1067.5 c 128,-1,28
 1207 1206 1207 1206 1069 1286.5 c 128,-1,29
 931 1367 931 1367 769 1367 c 128,-1,30
 607 1367 607 1367 469 1286.5 c 128,-1,31
 331 1206 331 1206 250 1067.5 c 128,-1,32
 169 929 169 929 169 767 c 0,19,20
553 1056 m 128,-1,34
 559 1079 559 1079 579 1090 c 0,35,36
 599 1102 599 1102 622.5 1096 c 128,-1,37
 646 1090 646 1090 657 1070 c 2,38,-1
 710 981 l 1,39,-1
 710 1222 l 2,40,41
 710 1246 710 1246 726.5 1262.5 c 128,-1,42
 743 1279 743 1279 767 1279 c 128,-1,43
 791 1279 791 1279 807.5 1262.5 c 128,-1,44
 824 1246 824 1246 824 1222 c 2,45,-1
 824 767 l 2,46,47
 824 743 824 743 807.5 726.5 c 128,-1,48
 791 710 791 710 767 710 c 0,49,50
 726 710 726 710 713 746 c 1,51,-1
 559 1013 l 2,52,33
 547 1033 547 1033 553 1056 c 128,-1,34
EndSplineSet
EndChar

StartChar: p
Encoding: 112 112 72
Width: 1537
Flags: W
LayerCount: 2
Fore
SplineSet
0 765 m 0,0,1
 0 974 0 974 103.5 1151.5 c 128,-1,2
 207 1329 207 1329 384 1432 c 128,-1,3
 561 1535 561 1535 769 1535 c 0,4,5
 925 1535 925 1535 1067 1474 c 128,-1,6
 1209 1413 1209 1413 1312 1310 c 128,-1,7
 1415 1207 1415 1207 1476 1064.5 c 128,-1,8
 1537 922 1537 922 1537 765 c 0,9,10
 1537 609 1537 609 1476 466.5 c 128,-1,11
 1415 324 1415 324 1312 221.5 c 128,-1,12
 1209 119 1209 119 1067 58.5 c 128,-1,13
 925 -2 925 -2 769 -2 c 0,14,15
 612 -2 612 -2 469.5 59 c 128,-1,16
 327 120 327 120 224 223 c 128,-1,17
 121 326 121 326 60.5 467.5 c 128,-1,18
 0 609 0 609 0 765 c 0,0,1
169 765 m 0,19,20
 169 522 169 522 346 343 c 0,21,22
 523 166 523 166 769 166 c 0,23,24
 931 166 931 166 1069 246.5 c 128,-1,25
 1207 327 1207 327 1288 465 c 128,-1,26
 1369 603 1369 603 1369 765 c 128,-1,27
 1369 927 1369 927 1288 1065.5 c 128,-1,28
 1207 1204 1207 1204 1069 1284.5 c 128,-1,29
 931 1365 931 1365 769 1365 c 128,-1,30
 607 1365 607 1365 469 1284.5 c 128,-1,31
 331 1204 331 1204 250 1065.5 c 128,-1,32
 169 927 169 927 169 765 c 0,19,20
503 507 m 2,33,-1
 759 1107 l 2,34,35
 761 1118 761 1118 769 1118 c 128,-1,36
 777 1118 777 1118 779 1107 c 2,37,-1
 1034 507 l 2,38,39
 1038 496 1038 496 1032.5 490 c 128,-1,40
 1027 484 1027 484 1016 490 c 2,41,-1
 779 579 l 2,42,43
 769 583 769 583 759 579 c 2,44,-1
 520 490 l 2,45,46
 510 484 510 484 504 490 c 128,-1,47
 498 496 498 496 503 507 c 2,33,-1
EndSplineSet
EndChar

StartChar: q
Encoding: 113 113 73
Width: 1533
Flags: W
LayerCount: 2
Fore
SplineSet
0 769 m 0,0,1
 0 925 0 925 60.5 1067.5 c 128,-1,2
 121 1210 121 1210 223.5 1312 c 128,-1,3
 326 1414 326 1414 467.5 1475 c 128,-1,4
 609 1536 609 1536 765 1536 c 0,5,6
 922 1536 922 1536 1064 1475 c 128,-1,7
 1206 1414 1206 1414 1309 1311.5 c 128,-1,8
 1412 1209 1412 1209 1473 1067 c 128,-1,9
 1534 925 1534 925 1534 770 c 0,10,11
 1534 614 1534 614 1473 471.5 c 128,-1,12
 1412 329 1412 329 1309 226 c 128,-1,13
 1206 123 1206 123 1064 62.5 c 128,-1,14
 922 2 922 2 766 2 c 0,15,16
 611 2 611 2 469 62.5 c 128,-1,17
 327 123 327 123 224.5 225.5 c 128,-1,18
 122 328 122 328 61 470 c 128,-1,19
 0 612 0 612 0 769 c 0,0,1
168 769 m 0,20,21
 168 607 168 607 248.5 469.5 c 128,-1,22
 329 332 329 332 467 252.5 c 128,-1,23
 605 173 605 173 766 173 c 0,24,25
 887 173 887 173 998 220.5 c 128,-1,26
 1109 268 1109 268 1189.5 348 c 128,-1,27
 1270 428 1270 428 1317.5 538.5 c 128,-1,28
 1365 649 1365 649 1365 770 c 0,29,30
 1365 1014 1365 1014 1187 1192 c 0,31,32
 1009 1368 1009 1368 765 1368 c 0,33,34
 644 1368 644 1368 533.5 1320 c 128,-1,35
 423 1272 423 1272 343 1192 c 128,-1,36
 263 1112 263 1112 215.5 1001 c 128,-1,37
 168 890 168 890 168 769 c 0,20,21
435 761 m 0,38,39
 435 768 435 768 447 771 c 2,40,-1
 1051 1021 l 2,41,42
 1062 1023 1062 1023 1067.5 1017.5 c 128,-1,43
 1073 1012 1073 1012 1069 1001 c 2,44,-1
 821 397 l 2,45,46
 819 386 819 386 810 386 c 0,47,48
 799 386 799 386 794 397 c 2,49,-1
 691 627 l 2,50,51
 682 641 682 641 677 642 c 2,52,-1
 447 746 l 2,53,54
 435 751 435 751 435 761 c 0,38,39
EndSplineSet
EndChar

StartChar: r
Encoding: 114 114 74
Width: 1533
Flags: W
LayerCount: 2
Fore
SplineSet
0 769 m 0,0,1
 0 925 0 925 60.5 1067.5 c 128,-1,2
 121 1210 121 1210 223.5 1312 c 128,-1,3
 326 1414 326 1414 467.5 1475 c 128,-1,4
 609 1536 609 1536 765 1536 c 0,5,6
 922 1536 922 1536 1064 1475 c 128,-1,7
 1206 1414 1206 1414 1309 1311.5 c 128,-1,8
 1412 1209 1412 1209 1473 1067 c 128,-1,9
 1534 925 1534 925 1534 770 c 0,10,11
 1534 614 1534 614 1473 471.5 c 128,-1,12
 1412 329 1412 329 1309 226 c 128,-1,13
 1206 123 1206 123 1064 62.5 c 128,-1,14
 922 2 922 2 766 2 c 0,15,16
 611 2 611 2 469 62.5 c 128,-1,17
 327 123 327 123 224.5 225.5 c 128,-1,18
 122 328 122 328 61 470 c 128,-1,19
 0 612 0 612 0 769 c 0,0,1
168 769 m 0,20,21
 168 607 168 607 248.5 469.5 c 128,-1,22
 329 332 329 332 467 252.5 c 128,-1,23
 605 173 605 173 766 173 c 0,24,25
 887 173 887 173 998 220.5 c 128,-1,26
 1109 268 1109 268 1189.5 348 c 128,-1,27
 1270 428 1270 428 1317.5 538.5 c 128,-1,28
 1365 649 1365 649 1365 770 c 0,29,30
 1365 1014 1365 1014 1187 1192 c 0,31,32
 1009 1368 1009 1368 765 1368 c 0,33,34
 644 1368 644 1368 533.5 1320 c 128,-1,35
 423 1272 423 1272 343 1192 c 128,-1,36
 263 1112 263 1112 215.5 1001 c 128,-1,37
 168 890 168 890 168 769 c 0,20,21
491 521 m 2,38,-1
 581 760 l 2,39,40
 586 770 586 770 581 781 c 2,41,-1
 491 1016 l 2,42,43
 486 1026 486 1026 492 1032 c 128,-1,44
 498 1038 498 1038 509 1033 c 2,45,-1
 1107 781 l 2,46,47
 1118 779 1118 779 1118 770 c 0,48,49
 1118 762 1118 762 1107 760 c 2,50,-1
 509 503 l 2,51,52
 498 499 498 499 492 504.5 c 128,-1,53
 486 510 486 510 491 521 c 2,38,-1
EndSplineSet
EndChar

StartChar: s
Encoding: 115 115 75
Width: 1537
Flags: W
LayerCount: 2
Fore
SplineSet
0 769 m 0,0,1
 0 925 0 925 60.5 1067.5 c 128,-1,2
 121 1210 121 1210 223.5 1312 c 128,-1,3
 326 1414 326 1414 467.5 1475 c 128,-1,4
 609 1536 609 1536 765 1536 c 0,5,6
 922 1536 922 1536 1064 1475 c 128,-1,7
 1206 1414 1206 1414 1309 1311.5 c 128,-1,8
 1412 1209 1412 1209 1473 1067 c 128,-1,9
 1534 925 1534 925 1534 770 c 0,10,11
 1534 614 1534 614 1473 471.5 c 128,-1,12
 1412 329 1412 329 1309 226 c 128,-1,13
 1206 123 1206 123 1064 62.5 c 128,-1,14
 922 2 922 2 766 2 c 0,15,16
 611 2 611 2 469 62.5 c 128,-1,17
 327 123 327 123 224.5 225.5 c 128,-1,18
 122 328 122 328 61 470 c 128,-1,19
 0 612 0 612 0 769 c 0,0,1
168 769 m 0,20,21
 168 607 168 607 248.5 469.5 c 128,-1,22
 329 332 329 332 467 252.5 c 128,-1,23
 605 173 605 173 766 173 c 0,24,25
 887 173 887 173 998 220.5 c 128,-1,26
 1109 268 1109 268 1189.5 348 c 128,-1,27
 1270 428 1270 428 1317.5 538.5 c 128,-1,28
 1365 649 1365 649 1365 770 c 0,29,30
 1365 1014 1365 1014 1187 1192 c 0,31,32
 1009 1368 1009 1368 765 1368 c 0,33,34
 644 1368 644 1368 533.5 1320 c 128,-1,35
 423 1272 423 1272 343 1192 c 128,-1,36
 263 1112 263 1112 215.5 1001 c 128,-1,37
 168 890 168 890 168 769 c 0,20,21
375 777 m 0,38,39
 375 787 375 787 385 791 c 2,40,-1
 616 895 l 2,41,42
 626 900 626 900 631 910 c 2,43,-1
 734 1139 l 2,44,45
 743 1151 743 1151 750 1151 c 0,46,47
 758 1151 758 1151 761 1139 c 2,48,-1
 1009 534 l 2,49,50
 1011 523 1011 523 1007 519 c 128,-1,51
 1003 515 1003 515 991 517 c 2,52,-1
 385 765 l 2,53,54
 375 768 375 768 375 777 c 0,38,39
EndSplineSet
EndChar

StartChar: t
Encoding: 116 116 76
Width: 1538
Flags: W
LayerCount: 2
Fore
SplineSet
0 766 m 0,0,1
 0 922 0 922 61.5 1064.5 c 128,-1,2
 123 1207 123 1207 226 1310 c 128,-1,3
 329 1413 329 1413 471 1473.5 c 128,-1,4
 613 1534 613 1534 769 1534 c 128,-1,5
 925 1534 925 1534 1067.5 1473.5 c 128,-1,6
 1210 1413 1210 1413 1313 1310 c 128,-1,7
 1416 1207 1416 1207 1477 1065 c 128,-1,8
 1538 923 1538 923 1538 766 c 128,-1,9
 1538 609 1538 609 1477 467 c 128,-1,10
 1416 325 1416 325 1313 222.5 c 128,-1,11
 1210 120 1210 120 1067.5 59.5 c 128,-1,12
 925 -1 925 -1 769 -1 c 128,-1,13
 613 -1 613 -1 470.5 60 c 128,-1,14
 328 121 328 121 225 224 c 128,-1,15
 122 327 122 327 61 469 c 128,-1,16
 0 611 0 611 0 766 c 0,0,1
170 766 m 0,17,18
 170 521 170 521 347 344 c 0,19,20
 523 168 523 168 769 168 c 0,21,22
 932 168 932 168 1070.5 248.5 c 128,-1,23
 1209 329 1209 329 1289.5 466.5 c 128,-1,24
 1370 604 1370 604 1370 766 c 0,25,26
 1370 887 1370 887 1322.5 998 c 128,-1,27
 1275 1109 1275 1109 1194 1189.5 c 128,-1,28
 1113 1270 1113 1270 1002 1317.5 c 128,-1,29
 891 1365 891 1365 769 1365 c 0,30,31
 648 1365 648 1365 537.5 1317.5 c 128,-1,32
 427 1270 427 1270 346.5 1189.5 c 128,-1,33
 266 1109 266 1109 218 998 c 128,-1,34
 170 887 170 887 170 766 c 0,17,18
504 1025 m 2,35,36
 499 1036 499 1036 505 1041.5 c 128,-1,37
 511 1047 511 1047 521 1042 c 2,38,-1
 759 953 l 2,39,40
 769 949 769 949 782 953 c 2,41,-1
 1017 1042 l 2,42,43
 1027 1047 1027 1047 1033 1041.5 c 128,-1,44
 1039 1036 1039 1036 1035 1025 c 2,45,-1
 782 426 l 2,46,47
 779 416 779 416 769 416 c 0,48,49
 762 416 762 416 759 426 c 2,50,-1
 504 1025 l 2,35,36
EndSplineSet
EndChar

StartChar: u
Encoding: 117 117 77
Width: 1533
Flags: W
LayerCount: 2
Fore
SplineSet
0 769 m 0,0,1
 0 925 0 925 60.5 1067.5 c 128,-1,2
 121 1210 121 1210 223.5 1312 c 128,-1,3
 326 1414 326 1414 467.5 1475 c 128,-1,4
 609 1536 609 1536 765 1536 c 0,5,6
 922 1536 922 1536 1064 1475 c 128,-1,7
 1206 1414 1206 1414 1309 1311.5 c 128,-1,8
 1412 1209 1412 1209 1473 1067 c 128,-1,9
 1534 925 1534 925 1534 770 c 0,10,11
 1534 614 1534 614 1473 471.5 c 128,-1,12
 1412 329 1412 329 1309 226 c 128,-1,13
 1206 123 1206 123 1064 62.5 c 128,-1,14
 922 2 922 2 766 2 c 0,15,16
 611 2 611 2 469 62.5 c 128,-1,17
 327 123 327 123 224.5 225.5 c 128,-1,18
 122 328 122 328 61 470 c 128,-1,19
 0 612 0 612 0 769 c 0,0,1
168 769 m 0,20,21
 168 607 168 607 248.5 469.5 c 128,-1,22
 329 332 329 332 467 252.5 c 128,-1,23
 605 173 605 173 766 173 c 0,24,25
 887 173 887 173 998 220.5 c 128,-1,26
 1109 268 1109 268 1189.5 348 c 128,-1,27
 1270 428 1270 428 1317.5 538.5 c 128,-1,28
 1365 649 1365 649 1365 770 c 0,29,30
 1365 1014 1365 1014 1187 1192 c 0,31,32
 1009 1368 1009 1368 765 1368 c 0,33,34
 644 1368 644 1368 533.5 1320 c 128,-1,35
 423 1272 423 1272 343 1192 c 128,-1,36
 263 1112 263 1112 215.5 1001 c 128,-1,37
 168 890 168 890 168 769 c 0,20,21
525 536 m 2,38,-1
 775 1141 l 2,39,40
 776 1151 776 1151 785 1151 c 0,41,42
 795 1151 795 1151 799 1141 c 2,43,-1
 903 910 l 2,44,45
 905 901 905 901 919 896 c 2,46,-1
 1149 792 l 2,47,48
 1160 788 1160 788 1160 778 c 0,49,50
 1160 769 1160 769 1149 766 c 2,51,-1
 544 518 l 2,52,53
 534 514 534 514 529 519 c 128,-1,54
 524 524 524 524 525 536 c 2,38,-1
EndSplineSet
EndChar

StartChar: v
Encoding: 118 118 78
Width: 1541
Flags: W
LayerCount: 2
Fore
SplineSet
0 769 m 0,0,1
 0 926 0 926 61.5 1069 c 128,-1,2
 123 1212 123 1212 226.5 1315.5 c 128,-1,3
 330 1419 330 1419 472.5 1480 c 128,-1,4
 615 1541 615 1541 771 1541 c 128,-1,5
 927 1541 927 1541 1070 1480 c 128,-1,6
 1213 1419 1213 1419 1316 1315.5 c 128,-1,7
 1419 1212 1419 1212 1480.5 1069 c 128,-1,8
 1542 926 1542 926 1542 769 c 128,-1,9
 1542 612 1542 612 1480.5 469 c 128,-1,10
 1419 326 1419 326 1315.5 223.5 c 128,-1,11
 1212 121 1212 121 1069.5 60 c 128,-1,12
 927 -1 927 -1 771 -1 c 0,13,14
 614 -1 614 -1 471 60 c 128,-1,15
 328 121 328 121 225 224.5 c 128,-1,16
 122 328 122 328 61 470.5 c 128,-1,17
 0 613 0 613 0 769 c 0,0,1
170 769 m 0,18,19
 170 524 170 524 349 345 c 0,20,21
 526 168 526 168 771 168 c 0,22,23
 934 168 934 168 1073 249 c 128,-1,24
 1212 330 1212 330 1293 468.5 c 128,-1,25
 1374 607 1374 607 1374 769 c 128,-1,26
 1374 931 1374 931 1293 1069.5 c 128,-1,27
 1212 1208 1212 1208 1073 1289 c 128,-1,28
 934 1370 934 1370 771 1370 c 0,29,30
 609 1370 609 1370 470.5 1289 c 128,-1,31
 332 1208 332 1208 251 1069.5 c 128,-1,32
 170 931 170 931 170 769 c 0,18,19
418 769 m 128,-1,34
 418 778 418 778 430 779 c 2,35,-1
 1031 1037 l 2,36,37
 1042 1042 1042 1042 1047.5 1035.5 c 128,-1,38
 1053 1029 1053 1029 1048 1019 c 2,39,-1
 959 779 l 2,40,41
 952 769 952 769 959 759 c 2,42,-1
 1048 521 l 2,43,44
 1053 511 1053 511 1047.5 505 c 128,-1,45
 1042 499 1042 499 1031 504 c 2,46,-1
 430 759 l 2,47,33
 418 760 418 760 418 769 c 128,-1,34
EndSplineSet
EndChar

StartChar: w
Encoding: 119 119 79
Width: 1533
Flags: W
LayerCount: 2
Fore
SplineSet
0 769 m 0,0,1
 0 925 0 925 60.5 1067.5 c 128,-1,2
 121 1210 121 1210 223.5 1312 c 128,-1,3
 326 1414 326 1414 467.5 1475 c 128,-1,4
 609 1536 609 1536 765 1536 c 0,5,6
 922 1536 922 1536 1064 1475 c 128,-1,7
 1206 1414 1206 1414 1309 1311.5 c 128,-1,8
 1412 1209 1412 1209 1473 1067 c 128,-1,9
 1534 925 1534 925 1534 770 c 0,10,11
 1534 614 1534 614 1473 471.5 c 128,-1,12
 1412 329 1412 329 1309 226 c 128,-1,13
 1206 123 1206 123 1064 62.5 c 128,-1,14
 922 2 922 2 766 2 c 0,15,16
 611 2 611 2 469 62.5 c 128,-1,17
 327 123 327 123 224.5 225.5 c 128,-1,18
 122 328 122 328 61 470 c 128,-1,19
 0 612 0 612 0 769 c 0,0,1
168 769 m 0,20,21
 168 607 168 607 248.5 469.5 c 128,-1,22
 329 332 329 332 467 252.5 c 128,-1,23
 605 173 605 173 766 173 c 0,24,25
 887 173 887 173 998 220.5 c 128,-1,26
 1109 268 1109 268 1189.5 348 c 128,-1,27
 1270 428 1270 428 1317.5 538.5 c 128,-1,28
 1365 649 1365 649 1365 770 c 0,29,30
 1365 1014 1365 1014 1187 1192 c 0,31,32
 1009 1368 1009 1368 765 1368 c 0,33,34
 644 1368 644 1368 533.5 1320 c 128,-1,35
 423 1272 423 1272 343 1192 c 128,-1,36
 263 1112 263 1112 215.5 1001 c 128,-1,37
 168 890 168 890 168 769 c 0,20,21
518 998 m 2,38,39
 516 1009 516 1009 521.5 1015 c 128,-1,40
 527 1021 527 1021 537 1017 c 2,41,-1
 1139 768 l 2,42,43
 1151 766 1151 766 1151 758 c 0,44,45
 1151 749 1151 749 1139 744 c 2,46,-1
 910 640 l 2,47,48
 900 636 900 636 895 625 c 2,49,-1
 791 395 l 2,50,51
 786 384 786 384 777 384 c 0,52,53
 769 384 769 384 767 395 c 2,54,-1
 518 998 l 2,38,39
EndSplineSet
EndChar

StartChar: x
Encoding: 120 120 80
Width: 2324
Flags: W
LayerCount: 2
Fore
SplineSet
0 635 m 0,0,1
 0 677 0 677 29 701 c 0,2,3
 52 725 52 725 95 725 c 2,4,-1
 317 725 l 2,5,6
 356 725 356 725 381.5 699.5 c 128,-1,7
 407 674 407 674 407 635 c 0,8,9
 407 597 407 597 381 570 c 128,-1,10
 355 543 355 543 317 543 c 2,11,-1
 95 543 l 2,12,13
 56 543 56 543 28 570 c 128,-1,14
 0 597 0 597 0 635 c 0,0,1
99 93 m 0,15,16
 99 130 99 130 127 158 c 0,17,18
 153 183 153 183 192 183 c 2,19,-1
 2134 183 l 2,20,21
 2173 183 2173 183 2200 157 c 128,-1,22
 2227 131 2227 131 2227 93 c 128,-1,23
 2227 55 2227 55 2199.5 27.5 c 128,-1,24
 2172 0 2172 0 2134 0 c 2,25,-1
 192 0 l 2,26,27
 154 0 154 0 126.5 27.5 c 128,-1,28
 99 55 99 55 99 93 c 0,15,16
317 1391 m 0,29,30
 317 1432 317 1432 342 1454 c 0,31,32
 369 1483 369 1483 408 1483 c 0,33,34
 446 1483 446 1483 473 1454 c 2,35,-1
 627 1298 l 2,36,37
 655 1272 655 1272 655 1234 c 0,38,39
 655 1194 655 1194 629.5 1168.5 c 128,-1,40
 604 1143 604 1143 565 1143 c 0,41,42
 530 1143 530 1143 501 1169 c 2,43,-1
 342 1326 l 2,44,45
 317 1348 317 1348 317 1391 c 0,29,30
594 635 m 0,46,47
 594 496 594 496 651 386 c 0,48,49
 656 371 656 371 677 371 c 2,50,-1
 855 371 l 2,51,52
 867 371 867 371 869.5 377.5 c 128,-1,53
 872 384 872 384 862 395 c 0,54,55
 777 499 777 499 777 635 c 0,56,57
 777 794 777 794 891 906 c 128,-1,58
 1005 1018 1005 1018 1163 1018 c 0,59,60
 1322 1018 1322 1018 1434.5 906 c 128,-1,61
 1547 794 1547 794 1547 635 c 0,62,63
 1547 498 1547 498 1462 395 c 0,64,65
 1456 385 1456 385 1456 382 c 0,66,67
 1455 377 1455 377 1459 374 c 128,-1,68
 1463 371 1463 371 1470 371 c 2,69,-1
 1651 371 l 2,70,71
 1665 371 1665 371 1673 386 c 0,72,73
 1733 499 1733 499 1733 635 c 0,74,75
 1733 788 1733 788 1656 919.5 c 128,-1,76
 1579 1051 1579 1051 1447.5 1128 c 128,-1,77
 1316 1205 1316 1205 1163 1205 c 128,-1,78
 1010 1205 1010 1205 878.5 1128 c 128,-1,79
 747 1051 747 1051 670.5 919.5 c 128,-1,80
 594 788 594 788 594 635 c 0,46,47
1071 1481 m 2,81,-1
 1071 1704 l 2,82,83
 1071 1742 1071 1742 1098 1770 c 128,-1,84
 1125 1798 1125 1798 1163 1798 c 128,-1,85
 1201 1798 1201 1798 1229 1770 c 128,-1,86
 1257 1742 1257 1742 1257 1704 c 2,87,-1
 1257 1481 l 2,88,89
 1257 1443 1257 1443 1229 1415 c 128,-1,90
 1201 1387 1201 1387 1163 1387 c 128,-1,91
 1125 1387 1125 1387 1098 1415 c 128,-1,92
 1071 1443 1071 1443 1071 1481 c 2,81,-1
1671 1234 m 0,93,94
 1671 1273 1671 1273 1697 1298 c 2,95,-1
 1851 1454 l 2,96,97
 1878 1483 1878 1483 1917 1483 c 0,98,99
 1957 1483 1957 1483 1983.5 1456.5 c 128,-1,100
 2010 1430 2010 1430 2010 1391 c 0,101,102
 2010 1350 2010 1350 1986 1326 c 2,103,-1
 1825 1169 l 2,104,105
 1799 1145 1799 1145 1762 1145 c 0,106,107
 1722 1144 1722 1144 1696.5 1169 c 128,-1,108
 1671 1194 1671 1194 1671 1234 c 0,93,94
1919 635 m 0,109,110
 1919 678 1919 678 1945 701 c 0,111,112
 1968 725 1968 725 2008 725 c 2,113,-1
 2231 725 l 2,114,115
 2270 725 2270 725 2297.5 699.5 c 128,-1,116
 2325 674 2325 674 2325 635 c 0,117,118
 2325 597 2325 597 2297 570 c 128,-1,119
 2269 543 2269 543 2231 543 c 2,120,-1
 2008 543 l 2,121,122
 1971 543 1971 543 1945 570 c 128,-1,123
 1919 597 1919 597 1919 635 c 0,109,110
EndSplineSet
EndChar

StartChar: y
Encoding: 121 121 81
Width: 2148
Flags: W
LayerCount: 2
Fore
SplineSet
0 94 m 0,0,1
 0 136 0 136 30 160 c 1,2,3
 52 185 52 185 97 185 c 2,4,-1
 2053 185 l 2,5,6
 2093 185 2093 185 2121 159 c 128,-1,7
 2149 133 2149 133 2149 94 c 0,8,9
 2149 56 2149 56 2120.5 27.5 c 128,-1,10
 2092 -1 2092 -1 2053 -1 c 2,11,-1
 97 -1 l 2,12,13
 57 -1 57 -1 28.5 27.5 c 128,-1,14
 0 56 0 56 0 94 c 0,0,1
210 978 m 128,-1,16
 210 1020 210 1020 235 1045 c 0,17,18
 262 1073 262 1073 304 1073 c 0,19,20
 341 1073 341 1073 368 1045 c 2,21,-1
 528 885 l 2,22,23
 557 856 557 856 557 818 c 0,24,25
 557 781 557 781 528 752 c 0,26,27
 504 723 504 723 463.5 723.5 c 128,-1,28
 423 724 423 724 395 752 c 2,29,-1
 235 912 l 2,30,15
 210 936 210 936 210 978 c 128,-1,16
523 382 m 0,31,32
 516 357 516 357 539 357 c 2,33,-1
 698 357 l 2,34,35
 709 357 709 357 722 375 c 1,36,37
 770 477 770 477 864 537 c 128,-1,38
 958 597 958 597 1073 597 c 0,39,40
 1189 597 1189 597 1285 537 c 128,-1,41
 1381 477 1381 477 1429 375 c 1,42,43
 1442 357 1442 357 1453 357 c 2,44,-1
 1611 357 l 2,45,46
 1631 357 1631 357 1627 382 c 0,47,48
 1573 563 1573 563 1419.5 676 c 128,-1,49
 1266 789 1266 789 1073 789 c 0,50,51
 881 789 881 789 729 676 c 128,-1,52
 577 563 577 563 523 382 c 0,31,32
982 1071 m 2,53,-1
 982 1299 l 2,54,55
 982 1339 982 1339 1008 1367 c 128,-1,56
 1034 1395 1034 1395 1073 1395 c 0,57,58
 1113 1395 1113 1395 1140 1367.5 c 128,-1,59
 1167 1340 1167 1340 1167 1299 c 2,60,-1
 1167 1071 l 2,61,62
 1167 1030 1167 1030 1140 1003 c 128,-1,63
 1113 976 1113 976 1073 976 c 0,64,65
 1034 976 1034 976 1008 1003.5 c 128,-1,66
 982 1031 982 1031 982 1071 c 2,53,-1
1592 818 m 0,67,68
 1592 856 1592 856 1619 885 c 2,69,-1
 1783 1045 l 2,70,71
 1808 1073 1808 1073 1849 1073 c 0,72,73
 1888 1073 1888 1073 1913 1046 c 128,-1,74
 1938 1019 1938 1019 1938 978 c 0,75,76
 1938 936 1938 936 1913 912 c 2,77,-1
 1755 752 l 2,78,79
 1728 725 1728 725 1695 722 c 0,80,81
 1659 718 1659 718 1625.5 748 c 128,-1,82
 1592 778 1592 778 1592 818 c 0,67,68
EndSplineSet
EndChar

StartChar: z
Encoding: 122 122 82
Width: 2539
Flags: W
LayerCount: 2
Fore
SplineSet
0 521 m 0,0,1
 0 482 0 482 30 455 c 1,2,3
 56 425 56 425 97 425 c 2,4,-1
 1664 425 l 2,5,6
 1710 425 1710 425 1742 393 c 128,-1,7
 1774 361 1774 361 1774 314 c 0,8,9
 1774 268 1774 268 1742.5 237.5 c 128,-1,10
 1711 207 1711 207 1664 207 c 128,-1,11
 1617 207 1617 207 1586 238 c 0,12,13
 1560 266 1560 266 1522 266 c 0,14,15
 1482 266 1482 266 1453.5 238.5 c 128,-1,16
 1425 211 1425 211 1425 173 c 0,17,18
 1425 133 1425 133 1455 106 c 0,19,20
 1545 18 1545 18 1664 18 c 0,21,22
 1789 18 1789 18 1878 104 c 128,-1,23
 1967 190 1967 190 1967 314 c 128,-1,24
 1967 438 1967 438 1877.5 527.5 c 128,-1,25
 1788 617 1788 617 1664 617 c 2,26,-1
 97 617 l 2,27,28
 57 617 57 617 28.5 589 c 128,-1,29
 0 561 0 561 0 521 c 0,0,1
0 871 m 0,30,31
 0 834 0 834 30 806 c 0,32,33
 58 778 58 778 97 778 c 2,34,-1
 2235 778 l 2,35,36
 2360 778 2360 778 2449.5 865 c 128,-1,37
 2539 952 2539 952 2539 1075 c 0,38,39
 2539 1199 2539 1199 2449.5 1287 c 128,-1,40
 2360 1375 2360 1375 2235 1375 c 0,41,42
 2112 1375 2112 1375 2027 1290 c 0,43,44
 1998 1264 1998 1264 1998 1219 c 0,45,46
 1998 1178 1998 1178 2025.5 1152 c 128,-1,47
 2053 1126 2053 1126 2093 1126 c 0,48,49
 2132 1126 2132 1126 2160 1152 c 0,50,51
 2190 1185 2190 1185 2235 1185 c 0,52,53
 2281 1185 2281 1185 2312.5 1153 c 128,-1,54
 2344 1121 2344 1121 2344 1075 c 128,-1,55
 2344 1029 2344 1029 2312.5 998 c 128,-1,56
 2281 967 2281 967 2235 967 c 2,57,-1
 97 967 l 2,58,59
 57 967 57 967 28.5 939 c 128,-1,60
 0 911 0 911 0 871 c 0,30,31
EndSplineSet
EndChar

StartChar: braceleft
Encoding: 123 123 83
Width: 2539
Flags: W
LayerCount: 2
Fore
SplineSet
0 521 m 0,0,1
 0 482 0 482 30 455 c 1,2,3
 56 425 56 425 97 425 c 2,4,-1
 1664 425 l 2,5,6
 1710 425 1710 425 1742 393 c 128,-1,7
 1774 361 1774 361 1774 314 c 0,8,9
 1774 268 1774 268 1742.5 237.5 c 128,-1,10
 1711 207 1711 207 1664 207 c 128,-1,11
 1617 207 1617 207 1586 238 c 0,12,13
 1560 266 1560 266 1522 266 c 0,14,15
 1482 266 1482 266 1453.5 238.5 c 128,-1,16
 1425 211 1425 211 1425 173 c 0,17,18
 1425 133 1425 133 1455 106 c 0,19,20
 1545 18 1545 18 1664 18 c 0,21,22
 1789 18 1789 18 1878 104 c 128,-1,23
 1967 190 1967 190 1967 314 c 128,-1,24
 1967 438 1967 438 1877.5 527.5 c 128,-1,25
 1788 617 1788 617 1664 617 c 2,26,-1
 97 617 l 2,27,28
 57 617 57 617 28.5 589 c 128,-1,29
 0 561 0 561 0 521 c 0,0,1
0 871 m 0,30,31
 0 834 0 834 30 806 c 0,32,33
 58 778 58 778 97 778 c 2,34,-1
 2235 778 l 2,35,36
 2360 778 2360 778 2449.5 865 c 128,-1,37
 2539 952 2539 952 2539 1075 c 0,38,39
 2539 1199 2539 1199 2449.5 1287 c 128,-1,40
 2360 1375 2360 1375 2235 1375 c 0,41,42
 2112 1375 2112 1375 2027 1290 c 0,43,44
 1998 1264 1998 1264 1998 1219 c 0,45,46
 1998 1178 1998 1178 2025.5 1152 c 128,-1,47
 2053 1126 2053 1126 2093 1126 c 0,48,49
 2132 1126 2132 1126 2160 1152 c 0,50,51
 2190 1185 2190 1185 2235 1185 c 0,52,53
 2281 1185 2281 1185 2312.5 1153 c 128,-1,54
 2344 1121 2344 1121 2344 1075 c 128,-1,55
 2344 1029 2344 1029 2312.5 998 c 128,-1,56
 2281 967 2281 967 2235 967 c 2,57,-1
 97 967 l 2,58,59
 57 967 57 967 28.5 939 c 128,-1,60
 0 911 0 911 0 871 c 0,30,31
168 133 m 0,61,62
 168 95 168 95 194 71 c 0,63,64
 220 45 220 45 256 45 c 0,65,66
 295 45 295 45 322 70 c 128,-1,67
 349 95 349 95 349 133 c 0,68,69
 349 170 349 170 321.5 196.5 c 128,-1,70
 294 223 294 223 256 223 c 0,71,72
 220 223 220 223 194 196.5 c 128,-1,73
 168 170 168 170 168 133 c 0,61,62
269 1192 m 0,74,75
 269 1154 269 1154 295 1130 c 0,76,77
 321 1104 321 1104 357 1104 c 0,78,79
 396 1104 396 1104 422.5 1129 c 128,-1,80
 449 1154 449 1154 449 1192 c 0,81,82
 449 1229 449 1229 422 1255.5 c 128,-1,83
 395 1282 395 1282 357 1282 c 0,84,85
 321 1282 321 1282 295 1255.5 c 128,-1,86
 269 1229 269 1229 269 1192 c 0,74,75
592 1438 m 0,87,88
 592 1400 592 1400 618 1376 c 0,89,90
 644 1350 644 1350 680 1350 c 0,91,92
 719 1350 719 1350 746 1375 c 128,-1,93
 773 1400 773 1400 773 1438 c 0,94,95
 773 1475 773 1475 745.5 1501.5 c 128,-1,96
 718 1528 718 1528 680 1528 c 0,97,98
 644 1528 644 1528 618 1501.5 c 128,-1,99
 592 1475 592 1475 592 1438 c 0,87,88
602 201 m 128,-1,101
 602 164 602 164 629 139 c 0,102,103
 655 113 655 113 690 113 c 0,104,105
 729 113 729 113 756 138 c 128,-1,106
 783 163 783 163 783 201 c 0,107,108
 783 238 783 238 755.5 264.5 c 128,-1,109
 728 291 728 291 690 291 c 0,110,111
 654 291 654 291 628 264.5 c 128,-1,100
 602 238 602 238 602 201 c 128,-1,101
1048 1249 m 0,112,113
 1048 1211 1048 1211 1074 1187 c 0,114,115
 1100 1161 1100 1161 1136 1161 c 0,116,117
 1175 1161 1175 1161 1202 1186 c 128,-1,118
 1229 1211 1229 1211 1229 1249 c 0,119,120
 1229 1286 1229 1286 1201.5 1312.5 c 128,-1,121
 1174 1339 1174 1339 1136 1339 c 0,122,123
 1100 1339 1100 1339 1074 1312.5 c 128,-1,124
 1048 1286 1048 1286 1048 1249 c 0,112,113
1082 77 m 128,-1,126
 1082 40 1082 40 1109 15 c 0,127,128
 1135 -11 1135 -11 1170 -11 c 0,129,130
 1209 -11 1209 -11 1236 14 c 128,-1,131
 1263 39 1263 39 1263 77 c 0,132,133
 1263 114 1263 114 1235.5 140.5 c 128,-1,134
 1208 167 1208 167 1170 167 c 0,135,136
 1134 167 1134 167 1108 140.5 c 128,-1,125
 1082 114 1082 114 1082 77 c 128,-1,126
1560 1266 m 128,-1,138
 1560 1229 1560 1229 1586 1205 c 0,139,140
 1613 1178 1613 1178 1648 1178 c 0,141,142
 1687 1178 1687 1178 1714 1203 c 128,-1,143
 1741 1228 1741 1228 1741 1266 c 0,144,145
 1741 1303 1741 1303 1713.5 1330 c 128,-1,146
 1686 1357 1686 1357 1648 1357 c 0,147,148
 1613 1357 1613 1357 1586.5 1330 c 128,-1,137
 1560 1303 1560 1303 1560 1266 c 128,-1,138
2103 513 m 0,149,150
 2103 475 2103 475 2129 451 c 0,151,152
 2155 425 2155 425 2191 425 c 0,153,154
 2230 425 2230 425 2256.5 450 c 128,-1,155
 2283 475 2283 475 2283 513 c 0,156,157
 2283 550 2283 550 2256 576.5 c 128,-1,158
 2229 603 2229 603 2191 603 c 0,159,160
 2155 603 2155 603 2129 576.5 c 128,-1,161
 2103 550 2103 550 2103 513 c 0,149,150
EndSplineSet
EndChar
